<?xml version="1.0" encoding="utf-8" ?>
<svg baseProfile="full" height="100%" version="1.1" width="100%" xmlns="http://www.w3.org/2000/svg" xmlns:ev="http://www.w3.org/2001/xml-events" xmlns:xlink="http://www.w3.org/1999/xlink"><defs /><line stroke="black" x1="300" x2="400" y1="300" y2="300" /><line stroke="black" x1="300" x2="300" y1="300" y2="400" /><line stroke="black" x1="400" x2="400" y1="300" y2="400" /><line stroke="black" x1="300" x2="400" y1="400" y2="400" /><line stroke="black" x1="300.0" x2="403.366188286" y1="300.0" y2="337.622215766" /><line stroke="black" x1="300.0" x2="262.377784234" y1="300.0" y2="403.366188286" /><line stroke="black" x1="403.366188286" x2="365.743972521" y1="337.622215766" y2="440.988404052" /><line stroke="black" x1="262.377784234" x2="365.743972521" y1="403.366188286" y2="440.988404052" /><line stroke="black" x1="300.0" x2="392.691377617" y1="300.0" y2="377.777300772" /><line stroke="black" x1="300.0" x2="222.222699228" y1="300.0" y2="392.691377617" /><line stroke="black" x1="392.691377617" x2="314.914076845" y1="377.777300772" y2="470.468678389" /><line stroke="black" x1="222.222699228" x2="314.914076845" y1="392.691377617" y2="470.468678389" /><line stroke="black" x1="300.0" x2="366.55" y1="300.0" y2="415.267981244" /><line stroke="black" x1="300.0" x2="184.732018756" y1="300.0" y2="366.55" /><line stroke="black" x1="366.55" x2="251.282018756" y1="415.267981244" y2="481.817981244" /><line stroke="black" x1="184.732018756" x2="251.282018756" y1="366.55" y2="481.817981244" /><line stroke="black" x1="300.0" x2="325.423829692" y1="300.0" y2="444.185703119" /><line stroke="black" x1="300.0" x2="155.814296881" y1="300.0" y2="325.423829692" /><line stroke="black" x1="325.423829692" x2="181.238126574" y1="444.185703119" y2="469.609532811" /><line stroke="black" x1="155.814296881" x2="181.238126574" y1="325.423829692" y2="469.609532811" /><line stroke="black" x1="300.0" x2="272.033787339" y1="300.0" y2="458.60427343" /><line stroke="black" x1="300.0" x2="141.39572657" y1="300.0" y2="272.033787339" /><line stroke="black" x1="272.033787339" x2="113.429513908" y1="458.60427343" y2="430.638060769" /><line stroke="black" x1="141.39572657" x2="113.429513908" y1="272.033787339" y2="430.638060769" /><line stroke="black" x1="300.0" x2="211.42195" y1="300.0" y2="453.421683035" /><line stroke="black" x1="300.0" x2="146.578316965" y1="300.0" y2="211.42195" /><line stroke="black" x1="211.42195" x2="58.0002669646" y1="453.421683035" y2="364.843633035" /><line stroke="black" x1="146.578316965" x2="58.0002669646" y1="211.42195" y2="364.843633035" /><line stroke="black" x1="300.0" x2="150.719609433" y1="300.0" y2="425.261120666" /><line stroke="black" x1="300.0" x2="174.738879334" y1="300.0" y2="150.719609433" /><line stroke="black" x1="150.719609433" x2="25.458488767" y1="425.261120666" y2="275.9807301" /><line stroke="black" x1="174.738879334" x2="25.458488767" y1="150.719609433" y2="275.9807301" /><line stroke="black" x1="300.0" x2="98.5685413244" y1="300.0" y2="373.315055203" /><line stroke="black" x1="300.0" x2="226.684944797" y1="300.0" y2="98.5685413244" /><line stroke="black" x1="98.5685413244" x2="25.2534861216" y1="373.315055203" y2="171.883596527" /><line stroke="black" x1="226.684944797" x2="25.2534861216" y1="98.5685413244" y2="171.883596527" /></svg>