<?xml version="1.0" encoding="utf-8" ?>
<svg baseProfile="full" height="100%" version="1.1" width="100%" xmlns="http://www.w3.org/2000/svg" xmlns:ev="http://www.w3.org/2001/xml-events" xmlns:xlink="http://www.w3.org/1999/xlink"><defs /><line stroke="black" x1="100.0" x2="100.0" y1="200.0" y2="100.0" /><line stroke="black" x1="100.0" x2="52.4471741852" y1="100.0" y2="84.5491502813" /><line stroke="black" x1="52.4471741852" x2="37.7525428779" y1="84.5491502813" y2="104.774575141" /><line stroke="black" x1="37.7525428779" x2="45.0998585316" y1="104.774575141" y2="114.88728757" /><line stroke="black" x1="45.0998585316" x2="51.0439617584" y1="114.88728757" y2="112.955931355" /><line stroke="black" x1="51.0439617584" x2="45.0998585316" y1="112.955931355" y2="114.88728757" /><line stroke="black" x1="45.0998585316" x2="41.4262007048" y1="114.88728757" y2="119.943643785" /><line stroke="black" x1="41.4262007048" x2="45.0998585316" y1="119.943643785" y2="114.88728757" /><line stroke="black" x1="45.0998585316" x2="37.7525428779" y1="114.88728757" y2="104.774575141" /><line stroke="black" x1="37.7525428779" x2="25.8643364242" y1="104.774575141" y2="100.911862711" /><line stroke="black" x1="25.8643364242" x2="22.1906785974" y1="100.911862711" y2="105.968218926" /><line stroke="black" x1="22.1906785974" x2="25.8643364242" y1="105.968218926" y2="100.911862711" /><line stroke="black" x1="25.8643364242" x2="25.8643364242" y1="100.911862711" y2="94.6618627109" /><line stroke="black" x1="25.8643364242" x2="25.8643364242" y1="94.6618627109" y2="100.911862711" /><line stroke="black" x1="25.8643364242" x2="37.7525428779" y1="100.911862711" y2="104.774575141" /><line stroke="black" x1="37.7525428779" x2="52.4471741852" y1="104.774575141" y2="84.5491502813" /><line stroke="black" x1="52.4471741852" x2="52.4471741852" y1="84.5491502813" y2="59.5491502813" /><line stroke="black" x1="52.4471741852" x2="40.5589677316" y1="59.5491502813" y2="55.6864378516" /><line stroke="black" x1="40.5589677316" x2="36.8853099047" y1="55.6864378516" y2="60.7427940664" /><line stroke="black" x1="36.8853099047" x2="40.5589677316" y1="60.7427940664" y2="55.6864378516" /><line stroke="black" x1="40.5589677316" x2="40.5589677316" y1="55.6864378516" y2="49.4364378516" /><line stroke="black" x1="40.5589677316" x2="40.5589677316" y1="49.4364378516" y2="55.6864378516" /><line stroke="black" x1="40.5589677316" x2="52.4471741852" y1="55.6864378516" y2="59.5491502813" /><line stroke="black" x1="52.4471741852" x2="64.3353806389" y1="59.5491502813" y2="55.6864378516" /><line stroke="black" x1="64.3353806389" x2="64.3353806389" y1="55.6864378516" y2="49.4364378516" /><line stroke="black" x1="64.3353806389" x2="64.3353806389" y1="49.4364378516" y2="55.6864378516" /><line stroke="black" x1="64.3353806389" x2="68.0090384658" y1="55.6864378516" y2="60.7427940664" /><line stroke="black" x1="68.0090384658" x2="64.3353806389" y1="60.7427940664" y2="55.6864378516" /><line stroke="black" x1="64.3353806389" x2="52.4471741852" y1="55.6864378516" y2="59.5491502813" /><line stroke="black" x1="52.4471741852" x2="52.4471741852" y1="59.5491502813" y2="84.5491502813" /><line stroke="black" x1="52.4471741852" x2="100.0" y1="84.5491502813" y2="100.0" /><line stroke="black" x1="100.0" x2="147.552825815" y1="100.0" y2="84.5491502813" /><line stroke="black" x1="147.552825815" x2="147.552825815" y1="84.5491502813" y2="59.5491502813" /><line stroke="black" x1="147.552825815" x2="135.664619361" y1="59.5491502813" y2="55.6864378516" /><line stroke="black" x1="135.664619361" x2="131.990961534" y1="55.6864378516" y2="60.7427940664" /><line stroke="black" x1="131.990961534" x2="135.664619361" y1="60.7427940664" y2="55.6864378516" /><line stroke="black" x1="135.664619361" x2="135.664619361" y1="55.6864378516" y2="49.4364378516" /><line stroke="black" x1="135.664619361" x2="135.664619361" y1="49.4364378516" y2="55.6864378516" /><line stroke="black" x1="135.664619361" x2="147.552825815" y1="55.6864378516" y2="59.5491502813" /><line stroke="black" x1="147.552825815" x2="159.441032268" y1="59.5491502813" y2="55.6864378516" /><line stroke="black" x1="159.441032268" x2="159.441032268" y1="55.6864378516" y2="49.4364378516" /><line stroke="black" x1="159.441032268" x2="159.441032268" y1="49.4364378516" y2="55.6864378516" /><line stroke="black" x1="159.441032268" x2="163.114690095" y1="55.6864378516" y2="60.7427940664" /><line stroke="black" x1="163.114690095" x2="159.441032268" y1="60.7427940664" y2="55.6864378516" /><line stroke="black" x1="159.441032268" x2="147.552825815" y1="55.6864378516" y2="59.5491502813" /><line stroke="black" x1="147.552825815" x2="147.552825815" y1="59.5491502813" y2="84.5491502813" /><line stroke="black" x1="147.552825815" x2="162.247457122" y1="84.5491502813" y2="104.774575141" /><line stroke="black" x1="162.247457122" x2="174.135663576" y1="104.774575141" y2="100.911862711" /><line stroke="black" x1="174.135663576" x2="174.135663576" y1="100.911862711" y2="94.6618627109" /><line stroke="black" x1="174.135663576" x2="174.135663576" y1="94.6618627109" y2="100.911862711" /><line stroke="black" x1="174.135663576" x2="177.809321403" y1="100.911862711" y2="105.968218926" /><line stroke="black" x1="177.809321403" x2="174.135663576" y1="105.968218926" y2="100.911862711" /><line stroke="black" x1="174.135663576" x2="162.247457122" y1="100.911862711" y2="104.774575141" /><line stroke="black" x1="162.247457122" x2="154.900141468" y1="104.774575141" y2="114.88728757" /><line stroke="black" x1="154.900141468" x2="158.573799295" y1="114.88728757" y2="119.943643785" /><line stroke="black" x1="158.573799295" x2="154.900141468" y1="119.943643785" y2="114.88728757" /><line stroke="black" x1="154.900141468" x2="148.956038242" y1="114.88728757" y2="112.955931355" /><line stroke="black" x1="148.956038242" x2="154.900141468" y1="112.955931355" y2="114.88728757" /><line stroke="black" x1="154.900141468" x2="162.247457122" y1="114.88728757" y2="104.774575141" /><line stroke="black" x1="162.247457122" x2="147.552825815" y1="104.774575141" y2="84.5491502813" /><line stroke="black" x1="147.552825815" x2="100.0" y1="84.5491502813" y2="100.0" /><line stroke="black" x1="100.0" x2="100.0" y1="100.0" y2="200.0" /></svg>