<?xml version="1.0" encoding="utf-8" ?>
<svg baseProfile="full" height="100%" version="1.1" width="100%" xmlns="http://www.w3.org/2000/svg" xmlns:ev="http://www.w3.org/2001/xml-events" xmlns:xlink="http://www.w3.org/1999/xlink"><defs /><line stroke="black" x1="100.0" x2="100.0" y1="200.0" y2="100.0" /><line stroke="black" x1="100.0" x2="64.6446609407" y1="100.0" y2="64.6446609407" /><line stroke="black" x1="64.6446609407" x2="39.6446609407" y1="64.6446609407" y2="64.6446609407" /><line stroke="black" x1="39.6446609407" x2="30.8058261758" y1="64.6446609407" y2="73.4834957055" /><line stroke="black" x1="30.8058261758" x2="30.8058261758" y1="73.4834957055" y2="79.7334957055" /><line stroke="black" x1="30.8058261758" x2="33.015534867" y1="79.7334957055" y2="81.9432043967" /><line stroke="black" x1="33.015534867" x2="34.578034867" y1="81.9432043967" y2="81.9432043967" /><line stroke="black" x1="34.578034867" x2="35.1304620399" y1="81.9432043967" y2="81.3907772239" /><line stroke="black" x1="35.1304620399" x2="34.578034867" y1="81.3907772239" y2="81.9432043967" /><line stroke="black" x1="34.578034867" x2="35.1304620399" y1="81.9432043967" y2="82.4956315695" /><line stroke="black" x1="35.1304620399" x2="34.578034867" y1="82.4956315695" y2="81.9432043967" /><line stroke="black" x1="34.578034867" x2="33.015534867" y1="81.9432043967" y2="81.9432043967" /><line stroke="black" x1="33.015534867" x2="33.015534867" y1="81.9432043967" y2="83.5057043967" /><line stroke="black" x1="33.015534867" x2="33.5679620399" y1="83.5057043967" y2="84.0581315695" /><line stroke="black" x1="33.5679620399" x2="33.015534867" y1="84.0581315695" y2="83.5057043967" /><line stroke="black" x1="33.015534867" x2="32.4631076942" y1="83.5057043967" y2="84.0581315695" /><line stroke="black" x1="32.4631076942" x2="33.015534867" y1="84.0581315695" y2="83.5057043967" /><line stroke="black" x1="33.015534867" x2="33.015534867" y1="83.5057043967" y2="81.9432043967" /><line stroke="black" x1="33.015534867" x2="30.8058261758" y1="81.9432043967" y2="79.7334957055" /><line stroke="black" x1="30.8058261758" x2="28.5961174846" y1="79.7334957055" y2="81.9432043967" /><line stroke="black" x1="28.5961174846" x2="28.5961174846" y1="81.9432043967" y2="83.5057043967" /><line stroke="black" x1="28.5961174846" x2="29.1485446574" y1="83.5057043967" y2="84.0581315695" /><line stroke="black" x1="29.1485446574" x2="28.5961174846" y1="84.0581315695" y2="83.5057043967" /><line stroke="black" x1="28.5961174846" x2="28.0436903118" y1="83.5057043967" y2="84.0581315695" /><line stroke="black" x1="28.0436903118" x2="28.5961174846" y1="84.0581315695" y2="83.5057043967" /><line stroke="black" x1="28.5961174846" x2="28.5961174846" y1="83.5057043967" y2="81.9432043967" /><line stroke="black" x1="28.5961174846" x2="27.0336174846" y1="81.9432043967" y2="81.9432043967" /><line stroke="black" x1="27.0336174846" x2="26.4811903118" y1="81.9432043967" y2="82.4956315695" /><line stroke="black" x1="26.4811903118" x2="27.0336174846" y1="82.4956315695" y2="81.9432043967" /><line stroke="black" x1="27.0336174846" x2="26.4811903118" y1="81.9432043967" y2="81.3907772239" /><line stroke="black" x1="26.4811903118" x2="27.0336174846" y1="81.3907772239" y2="81.9432043967" /><line stroke="black" x1="27.0336174846" x2="28.5961174846" y1="81.9432043967" y2="81.9432043967" /><line stroke="black" x1="28.5961174846" x2="30.8058261758" y1="81.9432043967" y2="79.7334957055" /><line stroke="black" x1="30.8058261758" x2="30.8058261758" y1="79.7334957055" y2="73.4834957055" /><line stroke="black" x1="30.8058261758" x2="24.5558261758" y1="73.4834957055" y2="73.4834957055" /><line stroke="black" x1="24.5558261758" x2="22.3461174846" y1="73.4834957055" y2="75.6932043967" /><line stroke="black" x1="22.3461174846" x2="22.3461174846" y1="75.6932043967" y2="77.2557043967" /><line stroke="black" x1="22.3461174846" x2="22.8985446574" y1="77.2557043967" y2="77.8081315695" /><line stroke="black" x1="22.8985446574" x2="22.3461174846" y1="77.8081315695" y2="77.2557043967" /><line stroke="black" x1="22.3461174846" x2="21.7936903118" y1="77.2557043967" y2="77.8081315695" /><line stroke="black" x1="21.7936903118" x2="22.3461174846" y1="77.8081315695" y2="77.2557043967" /><line stroke="black" x1="22.3461174846" x2="22.3461174846" y1="77.2557043967" y2="75.6932043967" /><line stroke="black" x1="22.3461174846" x2="20.7836174846" y1="75.6932043967" y2="75.6932043967" /><line stroke="black" x1="20.7836174846" x2="20.2311903118" y1="75.6932043967" y2="76.2456315695" /><line stroke="black" x1="20.2311903118" x2="20.7836174846" y1="76.2456315695" y2="75.6932043967" /><line stroke="black" x1="20.7836174846" x2="20.2311903118" y1="75.6932043967" y2="75.1407772239" /><line stroke="black" x1="20.2311903118" x2="20.7836174846" y1="75.1407772239" y2="75.6932043967" /><line stroke="black" x1="20.7836174846" x2="22.3461174846" y1="75.6932043967" y2="75.6932043967" /><line stroke="black" x1="22.3461174846" x2="24.5558261758" y1="75.6932043967" y2="73.4834957055" /><line stroke="black" x1="24.5558261758" x2="22.3461174846" y1="73.4834957055" y2="71.2737870143" /><line stroke="black" x1="22.3461174846" x2="20.7836174846" y1="71.2737870143" y2="71.2737870143" /><line stroke="black" x1="20.7836174846" x2="20.2311903118" y1="71.2737870143" y2="71.8262141871" /><line stroke="black" x1="20.2311903118" x2="20.7836174846" y1="71.8262141871" y2="71.2737870143" /><line stroke="black" x1="20.7836174846" x2="20.2311903118" y1="71.2737870143" y2="70.7213598415" /><line stroke="black" x1="20.2311903118" x2="20.7836174846" y1="70.7213598415" y2="71.2737870143" /><line stroke="black" x1="20.7836174846" x2="22.3461174846" y1="71.2737870143" y2="71.2737870143" /><line stroke="black" x1="22.3461174846" x2="22.3461174846" y1="71.2737870143" y2="69.7112870143" /><line stroke="black" x1="22.3461174846" x2="21.7936903118" y1="69.7112870143" y2="69.1588598415" /><line stroke="black" x1="21.7936903118" x2="22.3461174846" y1="69.1588598415" y2="69.7112870143" /><line stroke="black" x1="22.3461174846" x2="22.8985446574" y1="69.7112870143" y2="69.1588598415" /><line stroke="black" x1="22.8985446574" x2="22.3461174846" y1="69.1588598415" y2="69.7112870143" /><line stroke="black" x1="22.3461174846" x2="22.3461174846" y1="69.7112870143" y2="71.2737870143" /><line stroke="black" x1="22.3461174846" x2="24.5558261758" y1="71.2737870143" y2="73.4834957055" /><line stroke="black" x1="24.5558261758" x2="30.8058261758" y1="73.4834957055" y2="73.4834957055" /><line stroke="black" x1="30.8058261758" x2="39.6446609407" y1="73.4834957055" y2="64.6446609407" /><line stroke="black" x1="39.6446609407" x2="30.8058261758" y1="64.6446609407" y2="55.8058261758" /><line stroke="black" x1="30.8058261758" x2="24.5558261758" y1="55.8058261758" y2="55.8058261758" /><line stroke="black" x1="24.5558261758" x2="22.3461174846" y1="55.8058261758" y2="58.015534867" /><line stroke="black" x1="22.3461174846" x2="22.3461174846" y1="58.015534867" y2="59.578034867" /><line stroke="black" x1="22.3461174846" x2="22.8985446574" y1="59.578034867" y2="60.1304620399" /><line stroke="black" x1="22.8985446574" x2="22.3461174846" y1="60.1304620399" y2="59.578034867" /><line stroke="black" x1="22.3461174846" x2="21.7936903118" y1="59.578034867" y2="60.1304620399" /><line stroke="black" x1="21.7936903118" x2="22.3461174846" y1="60.1304620399" y2="59.578034867" /><line stroke="black" x1="22.3461174846" x2="22.3461174846" y1="59.578034867" y2="58.015534867" /><line stroke="black" x1="22.3461174846" x2="20.7836174846" y1="58.015534867" y2="58.015534867" /><line stroke="black" x1="20.7836174846" x2="20.2311903118" y1="58.015534867" y2="58.5679620399" /><line stroke="black" x1="20.2311903118" x2="20.7836174846" y1="58.5679620399" y2="58.015534867" /><line stroke="black" x1="20.7836174846" x2="20.2311903118" y1="58.015534867" y2="57.4631076942" /><line stroke="black" x1="20.2311903118" x2="20.7836174846" y1="57.4631076942" y2="58.015534867" /><line stroke="black" x1="20.7836174846" x2="22.3461174846" y1="58.015534867" y2="58.015534867" /><line stroke="black" x1="22.3461174846" x2="24.5558261758" y1="58.015534867" y2="55.8058261758" /><line stroke="black" x1="24.5558261758" x2="22.3461174846" y1="55.8058261758" y2="53.5961174846" /><line stroke="black" x1="22.3461174846" x2="20.7836174846" y1="53.5961174846" y2="53.5961174846" /><line stroke="black" x1="20.7836174846" x2="20.2311903118" y1="53.5961174846" y2="54.1485446574" /><line stroke="black" x1="20.2311903118" x2="20.7836174846" y1="54.1485446574" y2="53.5961174846" /><line stroke="black" x1="20.7836174846" x2="20.2311903118" y1="53.5961174846" y2="53.0436903118" /><line stroke="black" x1="20.2311903118" x2="20.7836174846" y1="53.0436903118" y2="53.5961174846" /><line stroke="black" x1="20.7836174846" x2="22.3461174846" y1="53.5961174846" y2="53.5961174846" /><line stroke="black" x1="22.3461174846" x2="22.3461174846" y1="53.5961174846" y2="52.0336174846" /><line stroke="black" x1="22.3461174846" x2="21.7936903118" y1="52.0336174846" y2="51.4811903118" /><line stroke="black" x1="21.7936903118" x2="22.3461174846" y1="51.4811903118" y2="52.0336174846" /><line stroke="black" x1="22.3461174846" x2="22.8985446574" y1="52.0336174846" y2="51.4811903118" /><line stroke="black" x1="22.8985446574" x2="22.3461174846" y1="51.4811903118" y2="52.0336174846" /><line stroke="black" x1="22.3461174846" x2="22.3461174846" y1="52.0336174846" y2="53.5961174846" /><line stroke="black" x1="22.3461174846" x2="24.5558261758" y1="53.5961174846" y2="55.8058261758" /><line stroke="black" x1="24.5558261758" x2="30.8058261758" y1="55.8058261758" y2="55.8058261758" /><line stroke="black" x1="30.8058261758" x2="30.8058261758" y1="55.8058261758" y2="49.5558261758" /><line stroke="black" x1="30.8058261758" x2="28.5961174846" y1="49.5558261758" y2="47.3461174846" /><line stroke="black" x1="28.5961174846" x2="27.0336174846" y1="47.3461174846" y2="47.3461174846" /><line stroke="black" x1="27.0336174846" x2="26.4811903118" y1="47.3461174846" y2="47.8985446574" /><line stroke="black" x1="26.4811903118" x2="27.0336174846" y1="47.8985446574" y2="47.3461174846" /><line stroke="black" x1="27.0336174846" x2="26.4811903118" y1="47.3461174846" y2="46.7936903118" /><line stroke="black" x1="26.4811903118" x2="27.0336174846" y1="46.7936903118" y2="47.3461174846" /><line stroke="black" x1="27.0336174846" x2="28.5961174846" y1="47.3461174846" y2="47.3461174846" /><line stroke="black" x1="28.5961174846" x2="28.5961174846" y1="47.3461174846" y2="45.7836174846" /><line stroke="black" x1="28.5961174846" x2="28.0436903118" y1="45.7836174846" y2="45.2311903118" /><line stroke="black" x1="28.0436903118" x2="28.5961174846" y1="45.2311903118" y2="45.7836174846" /><line stroke="black" x1="28.5961174846" x2="29.1485446574" y1="45.7836174846" y2="45.2311903118" /><line stroke="black" x1="29.1485446574" x2="28.5961174846" y1="45.2311903118" y2="45.7836174846" /><line stroke="black" x1="28.5961174846" x2="28.5961174846" y1="45.7836174846" y2="47.3461174846" /><line stroke="black" x1="28.5961174846" x2="30.8058261758" y1="47.3461174846" y2="49.5558261758" /><line stroke="black" x1="30.8058261758" x2="33.015534867" y1="49.5558261758" y2="47.3461174846" /><line stroke="black" x1="33.015534867" x2="33.015534867" y1="47.3461174846" y2="45.7836174846" /><line stroke="black" x1="33.015534867" x2="32.4631076942" y1="45.7836174846" y2="45.2311903118" /><line stroke="black" x1="32.4631076942" x2="33.015534867" y1="45.2311903118" y2="45.7836174846" /><line stroke="black" x1="33.015534867" x2="33.5679620399" y1="45.7836174846" y2="45.2311903118" /><line stroke="black" x1="33.5679620399" x2="33.015534867" y1="45.2311903118" y2="45.7836174846" /><line stroke="black" x1="33.015534867" x2="33.015534867" y1="45.7836174846" y2="47.3461174846" /><line stroke="black" x1="33.015534867" x2="34.578034867" y1="47.3461174846" y2="47.3461174846" /><line stroke="black" x1="34.578034867" x2="35.1304620399" y1="47.3461174846" y2="46.7936903118" /><line stroke="black" x1="35.1304620399" x2="34.578034867" y1="46.7936903118" y2="47.3461174846" /><line stroke="black" x1="34.578034867" x2="35.1304620399" y1="47.3461174846" y2="47.8985446574" /><line stroke="black" x1="35.1304620399" x2="34.578034867" y1="47.8985446574" y2="47.3461174846" /><line stroke="black" x1="34.578034867" x2="33.015534867" y1="47.3461174846" y2="47.3461174846" /><line stroke="black" x1="33.015534867" x2="30.8058261758" y1="47.3461174846" y2="49.5558261758" /><line stroke="black" x1="30.8058261758" x2="30.8058261758" y1="49.5558261758" y2="55.8058261758" /><line stroke="black" x1="30.8058261758" x2="39.6446609407" y1="55.8058261758" y2="64.6446609407" /><line stroke="black" x1="39.6446609407" x2="64.6446609407" y1="64.6446609407" y2="64.6446609407" /><line stroke="black" x1="64.6446609407" x2="64.6446609407" y1="64.6446609407" y2="39.6446609407" /><line stroke="black" x1="64.6446609407" x2="55.8058261758" y1="39.6446609407" y2="30.8058261758" /><line stroke="black" x1="55.8058261758" x2="49.5558261758" y1="30.8058261758" y2="30.8058261758" /><line stroke="black" x1="49.5558261758" x2="47.3461174846" y1="30.8058261758" y2="33.015534867" /><line stroke="black" x1="47.3461174846" x2="47.3461174846" y1="33.015534867" y2="34.578034867" /><line stroke="black" x1="47.3461174846" x2="47.8985446574" y1="34.578034867" y2="35.1304620399" /><line stroke="black" x1="47.8985446574" x2="47.3461174846" y1="35.1304620399" y2="34.578034867" /><line stroke="black" x1="47.3461174846" x2="46.7936903118" y1="34.578034867" y2="35.1304620399" /><line stroke="black" x1="46.7936903118" x2="47.3461174846" y1="35.1304620399" y2="34.578034867" /><line stroke="black" x1="47.3461174846" x2="47.3461174846" y1="34.578034867" y2="33.015534867" /><line stroke="black" x1="47.3461174846" x2="45.7836174846" y1="33.015534867" y2="33.015534867" /><line stroke="black" x1="45.7836174846" x2="45.2311903118" y1="33.015534867" y2="33.5679620399" /><line stroke="black" x1="45.2311903118" x2="45.7836174846" y1="33.5679620399" y2="33.015534867" /><line stroke="black" x1="45.7836174846" x2="45.2311903118" y1="33.015534867" y2="32.4631076942" /><line stroke="black" x1="45.2311903118" x2="45.7836174846" y1="32.4631076942" y2="33.015534867" /><line stroke="black" x1="45.7836174846" x2="47.3461174846" y1="33.015534867" y2="33.015534867" /><line stroke="black" x1="47.3461174846" x2="49.5558261758" y1="33.015534867" y2="30.8058261758" /><line stroke="black" x1="49.5558261758" x2="47.3461174846" y1="30.8058261758" y2="28.5961174846" /><line stroke="black" x1="47.3461174846" x2="45.7836174846" y1="28.5961174846" y2="28.5961174846" /><line stroke="black" x1="45.7836174846" x2="45.2311903118" y1="28.5961174846" y2="29.1485446574" /><line stroke="black" x1="45.2311903118" x2="45.7836174846" y1="29.1485446574" y2="28.5961174846" /><line stroke="black" x1="45.7836174846" x2="45.2311903118" y1="28.5961174846" y2="28.0436903118" /><line stroke="black" x1="45.2311903118" x2="45.7836174846" y1="28.0436903118" y2="28.5961174846" /><line stroke="black" x1="45.7836174846" x2="47.3461174846" y1="28.5961174846" y2="28.5961174846" /><line stroke="black" x1="47.3461174846" x2="47.3461174846" y1="28.5961174846" y2="27.0336174846" /><line stroke="black" x1="47.3461174846" x2="46.7936903118" y1="27.0336174846" y2="26.4811903118" /><line stroke="black" x1="46.7936903118" x2="47.3461174846" y1="26.4811903118" y2="27.0336174846" /><line stroke="black" x1="47.3461174846" x2="47.8985446574" y1="27.0336174846" y2="26.4811903118" /><line stroke="black" x1="47.8985446574" x2="47.3461174846" y1="26.4811903118" y2="27.0336174846" /><line stroke="black" x1="47.3461174846" x2="47.3461174846" y1="27.0336174846" y2="28.5961174846" /><line stroke="black" x1="47.3461174846" x2="49.5558261758" y1="28.5961174846" y2="30.8058261758" /><line stroke="black" x1="49.5558261758" x2="55.8058261758" y1="30.8058261758" y2="30.8058261758" /><line stroke="black" x1="55.8058261758" x2="55.8058261758" y1="30.8058261758" y2="24.5558261758" /><line stroke="black" x1="55.8058261758" x2="53.5961174846" y1="24.5558261758" y2="22.3461174846" /><line stroke="black" x1="53.5961174846" x2="52.0336174846" y1="22.3461174846" y2="22.3461174846" /><line stroke="black" x1="52.0336174846" x2="51.4811903118" y1="22.3461174846" y2="22.8985446574" /><line stroke="black" x1="51.4811903118" x2="52.0336174846" y1="22.8985446574" y2="22.3461174846" /><line stroke="black" x1="52.0336174846" x2="51.4811903118" y1="22.3461174846" y2="21.7936903118" /><line stroke="black" x1="51.4811903118" x2="52.0336174846" y1="21.7936903118" y2="22.3461174846" /><line stroke="black" x1="52.0336174846" x2="53.5961174846" y1="22.3461174846" y2="22.3461174846" /><line stroke="black" x1="53.5961174846" x2="53.5961174846" y1="22.3461174846" y2="20.7836174846" /><line stroke="black" x1="53.5961174846" x2="53.0436903118" y1="20.7836174846" y2="20.2311903118" /><line stroke="black" x1="53.0436903118" x2="53.5961174846" y1="20.2311903118" y2="20.7836174846" /><line stroke="black" x1="53.5961174846" x2="54.1485446574" y1="20.7836174846" y2="20.2311903118" /><line stroke="black" x1="54.1485446574" x2="53.5961174846" y1="20.2311903118" y2="20.7836174846" /><line stroke="black" x1="53.5961174846" x2="53.5961174846" y1="20.7836174846" y2="22.3461174846" /><line stroke="black" x1="53.5961174846" x2="55.8058261758" y1="22.3461174846" y2="24.5558261758" /><line stroke="black" x1="55.8058261758" x2="58.015534867" y1="24.5558261758" y2="22.3461174846" /><line stroke="black" x1="58.015534867" x2="58.015534867" y1="22.3461174846" y2="20.7836174846" /><line stroke="black" x1="58.015534867" x2="57.4631076942" y1="20.7836174846" y2="20.2311903118" /><line stroke="black" x1="57.4631076942" x2="58.015534867" y1="20.2311903118" y2="20.7836174846" /><line stroke="black" x1="58.015534867" x2="58.5679620399" y1="20.7836174846" y2="20.2311903118" /><line stroke="black" x1="58.5679620399" x2="58.015534867" y1="20.2311903118" y2="20.7836174846" /><line stroke="black" x1="58.015534867" x2="58.015534867" y1="20.7836174846" y2="22.3461174846" /><line stroke="black" x1="58.015534867" x2="59.578034867" y1="22.3461174846" y2="22.3461174846" /><line stroke="black" x1="59.578034867" x2="60.1304620399" y1="22.3461174846" y2="21.7936903118" /><line stroke="black" x1="60.1304620399" x2="59.578034867" y1="21.7936903118" y2="22.3461174846" /><line stroke="black" x1="59.578034867" x2="60.1304620399" y1="22.3461174846" y2="22.8985446574" /><line stroke="black" x1="60.1304620399" x2="59.578034867" y1="22.8985446574" y2="22.3461174846" /><line stroke="black" x1="59.578034867" x2="58.015534867" y1="22.3461174846" y2="22.3461174846" /><line stroke="black" x1="58.015534867" x2="55.8058261758" y1="22.3461174846" y2="24.5558261758" /><line stroke="black" x1="55.8058261758" x2="55.8058261758" y1="24.5558261758" y2="30.8058261758" /><line stroke="black" x1="55.8058261758" x2="64.6446609407" y1="30.8058261758" y2="39.6446609407" /><line stroke="black" x1="64.6446609407" x2="73.4834957055" y1="39.6446609407" y2="30.8058261758" /><line stroke="black" x1="73.4834957055" x2="73.4834957055" y1="30.8058261758" y2="24.5558261758" /><line stroke="black" x1="73.4834957055" x2="71.2737870143" y1="24.5558261758" y2="22.3461174846" /><line stroke="black" x1="71.2737870143" x2="69.7112870143" y1="22.3461174846" y2="22.3461174846" /><line stroke="black" x1="69.7112870143" x2="69.1588598415" y1="22.3461174846" y2="22.8985446574" /><line stroke="black" x1="69.1588598415" x2="69.7112870143" y1="22.8985446574" y2="22.3461174846" /><line stroke="black" x1="69.7112870143" x2="69.1588598415" y1="22.3461174846" y2="21.7936903118" /><line stroke="black" x1="69.1588598415" x2="69.7112870143" y1="21.7936903118" y2="22.3461174846" /><line stroke="black" x1="69.7112870143" x2="71.2737870143" y1="22.3461174846" y2="22.3461174846" /><line stroke="black" x1="71.2737870143" x2="71.2737870143" y1="22.3461174846" y2="20.7836174846" /><line stroke="black" x1="71.2737870143" x2="70.7213598415" y1="20.7836174846" y2="20.2311903118" /><line stroke="black" x1="70.7213598415" x2="71.2737870143" y1="20.2311903118" y2="20.7836174846" /><line stroke="black" x1="71.2737870143" x2="71.8262141871" y1="20.7836174846" y2="20.2311903118" /><line stroke="black" x1="71.8262141871" x2="71.2737870143" y1="20.2311903118" y2="20.7836174846" /><line stroke="black" x1="71.2737870143" x2="71.2737870143" y1="20.7836174846" y2="22.3461174846" /><line stroke="black" x1="71.2737870143" x2="73.4834957055" y1="22.3461174846" y2="24.5558261758" /><line stroke="black" x1="73.4834957055" x2="75.6932043967" y1="24.5558261758" y2="22.3461174846" /><line stroke="black" x1="75.6932043967" x2="75.6932043967" y1="22.3461174846" y2="20.7836174846" /><line stroke="black" x1="75.6932043967" x2="75.1407772239" y1="20.7836174846" y2="20.2311903118" /><line stroke="black" x1="75.1407772239" x2="75.6932043967" y1="20.2311903118" y2="20.7836174846" /><line stroke="black" x1="75.6932043967" x2="76.2456315695" y1="20.7836174846" y2="20.2311903118" /><line stroke="black" x1="76.2456315695" x2="75.6932043967" y1="20.2311903118" y2="20.7836174846" /><line stroke="black" x1="75.6932043967" x2="75.6932043967" y1="20.7836174846" y2="22.3461174846" /><line stroke="black" x1="75.6932043967" x2="77.2557043967" y1="22.3461174846" y2="22.3461174846" /><line stroke="black" x1="77.2557043967" x2="77.8081315695" y1="22.3461174846" y2="21.7936903118" /><line stroke="black" x1="77.8081315695" x2="77.2557043967" y1="21.7936903118" y2="22.3461174846" /><line stroke="black" x1="77.2557043967" x2="77.8081315695" y1="22.3461174846" y2="22.8985446574" /><line stroke="black" x1="77.8081315695" x2="77.2557043967" y1="22.8985446574" y2="22.3461174846" /><line stroke="black" x1="77.2557043967" x2="75.6932043967" y1="22.3461174846" y2="22.3461174846" /><line stroke="black" x1="75.6932043967" x2="73.4834957055" y1="22.3461174846" y2="24.5558261758" /><line stroke="black" x1="73.4834957055" x2="73.4834957055" y1="24.5558261758" y2="30.8058261758" /><line stroke="black" x1="73.4834957055" x2="79.7334957055" y1="30.8058261758" y2="30.8058261758" /><line stroke="black" x1="79.7334957055" x2="81.9432043967" y1="30.8058261758" y2="28.5961174846" /><line stroke="black" x1="81.9432043967" x2="81.9432043967" y1="28.5961174846" y2="27.0336174846" /><line stroke="black" x1="81.9432043967" x2="81.3907772239" y1="27.0336174846" y2="26.4811903118" /><line stroke="black" x1="81.3907772239" x2="81.9432043967" y1="26.4811903118" y2="27.0336174846" /><line stroke="black" x1="81.9432043967" x2="82.4956315695" y1="27.0336174846" y2="26.4811903118" /><line stroke="black" x1="82.4956315695" x2="81.9432043967" y1="26.4811903118" y2="27.0336174846" /><line stroke="black" x1="81.9432043967" x2="81.9432043967" y1="27.0336174846" y2="28.5961174846" /><line stroke="black" x1="81.9432043967" x2="83.5057043967" y1="28.5961174846" y2="28.5961174846" /><line stroke="black" x1="83.5057043967" x2="84.0581315695" y1="28.5961174846" y2="28.0436903118" /><line stroke="black" x1="84.0581315695" x2="83.5057043967" y1="28.0436903118" y2="28.5961174846" /><line stroke="black" x1="83.5057043967" x2="84.0581315695" y1="28.5961174846" y2="29.1485446574" /><line stroke="black" x1="84.0581315695" x2="83.5057043967" y1="29.1485446574" y2="28.5961174846" /><line stroke="black" x1="83.5057043967" x2="81.9432043967" y1="28.5961174846" y2="28.5961174846" /><line stroke="black" x1="81.9432043967" x2="79.7334957055" y1="28.5961174846" y2="30.8058261758" /><line stroke="black" x1="79.7334957055" x2="81.9432043967" y1="30.8058261758" y2="33.015534867" /><line stroke="black" x1="81.9432043967" x2="83.5057043967" y1="33.015534867" y2="33.015534867" /><line stroke="black" x1="83.5057043967" x2="84.0581315695" y1="33.015534867" y2="32.4631076942" /><line stroke="black" x1="84.0581315695" x2="83.5057043967" y1="32.4631076942" y2="33.015534867" /><line stroke="black" x1="83.5057043967" x2="84.0581315695" y1="33.015534867" y2="33.5679620399" /><line stroke="black" x1="84.0581315695" x2="83.5057043967" y1="33.5679620399" y2="33.015534867" /><line stroke="black" x1="83.5057043967" x2="81.9432043967" y1="33.015534867" y2="33.015534867" /><line stroke="black" x1="81.9432043967" x2="81.9432043967" y1="33.015534867" y2="34.578034867" /><line stroke="black" x1="81.9432043967" x2="82.4956315695" y1="34.578034867" y2="35.1304620399" /><line stroke="black" x1="82.4956315695" x2="81.9432043967" y1="35.1304620399" y2="34.578034867" /><line stroke="black" x1="81.9432043967" x2="81.3907772239" y1="34.578034867" y2="35.1304620399" /><line stroke="black" x1="81.3907772239" x2="81.9432043967" y1="35.1304620399" y2="34.578034867" /><line stroke="black" x1="81.9432043967" x2="81.9432043967" y1="34.578034867" y2="33.015534867" /><line stroke="black" x1="81.9432043967" x2="79.7334957055" y1="33.015534867" y2="30.8058261758" /><line stroke="black" x1="79.7334957055" x2="73.4834957055" y1="30.8058261758" y2="30.8058261758" /><line stroke="black" x1="73.4834957055" x2="64.6446609407" y1="30.8058261758" y2="39.6446609407" /><line stroke="black" x1="64.6446609407" x2="64.6446609407" y1="39.6446609407" y2="64.6446609407" /><line stroke="black" x1="64.6446609407" x2="100.0" y1="64.6446609407" y2="100.0" /><line stroke="black" x1="100.0" x2="135.355339059" y1="100.0" y2="64.6446609407" /><line stroke="black" x1="135.355339059" x2="135.355339059" y1="64.6446609407" y2="39.6446609407" /><line stroke="black" x1="135.355339059" x2="126.516504294" y1="39.6446609407" y2="30.8058261758" /><line stroke="black" x1="126.516504294" x2="120.266504294" y1="30.8058261758" y2="30.8058261758" /><line stroke="black" x1="120.266504294" x2="118.056795603" y1="30.8058261758" y2="33.015534867" /><line stroke="black" x1="118.056795603" x2="118.056795603" y1="33.015534867" y2="34.578034867" /><line stroke="black" x1="118.056795603" x2="118.609222776" y1="34.578034867" y2="35.1304620399" /><line stroke="black" x1="118.609222776" x2="118.056795603" y1="35.1304620399" y2="34.578034867" /><line stroke="black" x1="118.056795603" x2="117.50436843" y1="34.578034867" y2="35.1304620399" /><line stroke="black" x1="117.50436843" x2="118.056795603" y1="35.1304620399" y2="34.578034867" /><line stroke="black" x1="118.056795603" x2="118.056795603" y1="34.578034867" y2="33.015534867" /><line stroke="black" x1="118.056795603" x2="116.494295603" y1="33.015534867" y2="33.015534867" /><line stroke="black" x1="116.494295603" x2="115.94186843" y1="33.015534867" y2="33.5679620399" /><line stroke="black" x1="115.94186843" x2="116.494295603" y1="33.5679620399" y2="33.015534867" /><line stroke="black" x1="116.494295603" x2="115.94186843" y1="33.015534867" y2="32.4631076942" /><line stroke="black" x1="115.94186843" x2="116.494295603" y1="32.4631076942" y2="33.015534867" /><line stroke="black" x1="116.494295603" x2="118.056795603" y1="33.015534867" y2="33.015534867" /><line stroke="black" x1="118.056795603" x2="120.266504294" y1="33.015534867" y2="30.8058261758" /><line stroke="black" x1="120.266504294" x2="118.056795603" y1="30.8058261758" y2="28.5961174846" /><line stroke="black" x1="118.056795603" x2="116.494295603" y1="28.5961174846" y2="28.5961174846" /><line stroke="black" x1="116.494295603" x2="115.94186843" y1="28.5961174846" y2="29.1485446574" /><line stroke="black" x1="115.94186843" x2="116.494295603" y1="29.1485446574" y2="28.5961174846" /><line stroke="black" x1="116.494295603" x2="115.94186843" y1="28.5961174846" y2="28.0436903118" /><line stroke="black" x1="115.94186843" x2="116.494295603" y1="28.0436903118" y2="28.5961174846" /><line stroke="black" x1="116.494295603" x2="118.056795603" y1="28.5961174846" y2="28.5961174846" /><line stroke="black" x1="118.056795603" x2="118.056795603" y1="28.5961174846" y2="27.0336174846" /><line stroke="black" x1="118.056795603" x2="117.50436843" y1="27.0336174846" y2="26.4811903118" /><line stroke="black" x1="117.50436843" x2="118.056795603" y1="26.4811903118" y2="27.0336174846" /><line stroke="black" x1="118.056795603" x2="118.609222776" y1="27.0336174846" y2="26.4811903118" /><line stroke="black" x1="118.609222776" x2="118.056795603" y1="26.4811903118" y2="27.0336174846" /><line stroke="black" x1="118.056795603" x2="118.056795603" y1="27.0336174846" y2="28.5961174846" /><line stroke="black" x1="118.056795603" x2="120.266504294" y1="28.5961174846" y2="30.8058261758" /><line stroke="black" x1="120.266504294" x2="126.516504294" y1="30.8058261758" y2="30.8058261758" /><line stroke="black" x1="126.516504294" x2="126.516504294" y1="30.8058261758" y2="24.5558261758" /><line stroke="black" x1="126.516504294" x2="124.306795603" y1="24.5558261758" y2="22.3461174846" /><line stroke="black" x1="124.306795603" x2="122.744295603" y1="22.3461174846" y2="22.3461174846" /><line stroke="black" x1="122.744295603" x2="122.19186843" y1="22.3461174846" y2="22.8985446574" /><line stroke="black" x1="122.19186843" x2="122.744295603" y1="22.8985446574" y2="22.3461174846" /><line stroke="black" x1="122.744295603" x2="122.19186843" y1="22.3461174846" y2="21.7936903118" /><line stroke="black" x1="122.19186843" x2="122.744295603" y1="21.7936903118" y2="22.3461174846" /><line stroke="black" x1="122.744295603" x2="124.306795603" y1="22.3461174846" y2="22.3461174846" /><line stroke="black" x1="124.306795603" x2="124.306795603" y1="22.3461174846" y2="20.7836174846" /><line stroke="black" x1="124.306795603" x2="123.75436843" y1="20.7836174846" y2="20.2311903118" /><line stroke="black" x1="123.75436843" x2="124.306795603" y1="20.2311903118" y2="20.7836174846" /><line stroke="black" x1="124.306795603" x2="124.859222776" y1="20.7836174846" y2="20.2311903118" /><line stroke="black" x1="124.859222776" x2="124.306795603" y1="20.2311903118" y2="20.7836174846" /><line stroke="black" x1="124.306795603" x2="124.306795603" y1="20.7836174846" y2="22.3461174846" /><line stroke="black" x1="124.306795603" x2="126.516504294" y1="22.3461174846" y2="24.5558261758" /><line stroke="black" x1="126.516504294" x2="128.726212986" y1="24.5558261758" y2="22.3461174846" /><line stroke="black" x1="128.726212986" x2="128.726212986" y1="22.3461174846" y2="20.7836174846" /><line stroke="black" x1="128.726212986" x2="128.173785813" y1="20.7836174846" y2="20.2311903118" /><line stroke="black" x1="128.173785813" x2="128.726212986" y1="20.2311903118" y2="20.7836174846" /><line stroke="black" x1="128.726212986" x2="129.278640159" y1="20.7836174846" y2="20.2311903118" /><line stroke="black" x1="129.278640159" x2="128.726212986" y1="20.2311903118" y2="20.7836174846" /><line stroke="black" x1="128.726212986" x2="128.726212986" y1="20.7836174846" y2="22.3461174846" /><line stroke="black" x1="128.726212986" x2="130.288712986" y1="22.3461174846" y2="22.3461174846" /><line stroke="black" x1="130.288712986" x2="130.841140159" y1="22.3461174846" y2="21.7936903118" /><line stroke="black" x1="130.841140159" x2="130.288712986" y1="21.7936903118" y2="22.3461174846" /><line stroke="black" x1="130.288712986" x2="130.841140159" y1="22.3461174846" y2="22.8985446574" /><line stroke="black" x1="130.841140159" x2="130.288712986" y1="22.8985446574" y2="22.3461174846" /><line stroke="black" x1="130.288712986" x2="128.726212986" y1="22.3461174846" y2="22.3461174846" /><line stroke="black" x1="128.726212986" x2="126.516504294" y1="22.3461174846" y2="24.5558261758" /><line stroke="black" x1="126.516504294" x2="126.516504294" y1="24.5558261758" y2="30.8058261758" /><line stroke="black" x1="126.516504294" x2="135.355339059" y1="30.8058261758" y2="39.6446609407" /><line stroke="black" x1="135.355339059" x2="144.194173824" y1="39.6446609407" y2="30.8058261758" /><line stroke="black" x1="144.194173824" x2="144.194173824" y1="30.8058261758" y2="24.5558261758" /><line stroke="black" x1="144.194173824" x2="141.984465133" y1="24.5558261758" y2="22.3461174846" /><line stroke="black" x1="141.984465133" x2="140.421965133" y1="22.3461174846" y2="22.3461174846" /><line stroke="black" x1="140.421965133" x2="139.86953796" y1="22.3461174846" y2="22.8985446574" /><line stroke="black" x1="139.86953796" x2="140.421965133" y1="22.8985446574" y2="22.3461174846" /><line stroke="black" x1="140.421965133" x2="139.86953796" y1="22.3461174846" y2="21.7936903118" /><line stroke="black" x1="139.86953796" x2="140.421965133" y1="21.7936903118" y2="22.3461174846" /><line stroke="black" x1="140.421965133" x2="141.984465133" y1="22.3461174846" y2="22.3461174846" /><line stroke="black" x1="141.984465133" x2="141.984465133" y1="22.3461174846" y2="20.7836174846" /><line stroke="black" x1="141.984465133" x2="141.43203796" y1="20.7836174846" y2="20.2311903118" /><line stroke="black" x1="141.43203796" x2="141.984465133" y1="20.2311903118" y2="20.7836174846" /><line stroke="black" x1="141.984465133" x2="142.536892306" y1="20.7836174846" y2="20.2311903118" /><line stroke="black" x1="142.536892306" x2="141.984465133" y1="20.2311903118" y2="20.7836174846" /><line stroke="black" x1="141.984465133" x2="141.984465133" y1="20.7836174846" y2="22.3461174846" /><line stroke="black" x1="141.984465133" x2="144.194173824" y1="22.3461174846" y2="24.5558261758" /><line stroke="black" x1="144.194173824" x2="146.403882515" y1="24.5558261758" y2="22.3461174846" /><line stroke="black" x1="146.403882515" x2="146.403882515" y1="22.3461174846" y2="20.7836174846" /><line stroke="black" x1="146.403882515" x2="145.851455343" y1="20.7836174846" y2="20.2311903118" /><line stroke="black" x1="145.851455343" x2="146.403882515" y1="20.2311903118" y2="20.7836174846" /><line stroke="black" x1="146.403882515" x2="146.956309688" y1="20.7836174846" y2="20.2311903118" /><line stroke="black" x1="146.956309688" x2="146.403882515" y1="20.2311903118" y2="20.7836174846" /><line stroke="black" x1="146.403882515" x2="146.403882515" y1="20.7836174846" y2="22.3461174846" /><line stroke="black" x1="146.403882515" x2="147.966382515" y1="22.3461174846" y2="22.3461174846" /><line stroke="black" x1="147.966382515" x2="148.518809688" y1="22.3461174846" y2="21.7936903118" /><line stroke="black" x1="148.518809688" x2="147.966382515" y1="21.7936903118" y2="22.3461174846" /><line stroke="black" x1="147.966382515" x2="148.518809688" y1="22.3461174846" y2="22.8985446574" /><line stroke="black" x1="148.518809688" x2="147.966382515" y1="22.8985446574" y2="22.3461174846" /><line stroke="black" x1="147.966382515" x2="146.403882515" y1="22.3461174846" y2="22.3461174846" /><line stroke="black" x1="146.403882515" x2="144.194173824" y1="22.3461174846" y2="24.5558261758" /><line stroke="black" x1="144.194173824" x2="144.194173824" y1="24.5558261758" y2="30.8058261758" /><line stroke="black" x1="144.194173824" x2="150.444173824" y1="30.8058261758" y2="30.8058261758" /><line stroke="black" x1="150.444173824" x2="152.653882515" y1="30.8058261758" y2="28.5961174846" /><line stroke="black" x1="152.653882515" x2="152.653882515" y1="28.5961174846" y2="27.0336174846" /><line stroke="black" x1="152.653882515" x2="152.101455343" y1="27.0336174846" y2="26.4811903118" /><line stroke="black" x1="152.101455343" x2="152.653882515" y1="26.4811903118" y2="27.0336174846" /><line stroke="black" x1="152.653882515" x2="153.206309688" y1="27.0336174846" y2="26.4811903118" /><line stroke="black" x1="153.206309688" x2="152.653882515" y1="26.4811903118" y2="27.0336174846" /><line stroke="black" x1="152.653882515" x2="152.653882515" y1="27.0336174846" y2="28.5961174846" /><line stroke="black" x1="152.653882515" x2="154.216382515" y1="28.5961174846" y2="28.5961174846" /><line stroke="black" x1="154.216382515" x2="154.768809688" y1="28.5961174846" y2="28.0436903118" /><line stroke="black" x1="154.768809688" x2="154.216382515" y1="28.0436903118" y2="28.5961174846" /><line stroke="black" x1="154.216382515" x2="154.768809688" y1="28.5961174846" y2="29.1485446574" /><line stroke="black" x1="154.768809688" x2="154.216382515" y1="29.1485446574" y2="28.5961174846" /><line stroke="black" x1="154.216382515" x2="152.653882515" y1="28.5961174846" y2="28.5961174846" /><line stroke="black" x1="152.653882515" x2="150.444173824" y1="28.5961174846" y2="30.8058261758" /><line stroke="black" x1="150.444173824" x2="152.653882515" y1="30.8058261758" y2="33.015534867" /><line stroke="black" x1="152.653882515" x2="154.216382515" y1="33.015534867" y2="33.015534867" /><line stroke="black" x1="154.216382515" x2="154.768809688" y1="33.015534867" y2="32.4631076942" /><line stroke="black" x1="154.768809688" x2="154.216382515" y1="32.4631076942" y2="33.015534867" /><line stroke="black" x1="154.216382515" x2="154.768809688" y1="33.015534867" y2="33.5679620399" /><line stroke="black" x1="154.768809688" x2="154.216382515" y1="33.5679620399" y2="33.015534867" /><line stroke="black" x1="154.216382515" x2="152.653882515" y1="33.015534867" y2="33.015534867" /><line stroke="black" x1="152.653882515" x2="152.653882515" y1="33.015534867" y2="34.578034867" /><line stroke="black" x1="152.653882515" x2="153.206309688" y1="34.578034867" y2="35.1304620399" /><line stroke="black" x1="153.206309688" x2="152.653882515" y1="35.1304620399" y2="34.578034867" /><line stroke="black" x1="152.653882515" x2="152.101455343" y1="34.578034867" y2="35.1304620399" /><line stroke="black" x1="152.101455343" x2="152.653882515" y1="35.1304620399" y2="34.578034867" /><line stroke="black" x1="152.653882515" x2="152.653882515" y1="34.578034867" y2="33.015534867" /><line stroke="black" x1="152.653882515" x2="150.444173824" y1="33.015534867" y2="30.8058261758" /><line stroke="black" x1="150.444173824" x2="144.194173824" y1="30.8058261758" y2="30.8058261758" /><line stroke="black" x1="144.194173824" x2="135.355339059" y1="30.8058261758" y2="39.6446609407" /><line stroke="black" x1="135.355339059" x2="135.355339059" y1="39.6446609407" y2="64.6446609407" /><line stroke="black" x1="135.355339059" x2="160.355339059" y1="64.6446609407" y2="64.6446609407" /><line stroke="black" x1="160.355339059" x2="169.194173824" y1="64.6446609407" y2="55.8058261758" /><line stroke="black" x1="169.194173824" x2="169.194173824" y1="55.8058261758" y2="49.5558261758" /><line stroke="black" x1="169.194173824" x2="166.984465133" y1="49.5558261758" y2="47.3461174846" /><line stroke="black" x1="166.984465133" x2="165.421965133" y1="47.3461174846" y2="47.3461174846" /><line stroke="black" x1="165.421965133" x2="164.86953796" y1="47.3461174846" y2="47.8985446574" /><line stroke="black" x1="164.86953796" x2="165.421965133" y1="47.8985446574" y2="47.3461174846" /><line stroke="black" x1="165.421965133" x2="164.86953796" y1="47.3461174846" y2="46.7936903118" /><line stroke="black" x1="164.86953796" x2="165.421965133" y1="46.7936903118" y2="47.3461174846" /><line stroke="black" x1="165.421965133" x2="166.984465133" y1="47.3461174846" y2="47.3461174846" /><line stroke="black" x1="166.984465133" x2="166.984465133" y1="47.3461174846" y2="45.7836174846" /><line stroke="black" x1="166.984465133" x2="166.43203796" y1="45.7836174846" y2="45.2311903118" /><line stroke="black" x1="166.43203796" x2="166.984465133" y1="45.2311903118" y2="45.7836174846" /><line stroke="black" x1="166.984465133" x2="167.536892306" y1="45.7836174846" y2="45.2311903118" /><line stroke="black" x1="167.536892306" x2="166.984465133" y1="45.2311903118" y2="45.7836174846" /><line stroke="black" x1="166.984465133" x2="166.984465133" y1="45.7836174846" y2="47.3461174846" /><line stroke="black" x1="166.984465133" x2="169.194173824" y1="47.3461174846" y2="49.5558261758" /><line stroke="black" x1="169.194173824" x2="171.403882515" y1="49.5558261758" y2="47.3461174846" /><line stroke="black" x1="171.403882515" x2="171.403882515" y1="47.3461174846" y2="45.7836174846" /><line stroke="black" x1="171.403882515" x2="170.851455343" y1="45.7836174846" y2="45.2311903118" /><line stroke="black" x1="170.851455343" x2="171.403882515" y1="45.2311903118" y2="45.7836174846" /><line stroke="black" x1="171.403882515" x2="171.956309688" y1="45.7836174846" y2="45.2311903118" /><line stroke="black" x1="171.956309688" x2="171.403882515" y1="45.2311903118" y2="45.7836174846" /><line stroke="black" x1="171.403882515" x2="171.403882515" y1="45.7836174846" y2="47.3461174846" /><line stroke="black" x1="171.403882515" x2="172.966382515" y1="47.3461174846" y2="47.3461174846" /><line stroke="black" x1="172.966382515" x2="173.518809688" y1="47.3461174846" y2="46.7936903118" /><line stroke="black" x1="173.518809688" x2="172.966382515" y1="46.7936903118" y2="47.3461174846" /><line stroke="black" x1="172.966382515" x2="173.518809688" y1="47.3461174846" y2="47.8985446574" /><line stroke="black" x1="173.518809688" x2="172.966382515" y1="47.8985446574" y2="47.3461174846" /><line stroke="black" x1="172.966382515" x2="171.403882515" y1="47.3461174846" y2="47.3461174846" /><line stroke="black" x1="171.403882515" x2="169.194173824" y1="47.3461174846" y2="49.5558261758" /><line stroke="black" x1="169.194173824" x2="169.194173824" y1="49.5558261758" y2="55.8058261758" /><line stroke="black" x1="169.194173824" x2="175.444173824" y1="55.8058261758" y2="55.8058261758" /><line stroke="black" x1="175.444173824" x2="177.653882515" y1="55.8058261758" y2="53.5961174846" /><line stroke="black" x1="177.653882515" x2="177.653882515" y1="53.5961174846" y2="52.0336174846" /><line stroke="black" x1="177.653882515" x2="177.101455343" y1="52.0336174846" y2="51.4811903118" /><line stroke="black" x1="177.101455343" x2="177.653882515" y1="51.4811903118" y2="52.0336174846" /><line stroke="black" x1="177.653882515" x2="178.206309688" y1="52.0336174846" y2="51.4811903118" /><line stroke="black" x1="178.206309688" x2="177.653882515" y1="51.4811903118" y2="52.0336174846" /><line stroke="black" x1="177.653882515" x2="177.653882515" y1="52.0336174846" y2="53.5961174846" /><line stroke="black" x1="177.653882515" x2="179.216382515" y1="53.5961174846" y2="53.5961174846" /><line stroke="black" x1="179.216382515" x2="179.768809688" y1="53.5961174846" y2="53.0436903118" /><line stroke="black" x1="179.768809688" x2="179.216382515" y1="53.0436903118" y2="53.5961174846" /><line stroke="black" x1="179.216382515" x2="179.768809688" y1="53.5961174846" y2="54.1485446574" /><line stroke="black" x1="179.768809688" x2="179.216382515" y1="54.1485446574" y2="53.5961174846" /><line stroke="black" x1="179.216382515" x2="177.653882515" y1="53.5961174846" y2="53.5961174846" /><line stroke="black" x1="177.653882515" x2="175.444173824" y1="53.5961174846" y2="55.8058261758" /><line stroke="black" x1="175.444173824" x2="177.653882515" y1="55.8058261758" y2="58.015534867" /><line stroke="black" x1="177.653882515" x2="179.216382515" y1="58.015534867" y2="58.015534867" /><line stroke="black" x1="179.216382515" x2="179.768809688" y1="58.015534867" y2="57.4631076942" /><line stroke="black" x1="179.768809688" x2="179.216382515" y1="57.4631076942" y2="58.015534867" /><line stroke="black" x1="179.216382515" x2="179.768809688" y1="58.015534867" y2="58.5679620399" /><line stroke="black" x1="179.768809688" x2="179.216382515" y1="58.5679620399" y2="58.015534867" /><line stroke="black" x1="179.216382515" x2="177.653882515" y1="58.015534867" y2="58.015534867" /><line stroke="black" x1="177.653882515" x2="177.653882515" y1="58.015534867" y2="59.578034867" /><line stroke="black" x1="177.653882515" x2="178.206309688" y1="59.578034867" y2="60.1304620399" /><line stroke="black" x1="178.206309688" x2="177.653882515" y1="60.1304620399" y2="59.578034867" /><line stroke="black" x1="177.653882515" x2="177.101455343" y1="59.578034867" y2="60.1304620399" /><line stroke="black" x1="177.101455343" x2="177.653882515" y1="60.1304620399" y2="59.578034867" /><line stroke="black" x1="177.653882515" x2="177.653882515" y1="59.578034867" y2="58.015534867" /><line stroke="black" x1="177.653882515" x2="175.444173824" y1="58.015534867" y2="55.8058261758" /><line stroke="black" x1="175.444173824" x2="169.194173824" y1="55.8058261758" y2="55.8058261758" /><line stroke="black" x1="169.194173824" x2="160.355339059" y1="55.8058261758" y2="64.6446609407" /><line stroke="black" x1="160.355339059" x2="169.194173824" y1="64.6446609407" y2="73.4834957055" /><line stroke="black" x1="169.194173824" x2="175.444173824" y1="73.4834957055" y2="73.4834957055" /><line stroke="black" x1="175.444173824" x2="177.653882515" y1="73.4834957055" y2="71.2737870143" /><line stroke="black" x1="177.653882515" x2="177.653882515" y1="71.2737870143" y2="69.7112870143" /><line stroke="black" x1="177.653882515" x2="177.101455343" y1="69.7112870143" y2="69.1588598415" /><line stroke="black" x1="177.101455343" x2="177.653882515" y1="69.1588598415" y2="69.7112870143" /><line stroke="black" x1="177.653882515" x2="178.206309688" y1="69.7112870143" y2="69.1588598415" /><line stroke="black" x1="178.206309688" x2="177.653882515" y1="69.1588598415" y2="69.7112870143" /><line stroke="black" x1="177.653882515" x2="177.653882515" y1="69.7112870143" y2="71.2737870143" /><line stroke="black" x1="177.653882515" x2="179.216382515" y1="71.2737870143" y2="71.2737870143" /><line stroke="black" x1="179.216382515" x2="179.768809688" y1="71.2737870143" y2="70.7213598415" /><line stroke="black" x1="179.768809688" x2="179.216382515" y1="70.7213598415" y2="71.2737870143" /><line stroke="black" x1="179.216382515" x2="179.768809688" y1="71.2737870143" y2="71.8262141871" /><line stroke="black" x1="179.768809688" x2="179.216382515" y1="71.8262141871" y2="71.2737870143" /><line stroke="black" x1="179.216382515" x2="177.653882515" y1="71.2737870143" y2="71.2737870143" /><line stroke="black" x1="177.653882515" x2="175.444173824" y1="71.2737870143" y2="73.4834957055" /><line stroke="black" x1="175.444173824" x2="177.653882515" y1="73.4834957055" y2="75.6932043967" /><line stroke="black" x1="177.653882515" x2="179.216382515" y1="75.6932043967" y2="75.6932043967" /><line stroke="black" x1="179.216382515" x2="179.768809688" y1="75.6932043967" y2="75.1407772239" /><line stroke="black" x1="179.768809688" x2="179.216382515" y1="75.1407772239" y2="75.6932043967" /><line stroke="black" x1="179.216382515" x2="179.768809688" y1="75.6932043967" y2="76.2456315695" /><line stroke="black" x1="179.768809688" x2="179.216382515" y1="76.2456315695" y2="75.6932043967" /><line stroke="black" x1="179.216382515" x2="177.653882515" y1="75.6932043967" y2="75.6932043967" /><line stroke="black" x1="177.653882515" x2="177.653882515" y1="75.6932043967" y2="77.2557043967" /><line stroke="black" x1="177.653882515" x2="178.206309688" y1="77.2557043967" y2="77.8081315695" /><line stroke="black" x1="178.206309688" x2="177.653882515" y1="77.8081315695" y2="77.2557043967" /><line stroke="black" x1="177.653882515" x2="177.101455343" y1="77.2557043967" y2="77.8081315695" /><line stroke="black" x1="177.101455343" x2="177.653882515" y1="77.8081315695" y2="77.2557043967" /><line stroke="black" x1="177.653882515" x2="177.653882515" y1="77.2557043967" y2="75.6932043967" /><line stroke="black" x1="177.653882515" x2="175.444173824" y1="75.6932043967" y2="73.4834957055" /><line stroke="black" x1="175.444173824" x2="169.194173824" y1="73.4834957055" y2="73.4834957055" /><line stroke="black" x1="169.194173824" x2="169.194173824" y1="73.4834957055" y2="79.7334957055" /><line stroke="black" x1="169.194173824" x2="171.403882515" y1="79.7334957055" y2="81.9432043967" /><line stroke="black" x1="171.403882515" x2="172.966382515" y1="81.9432043967" y2="81.9432043967" /><line stroke="black" x1="172.966382515" x2="173.518809688" y1="81.9432043967" y2="81.3907772239" /><line stroke="black" x1="173.518809688" x2="172.966382515" y1="81.3907772239" y2="81.9432043967" /><line stroke="black" x1="172.966382515" x2="173.518809688" y1="81.9432043967" y2="82.4956315695" /><line stroke="black" x1="173.518809688" x2="172.966382515" y1="82.4956315695" y2="81.9432043967" /><line stroke="black" x1="172.966382515" x2="171.403882515" y1="81.9432043967" y2="81.9432043967" /><line stroke="black" x1="171.403882515" x2="171.403882515" y1="81.9432043967" y2="83.5057043967" /><line stroke="black" x1="171.403882515" x2="171.956309688" y1="83.5057043967" y2="84.0581315695" /><line stroke="black" x1="171.956309688" x2="171.403882515" y1="84.0581315695" y2="83.5057043967" /><line stroke="black" x1="171.403882515" x2="170.851455343" y1="83.5057043967" y2="84.0581315695" /><line stroke="black" x1="170.851455343" x2="171.403882515" y1="84.0581315695" y2="83.5057043967" /><line stroke="black" x1="171.403882515" x2="171.403882515" y1="83.5057043967" y2="81.9432043967" /><line stroke="black" x1="171.403882515" x2="169.194173824" y1="81.9432043967" y2="79.7334957055" /><line stroke="black" x1="169.194173824" x2="166.984465133" y1="79.7334957055" y2="81.9432043967" /><line stroke="black" x1="166.984465133" x2="166.984465133" y1="81.9432043967" y2="83.5057043967" /><line stroke="black" x1="166.984465133" x2="167.536892306" y1="83.5057043967" y2="84.0581315695" /><line stroke="black" x1="167.536892306" x2="166.984465133" y1="84.0581315695" y2="83.5057043967" /><line stroke="black" x1="166.984465133" x2="166.43203796" y1="83.5057043967" y2="84.0581315695" /><line stroke="black" x1="166.43203796" x2="166.984465133" y1="84.0581315695" y2="83.5057043967" /><line stroke="black" x1="166.984465133" x2="166.984465133" y1="83.5057043967" y2="81.9432043967" /><line stroke="black" x1="166.984465133" x2="165.421965133" y1="81.9432043967" y2="81.9432043967" /><line stroke="black" x1="165.421965133" x2="164.86953796" y1="81.9432043967" y2="82.4956315695" /><line stroke="black" x1="164.86953796" x2="165.421965133" y1="82.4956315695" y2="81.9432043967" /><line stroke="black" x1="165.421965133" x2="164.86953796" y1="81.9432043967" y2="81.3907772239" /><line stroke="black" x1="164.86953796" x2="165.421965133" y1="81.3907772239" y2="81.9432043967" /><line stroke="black" x1="165.421965133" x2="166.984465133" y1="81.9432043967" y2="81.9432043967" /><line stroke="black" x1="166.984465133" x2="169.194173824" y1="81.9432043967" y2="79.7334957055" /><line stroke="black" x1="169.194173824" x2="169.194173824" y1="79.7334957055" y2="73.4834957055" /><line stroke="black" x1="169.194173824" x2="160.355339059" y1="73.4834957055" y2="64.6446609407" /><line stroke="black" x1="160.355339059" x2="135.355339059" y1="64.6446609407" y2="64.6446609407" /><line stroke="black" x1="135.355339059" x2="100.0" y1="64.6446609407" y2="100.0" /><line stroke="black" x1="100.0" x2="100.0" y1="100.0" y2="200.0" /></svg>