<?xml version="1.0" encoding="utf-8" ?>
<svg baseProfile="full" height="100%" version="1.1" width="100%" xmlns="http://www.w3.org/2000/svg" xmlns:ev="http://www.w3.org/2001/xml-events" xmlns:xlink="http://www.w3.org/1999/xlink"><defs /><line stroke="black" x1="100.0" x2="100.0" y1="200.0" y2="100.0" /><line stroke="black" x1="100.0" x2="56.6987298108" y1="100.0" y2="75.0" /><line stroke="black" x1="56.6987298108" x2="35.0480947162" y1="75.0" y2="87.5" /><line stroke="black" x1="35.0480947162" x2="35.0480947162" y1="87.5" y2="100.0" /><line stroke="black" x1="35.0480947162" x2="40.4607534898" y1="100.0" y2="103.125" /><line stroke="black" x1="40.4607534898" x2="43.1670828766" y1="103.125" y2="101.5625" /><line stroke="black" x1="43.1670828766" x2="40.4607534898" y1="101.5625" y2="103.125" /><line stroke="black" x1="40.4607534898" x2="40.4607534898" y1="103.125" y2="106.25" /><line stroke="black" x1="40.4607534898" x2="40.4607534898" y1="106.25" y2="103.125" /><line stroke="black" x1="40.4607534898" x2="35.0480947162" y1="103.125" y2="100.0" /><line stroke="black" x1="35.0480947162" x2="29.6354359425" y1="100.0" y2="103.125" /><line stroke="black" x1="29.6354359425" x2="29.6354359425" y1="103.125" y2="106.25" /><line stroke="black" x1="29.6354359425" x2="29.6354359425" y1="106.25" y2="103.125" /><line stroke="black" x1="29.6354359425" x2="26.9291065557" y1="103.125" y2="101.5625" /><line stroke="black" x1="26.9291065557" x2="29.6354359425" y1="101.5625" y2="103.125" /><line stroke="black" x1="29.6354359425" x2="35.0480947162" y1="103.125" y2="100.0" /><line stroke="black" x1="35.0480947162" x2="35.0480947162" y1="100.0" y2="87.5" /><line stroke="black" x1="35.0480947162" x2="24.2227771689" y1="87.5" y2="81.25" /><line stroke="black" x1="24.2227771689" x2="18.8101183952" y1="81.25" y2="84.375" /><line stroke="black" x1="18.8101183952" x2="18.8101183952" y1="84.375" y2="87.5" /><line stroke="black" x1="18.8101183952" x2="18.8101183952" y1="87.5" y2="84.375" /><line stroke="black" x1="18.8101183952" x2="16.1037890084" y1="84.375" y2="82.8125" /><line stroke="black" x1="16.1037890084" x2="18.8101183952" y1="82.8125" y2="84.375" /><line stroke="black" x1="18.8101183952" x2="24.2227771689" y1="84.375" y2="81.25" /><line stroke="black" x1="24.2227771689" x2="24.2227771689" y1="81.25" y2="75.0" /><line stroke="black" x1="24.2227771689" x2="21.516447782" y1="75.0" y2="73.4375" /><line stroke="black" x1="21.516447782" x2="24.2227771689" y1="73.4375" y2="75.0" /><line stroke="black" x1="24.2227771689" x2="26.9291065557" y1="75.0" y2="73.4375" /><line stroke="black" x1="26.9291065557" x2="24.2227771689" y1="73.4375" y2="75.0" /><line stroke="black" x1="24.2227771689" x2="24.2227771689" y1="75.0" y2="81.25" /><line stroke="black" x1="24.2227771689" x2="35.0480947162" y1="81.25" y2="87.5" /><line stroke="black" x1="35.0480947162" x2="56.6987298108" y1="87.5" y2="75.0" /><line stroke="black" x1="56.6987298108" x2="56.6987298108" y1="75.0" y2="50.0" /><line stroke="black" x1="56.6987298108" x2="45.8734122635" y1="50.0" y2="43.75" /><line stroke="black" x1="45.8734122635" x2="40.4607534898" y1="43.75" y2="46.875" /><line stroke="black" x1="40.4607534898" x2="40.4607534898" y1="46.875" y2="50.0" /><line stroke="black" x1="40.4607534898" x2="40.4607534898" y1="50.0" y2="46.875" /><line stroke="black" x1="40.4607534898" x2="37.754424103" y1="46.875" y2="45.3125" /><line stroke="black" x1="37.754424103" x2="40.4607534898" y1="45.3125" y2="46.875" /><line stroke="black" x1="40.4607534898" x2="45.8734122635" y1="46.875" y2="43.75" /><line stroke="black" x1="45.8734122635" x2="45.8734122635" y1="43.75" y2="37.5" /><line stroke="black" x1="45.8734122635" x2="43.1670828766" y1="37.5" y2="35.9375" /><line stroke="black" x1="43.1670828766" x2="45.8734122635" y1="35.9375" y2="37.5" /><line stroke="black" x1="45.8734122635" x2="48.5797416503" y1="37.5" y2="35.9375" /><line stroke="black" x1="48.5797416503" x2="45.8734122635" y1="35.9375" y2="37.5" /><line stroke="black" x1="45.8734122635" x2="45.8734122635" y1="37.5" y2="43.75" /><line stroke="black" x1="45.8734122635" x2="56.6987298108" y1="43.75" y2="50.0" /><line stroke="black" x1="56.6987298108" x2="67.5240473581" y1="50.0" y2="43.75" /><line stroke="black" x1="67.5240473581" x2="67.5240473581" y1="43.75" y2="37.5" /><line stroke="black" x1="67.5240473581" x2="64.8177179713" y1="37.5" y2="35.9375" /><line stroke="black" x1="64.8177179713" x2="67.5240473581" y1="35.9375" y2="37.5" /><line stroke="black" x1="67.5240473581" x2="70.2303767449" y1="37.5" y2="35.9375" /><line stroke="black" x1="70.2303767449" x2="67.5240473581" y1="35.9375" y2="37.5" /><line stroke="black" x1="67.5240473581" x2="67.5240473581" y1="37.5" y2="43.75" /><line stroke="black" x1="67.5240473581" x2="72.9367061317" y1="43.75" y2="46.875" /><line stroke="black" x1="72.9367061317" x2="75.6430355186" y1="46.875" y2="45.3125" /><line stroke="black" x1="75.6430355186" x2="72.9367061317" y1="45.3125" y2="46.875" /><line stroke="black" x1="72.9367061317" x2="72.9367061317" y1="46.875" y2="50.0" /><line stroke="black" x1="72.9367061317" x2="72.9367061317" y1="50.0" y2="46.875" /><line stroke="black" x1="72.9367061317" x2="67.5240473581" y1="46.875" y2="43.75" /><line stroke="black" x1="67.5240473581" x2="56.6987298108" y1="43.75" y2="50.0" /><line stroke="black" x1="56.6987298108" x2="56.6987298108" y1="50.0" y2="75.0" /><line stroke="black" x1="56.6987298108" x2="100.0" y1="75.0" y2="100.0" /><line stroke="black" x1="100.0" x2="143.301270189" y1="100.0" y2="75.0" /><line stroke="black" x1="143.301270189" x2="143.301270189" y1="75.0" y2="50.0" /><line stroke="black" x1="143.301270189" x2="132.475952642" y1="50.0" y2="43.75" /><line stroke="black" x1="132.475952642" x2="127.063293868" y1="43.75" y2="46.875" /><line stroke="black" x1="127.063293868" x2="127.063293868" y1="46.875" y2="50.0" /><line stroke="black" x1="127.063293868" x2="127.063293868" y1="50.0" y2="46.875" /><line stroke="black" x1="127.063293868" x2="124.356964481" y1="46.875" y2="45.3125" /><line stroke="black" x1="124.356964481" x2="127.063293868" y1="45.3125" y2="46.875" /><line stroke="black" x1="127.063293868" x2="132.475952642" y1="46.875" y2="43.75" /><line stroke="black" x1="132.475952642" x2="132.475952642" y1="43.75" y2="37.5" /><line stroke="black" x1="132.475952642" x2="129.769623255" y1="37.5" y2="35.9375" /><line stroke="black" x1="129.769623255" x2="132.475952642" y1="35.9375" y2="37.5" /><line stroke="black" x1="132.475952642" x2="135.182282029" y1="37.5" y2="35.9375" /><line stroke="black" x1="135.182282029" x2="132.475952642" y1="35.9375" y2="37.5" /><line stroke="black" x1="132.475952642" x2="132.475952642" y1="37.5" y2="43.75" /><line stroke="black" x1="132.475952642" x2="143.301270189" y1="43.75" y2="50.0" /><line stroke="black" x1="143.301270189" x2="154.126587737" y1="50.0" y2="43.75" /><line stroke="black" x1="154.126587737" x2="154.126587737" y1="43.75" y2="37.5" /><line stroke="black" x1="154.126587737" x2="151.42025835" y1="37.5" y2="35.9375" /><line stroke="black" x1="151.42025835" x2="154.126587737" y1="35.9375" y2="37.5" /><line stroke="black" x1="154.126587737" x2="156.832917123" y1="37.5" y2="35.9375" /><line stroke="black" x1="156.832917123" x2="154.126587737" y1="35.9375" y2="37.5" /><line stroke="black" x1="154.126587737" x2="154.126587737" y1="37.5" y2="43.75" /><line stroke="black" x1="154.126587737" x2="159.53924651" y1="43.75" y2="46.875" /><line stroke="black" x1="159.53924651" x2="162.245575897" y1="46.875" y2="45.3125" /><line stroke="black" x1="162.245575897" x2="159.53924651" y1="45.3125" y2="46.875" /><line stroke="black" x1="159.53924651" x2="159.53924651" y1="46.875" y2="50.0" /><line stroke="black" x1="159.53924651" x2="159.53924651" y1="50.0" y2="46.875" /><line stroke="black" x1="159.53924651" x2="154.126587737" y1="46.875" y2="43.75" /><line stroke="black" x1="154.126587737" x2="143.301270189" y1="43.75" y2="50.0" /><line stroke="black" x1="143.301270189" x2="143.301270189" y1="50.0" y2="75.0" /><line stroke="black" x1="143.301270189" x2="164.951905284" y1="75.0" y2="87.5" /><line stroke="black" x1="164.951905284" x2="175.777222831" y1="87.5" y2="81.25" /><line stroke="black" x1="175.777222831" x2="175.777222831" y1="81.25" y2="75.0" /><line stroke="black" x1="175.777222831" x2="173.070893444" y1="75.0" y2="73.4375" /><line stroke="black" x1="173.070893444" x2="175.777222831" y1="73.4375" y2="75.0" /><line stroke="black" x1="175.777222831" x2="178.483552218" y1="75.0" y2="73.4375" /><line stroke="black" x1="178.483552218" x2="175.777222831" y1="73.4375" y2="75.0" /><line stroke="black" x1="175.777222831" x2="175.777222831" y1="75.0" y2="81.25" /><line stroke="black" x1="175.777222831" x2="181.189881605" y1="81.25" y2="84.375" /><line stroke="black" x1="181.189881605" x2="183.896210992" y1="84.375" y2="82.8125" /><line stroke="black" x1="183.896210992" x2="181.189881605" y1="82.8125" y2="84.375" /><line stroke="black" x1="181.189881605" x2="181.189881605" y1="84.375" y2="87.5" /><line stroke="black" x1="181.189881605" x2="181.189881605" y1="87.5" y2="84.375" /><line stroke="black" x1="181.189881605" x2="175.777222831" y1="84.375" y2="81.25" /><line stroke="black" x1="175.777222831" x2="164.951905284" y1="81.25" y2="87.5" /><line stroke="black" x1="164.951905284" x2="164.951905284" y1="87.5" y2="100.0" /><line stroke="black" x1="164.951905284" x2="170.364564057" y1="100.0" y2="103.125" /><line stroke="black" x1="170.364564057" x2="173.070893444" y1="103.125" y2="101.5625" /><line stroke="black" x1="173.070893444" x2="170.364564057" y1="101.5625" y2="103.125" /><line stroke="black" x1="170.364564057" x2="170.364564057" y1="103.125" y2="106.25" /><line stroke="black" x1="170.364564057" x2="170.364564057" y1="106.25" y2="103.125" /><line stroke="black" x1="170.364564057" x2="164.951905284" y1="103.125" y2="100.0" /><line stroke="black" x1="164.951905284" x2="159.53924651" y1="100.0" y2="103.125" /><line stroke="black" x1="159.53924651" x2="159.53924651" y1="103.125" y2="106.25" /><line stroke="black" x1="159.53924651" x2="159.53924651" y1="106.25" y2="103.125" /><line stroke="black" x1="159.53924651" x2="156.832917123" y1="103.125" y2="101.5625" /><line stroke="black" x1="156.832917123" x2="159.53924651" y1="101.5625" y2="103.125" /><line stroke="black" x1="159.53924651" x2="164.951905284" y1="103.125" y2="100.0" /><line stroke="black" x1="164.951905284" x2="164.951905284" y1="100.0" y2="87.5" /><line stroke="black" x1="164.951905284" x2="143.301270189" y1="87.5" y2="75.0" /><line stroke="black" x1="143.301270189" x2="100.0" y1="75.0" y2="100.0" /><line stroke="black" x1="100.0" x2="100.0" y1="100.0" y2="200.0" /></svg>