<?xml version="1.0" encoding="utf-8" ?>
<svg baseProfile="full" height="100%" version="1.1" width="100%" xmlns="http://www.w3.org/2000/svg" xmlns:ev="http://www.w3.org/2001/xml-events" xmlns:xlink="http://www.w3.org/1999/xlink"><defs /><line stroke="black" x1="100.0" x2="100.0" y1="200.0" y2="100.0" /><line stroke="black" x1="100.0" x2="50.0" y1="100.0" y2="100.0" /><line stroke="black" x1="50.0" x2="50.0" y1="100.0" y2="125.0" /><line stroke="black" x1="50.0" x2="62.5" y1="125.0" y2="125.0" /><line stroke="black" x1="62.5" x2="50.0" y1="125.0" y2="125.0" /><line stroke="black" x1="50.0" x2="37.5" y1="125.0" y2="125.0" /><line stroke="black" x1="37.5" x2="50.0" y1="125.0" y2="125.0" /><line stroke="black" x1="50.0" x2="50.0" y1="125.0" y2="100.0" /><line stroke="black" x1="50.0" x2="50.0" y1="100.0" y2="75.0" /><line stroke="black" x1="50.0" x2="37.5" y1="75.0" y2="75.0" /><line stroke="black" x1="37.5" x2="50.0" y1="75.0" y2="75.0" /><line stroke="black" x1="50.0" x2="62.5" y1="75.0" y2="75.0" /><line stroke="black" x1="62.5" x2="50.0" y1="75.0" y2="75.0" /><line stroke="black" x1="50.0" x2="50.0" y1="75.0" y2="100.0" /><line stroke="black" x1="50.0" x2="100.0" y1="100.0" y2="100.0" /><line stroke="black" x1="100.0" x2="150.0" y1="100.0" y2="100.0" /><line stroke="black" x1="150.0" x2="150.0" y1="100.0" y2="75.0" /><line stroke="black" x1="150.0" x2="137.5" y1="75.0" y2="75.0" /><line stroke="black" x1="137.5" x2="150.0" y1="75.0" y2="75.0" /><line stroke="black" x1="150.0" x2="162.5" y1="75.0" y2="75.0" /><line stroke="black" x1="162.5" x2="150.0" y1="75.0" y2="75.0" /><line stroke="black" x1="150.0" x2="150.0" y1="75.0" y2="100.0" /><line stroke="black" x1="150.0" x2="150.0" y1="100.0" y2="125.0" /><line stroke="black" x1="150.0" x2="162.5" y1="125.0" y2="125.0" /><line stroke="black" x1="162.5" x2="150.0" y1="125.0" y2="125.0" /><line stroke="black" x1="150.0" x2="137.5" y1="125.0" y2="125.0" /><line stroke="black" x1="137.5" x2="150.0" y1="125.0" y2="125.0" /><line stroke="black" x1="150.0" x2="150.0" y1="125.0" y2="100.0" /><line stroke="black" x1="150.0" x2="100.0" y1="100.0" y2="100.0" /><line stroke="black" x1="100.0" x2="100.0" y1="100.0" y2="200.0" /></svg>