<?xml version="1.0" encoding="utf-8" ?>
<svg baseProfile="full" height="100%" version="1.1" width="100%" xmlns="http://www.w3.org/2000/svg" xmlns:ev="http://www.w3.org/2001/xml-events" xmlns:xlink="http://www.w3.org/1999/xlink"><defs /><line stroke="black" x1="10.0" x2="30.0" y1="10.0" y2="10.0" /><line stroke="black" x1="30.0" x2="27.5" y1="10.0" y2="14.3301270189" /><line stroke="black" x1="27.5" x2="25.0" y1="14.3301270189" y2="10.0" /><line stroke="black" x1="25.0" x2="45.0" y1="10.0" y2="10.0" /><line stroke="black" x1="45.0" x2="42.5" y1="10.0" y2="14.3301270189" /><line stroke="black" x1="42.5" x2="40.0" y1="14.3301270189" y2="10.0" /><line stroke="black" x1="40.0" x2="60.0" y1="10.0" y2="10.0" /><line stroke="black" x1="60.0" x2="57.5" y1="10.0" y2="14.3301270189" /><line stroke="black" x1="57.5" x2="55.0" y1="14.3301270189" y2="10.0" /><line stroke="black" x1="55.0" x2="75.0" y1="10.0" y2="10.0" /><line stroke="black" x1="75.0" x2="72.5" y1="10.0" y2="14.3301270189" /><line stroke="black" x1="72.5" x2="70.0" y1="14.3301270189" y2="10.0" /><line stroke="black" x1="70.0" x2="90.0" y1="10.0" y2="10.0" /><line stroke="black" x1="90.0" x2="87.5" y1="10.0" y2="14.3301270189" /><line stroke="black" x1="87.5" x2="85.0" y1="14.3301270189" y2="10.0" /></svg>