<?xml version="1.0" encoding="utf-8" ?>
<svg baseProfile="full" height="100%" version="1.1" width="100%" xmlns="http://www.w3.org/2000/svg" xmlns:ev="http://www.w3.org/2001/xml-events" xmlns:xlink="http://www.w3.org/1999/xlink"><defs /><line stroke="black" x1="10.0" x2="30.0" y1="10.0" y2="10.0" /><line stroke="black" x1="30.0" x2="48.5556501348" y1="10.0" y2="16.0290962052" /><line stroke="black" x1="48.5556501348" x2="63.1909050505" y1="16.0290962052" y2="26.6622313096" /><line stroke="black" x1="63.1909050505" x2="72.5236726015" y1="26.6622313096" y2="39.5076838348" /><line stroke="black" x1="72.5236726015" x2="76.5687575734" y1="39.5076838348" y2="51.9571752593" /><line stroke="black" x1="76.5687575734" x2="76.5687575734" y1="51.9571752593" y2="61.9571752593" /><line stroke="black" x1="76.5687575734" x2="74.4335026578" y1="61.9571752593" y2="68.5288141607" /><line stroke="black" x1="74.4335026578" x2="72.010565163" y1="68.5288141607" y2="71.863701523" /><line stroke="black" x1="72.010565163" x2="70.4654801911" y1="71.863701523" y2="72.9862714645" /><line stroke="black" x1="70.4654801911" x2="70.0" y1="72.9862714645" y2="73.1375151468" /><line stroke="black" x1="70.0" x2="70.0" y1="73.1375151468" y2="73.1375151468" /><line stroke="black" x1="70.0" x2="69.5345198089" y1="73.1375151468" y2="72.9862714645" /><line stroke="black" x1="69.5345198089" x2="67.989434837" y1="72.9862714645" y2="71.863701523" /><line stroke="black" x1="67.989434837" x2="65.5664973422" y1="71.863701523" y2="68.5288141607" /><line stroke="black" x1="65.5664973422" x2="63.4312424266" y1="68.5288141607" y2="61.9571752593" /><line stroke="black" x1="63.4312424266" x2="63.4312424266" y1="61.9571752593" y2="51.9571752593" /><line stroke="black" x1="63.4312424266" x2="67.4763273985" y1="51.9571752593" y2="39.5076838348" /><line stroke="black" x1="67.4763273985" x2="76.8090949495" y1="39.5076838348" y2="26.6622313096" /><line stroke="black" x1="76.8090949495" x2="91.4443498652" y1="26.6622313096" y2="16.0290962052" /><line stroke="black" x1="91.4443498652" x2="110.0" y1="16.0290962052" y2="10.0" /><line stroke="black" x1="110.0" x2="130.0" y1="10.0" y2="10.0" /><line stroke="black" x1="130.0" x2="148.555650135" y1="10.0" y2="16.0290962052" /><line stroke="black" x1="148.555650135" x2="163.19090505" y1="16.0290962052" y2="26.6622313096" /><line stroke="black" x1="163.19090505" x2="172.523672602" y1="26.6622313096" y2="39.5076838348" /><line stroke="black" x1="172.523672602" x2="176.568757573" y1="39.5076838348" y2="51.9571752593" /><line stroke="black" x1="176.568757573" x2="176.568757573" y1="51.9571752593" y2="61.9571752593" /><line stroke="black" x1="176.568757573" x2="174.433502658" y1="61.9571752593" y2="68.5288141607" /><line stroke="black" x1="174.433502658" x2="172.010565163" y1="68.5288141607" y2="71.863701523" /><line stroke="black" x1="172.010565163" x2="170.465480191" y1="71.863701523" y2="72.9862714645" /><line stroke="black" x1="170.465480191" x2="170.0" y1="72.9862714645" y2="73.1375151468" /><line stroke="black" x1="170.0" x2="170.0" y1="73.1375151468" y2="73.1375151468" /><line stroke="black" x1="170.0" x2="169.534519809" y1="73.1375151468" y2="72.9862714645" /><line stroke="black" x1="169.534519809" x2="167.989434837" y1="72.9862714645" y2="71.863701523" /><line stroke="black" x1="167.989434837" x2="165.566497342" y1="71.863701523" y2="68.5288141607" /><line stroke="black" x1="165.566497342" x2="163.431242427" y1="68.5288141607" y2="61.9571752593" /><line stroke="black" x1="163.431242427" x2="163.431242427" y1="61.9571752593" y2="51.9571752593" /><line stroke="black" x1="163.431242427" x2="167.476327398" y1="51.9571752593" y2="39.5076838348" /><line stroke="black" x1="167.476327398" x2="176.80909495" y1="39.5076838348" y2="26.6622313096" /><line stroke="black" x1="176.80909495" x2="191.444349865" y1="26.6622313096" y2="16.0290962052" /><line stroke="black" x1="191.444349865" x2="210.0" y1="16.0290962052" y2="10.0" /><line stroke="black" x1="210.0" x2="230.0" y1="10.0" y2="10.0" /><line stroke="black" x1="230.0" x2="248.555650135" y1="10.0" y2="16.0290962052" /><line stroke="black" x1="248.555650135" x2="263.19090505" y1="16.0290962052" y2="26.6622313096" /><line stroke="black" x1="263.19090505" x2="272.523672602" y1="26.6622313096" y2="39.5076838348" /><line stroke="black" x1="272.523672602" x2="276.568757573" y1="39.5076838348" y2="51.9571752593" /><line stroke="black" x1="276.568757573" x2="276.568757573" y1="51.9571752593" y2="61.9571752593" /><line stroke="black" x1="276.568757573" x2="274.433502658" y1="61.9571752593" y2="68.5288141607" /><line stroke="black" x1="274.433502658" x2="272.010565163" y1="68.5288141607" y2="71.863701523" /><line stroke="black" x1="272.010565163" x2="270.465480191" y1="71.863701523" y2="72.9862714645" /><line stroke="black" x1="270.465480191" x2="270.0" y1="72.9862714645" y2="73.1375151468" /><line stroke="black" x1="270.0" x2="270.0" y1="73.1375151468" y2="73.1375151468" /><line stroke="black" x1="270.0" x2="269.534519809" y1="73.1375151468" y2="72.9862714645" /><line stroke="black" x1="269.534519809" x2="267.989434837" y1="72.9862714645" y2="71.863701523" /><line stroke="black" x1="267.989434837" x2="265.566497342" y1="71.863701523" y2="68.5288141607" /><line stroke="black" x1="265.566497342" x2="263.431242427" y1="68.5288141607" y2="61.9571752593" /><line stroke="black" x1="263.431242427" x2="263.431242427" y1="61.9571752593" y2="51.9571752593" /><line stroke="black" x1="263.431242427" x2="267.476327398" y1="51.9571752593" y2="39.5076838348" /><line stroke="black" x1="267.476327398" x2="276.80909495" y1="39.5076838348" y2="26.6622313096" /><line stroke="black" x1="276.80909495" x2="291.444349865" y1="26.6622313096" y2="16.0290962052" /><line stroke="black" x1="291.444349865" x2="310.0" y1="16.0290962052" y2="10.0" /><line stroke="black" x1="310.0" x2="330.0" y1="10.0" y2="10.0" /><line stroke="black" x1="330.0" x2="348.555650135" y1="10.0" y2="16.0290962052" /><line stroke="black" x1="348.555650135" x2="363.19090505" y1="16.0290962052" y2="26.6622313096" /><line stroke="black" x1="363.19090505" x2="372.523672602" y1="26.6622313096" y2="39.5076838348" /><line stroke="black" x1="372.523672602" x2="376.568757573" y1="39.5076838348" y2="51.9571752593" /><line stroke="black" x1="376.568757573" x2="376.568757573" y1="51.9571752593" y2="61.9571752593" /><line stroke="black" x1="376.568757573" x2="374.433502658" y1="61.9571752593" y2="68.5288141607" /><line stroke="black" x1="374.433502658" x2="372.010565163" y1="68.5288141607" y2="71.863701523" /><line stroke="black" x1="372.010565163" x2="370.465480191" y1="71.863701523" y2="72.9862714645" /><line stroke="black" x1="370.465480191" x2="370.0" y1="72.9862714645" y2="73.1375151468" /><line stroke="black" x1="370.0" x2="370.0" y1="73.1375151468" y2="73.1375151468" /><line stroke="black" x1="370.0" x2="369.534519809" y1="73.1375151468" y2="72.9862714645" /><line stroke="black" x1="369.534519809" x2="367.989434837" y1="72.9862714645" y2="71.863701523" /><line stroke="black" x1="367.989434837" x2="365.566497342" y1="71.863701523" y2="68.5288141607" /><line stroke="black" x1="365.566497342" x2="363.431242427" y1="68.5288141607" y2="61.9571752593" /><line stroke="black" x1="363.431242427" x2="363.431242427" y1="61.9571752593" y2="51.9571752593" /><line stroke="black" x1="363.431242427" x2="367.476327398" y1="51.9571752593" y2="39.5076838348" /><line stroke="black" x1="367.476327398" x2="376.80909495" y1="39.5076838348" y2="26.6622313096" /><line stroke="black" x1="376.80909495" x2="391.444349865" y1="26.6622313096" y2="16.0290962052" /><line stroke="black" x1="391.444349865" x2="410.0" y1="16.0290962052" y2="10.0" /><line stroke="black" x1="410.0" x2="430.0" y1="10.0" y2="10.0" /><line stroke="black" x1="430.0" x2="448.555650135" y1="10.0" y2="16.0290962052" /><line stroke="black" x1="448.555650135" x2="463.19090505" y1="16.0290962052" y2="26.6622313096" /><line stroke="black" x1="463.19090505" x2="472.523672602" y1="26.6622313096" y2="39.5076838348" /><line stroke="black" x1="472.523672602" x2="476.568757573" y1="39.5076838348" y2="51.9571752593" /><line stroke="black" x1="476.568757573" x2="476.568757573" y1="51.9571752593" y2="61.9571752593" /><line stroke="black" x1="476.568757573" x2="474.433502658" y1="61.9571752593" y2="68.5288141607" /><line stroke="black" x1="474.433502658" x2="472.010565163" y1="68.5288141607" y2="71.863701523" /><line stroke="black" x1="472.010565163" x2="470.465480191" y1="71.863701523" y2="72.9862714645" /><line stroke="black" x1="470.465480191" x2="470.0" y1="72.9862714645" y2="73.1375151468" /><line stroke="black" x1="470.0" x2="470.0" y1="73.1375151468" y2="73.1375151468" /><line stroke="black" x1="470.0" x2="469.534519809" y1="73.1375151468" y2="72.9862714645" /><line stroke="black" x1="469.534519809" x2="467.989434837" y1="72.9862714645" y2="71.863701523" /><line stroke="black" x1="467.989434837" x2="465.566497342" y1="71.863701523" y2="68.5288141607" /><line stroke="black" x1="465.566497342" x2="463.431242427" y1="68.5288141607" y2="61.9571752593" /><line stroke="black" x1="463.431242427" x2="463.431242427" y1="61.9571752593" y2="51.9571752593" /><line stroke="black" x1="463.431242427" x2="467.476327398" y1="51.9571752593" y2="39.5076838348" /><line stroke="black" x1="467.476327398" x2="476.80909495" y1="39.5076838348" y2="26.6622313096" /><line stroke="black" x1="476.80909495" x2="491.444349865" y1="26.6622313096" y2="16.0290962052" /><line stroke="black" x1="491.444349865" x2="510.0" y1="16.0290962052" y2="10.0" /></svg>