<?xml version="1.0" encoding="utf-8" ?>
<svg baseProfile="full" height="100%" version="1.1" width="100%" xmlns="http://www.w3.org/2000/svg" xmlns:ev="http://www.w3.org/2001/xml-events" xmlns:xlink="http://www.w3.org/1999/xlink"><defs /><line stroke="black" x1="10.0" x2="30.0" y1="10.0" y2="10.0" /><line stroke="black" x1="30.0" x2="34.0450849719" y1="10.0" y2="22.4494914244" /><line stroke="black" x1="34.0450849719" x2="32.5" y1="22.4494914244" y2="23.5720613659" /><line stroke="black" x1="32.5" x2="30.9549150281" y1="23.5720613659" y2="22.4494914244" /><line stroke="black" x1="30.9549150281" x2="35.0" y1="22.4494914244" y2="10.0" /><line stroke="black" x1="35.0" x2="55.0" y1="10.0" y2="10.0" /><line stroke="black" x1="55.0" x2="59.0450849719" y1="10.0" y2="22.4494914244" /><line stroke="black" x1="59.0450849719" x2="57.5" y1="22.4494914244" y2="23.5720613659" /><line stroke="black" x1="57.5" x2="55.9549150281" y1="23.5720613659" y2="22.4494914244" /><line stroke="black" x1="55.9549150281" x2="60.0" y1="22.4494914244" y2="10.0" /><line stroke="black" x1="60.0" x2="80.0" y1="10.0" y2="10.0" /><line stroke="black" x1="80.0" x2="84.0450849719" y1="10.0" y2="22.4494914244" /><line stroke="black" x1="84.0450849719" x2="82.5" y1="22.4494914244" y2="23.5720613659" /><line stroke="black" x1="82.5" x2="80.9549150281" y1="23.5720613659" y2="22.4494914244" /><line stroke="black" x1="80.9549150281" x2="85.0" y1="22.4494914244" y2="10.0" /><line stroke="black" x1="85.0" x2="105.0" y1="10.0" y2="10.0" /><line stroke="black" x1="105.0" x2="109.045084972" y1="10.0" y2="22.4494914244" /><line stroke="black" x1="109.045084972" x2="107.5" y1="22.4494914244" y2="23.5720613659" /><line stroke="black" x1="107.5" x2="105.954915028" y1="23.5720613659" y2="22.4494914244" /><line stroke="black" x1="105.954915028" x2="110.0" y1="22.4494914244" y2="10.0" /><line stroke="black" x1="110.0" x2="130.0" y1="10.0" y2="10.0" /><line stroke="black" x1="130.0" x2="134.045084972" y1="10.0" y2="22.4494914244" /><line stroke="black" x1="134.045084972" x2="132.5" y1="22.4494914244" y2="23.5720613659" /><line stroke="black" x1="132.5" x2="130.954915028" y1="23.5720613659" y2="22.4494914244" /><line stroke="black" x1="130.954915028" x2="135.0" y1="22.4494914244" y2="10.0" /></svg>