<?xml version="1.0" encoding="utf-8" ?>
<svg baseProfile="full" height="100%" version="1.1" width="100%" xmlns="http://www.w3.org/2000/svg" xmlns:ev="http://www.w3.org/2001/xml-events" xmlns:xlink="http://www.w3.org/1999/xlink"><defs /><line stroke="black" x1="10.0" x2="30.0" y1="10.0" y2="10.0" /><line stroke="black" x1="30.0" x2="44.6352549156" y1="10.0" y2="20.6331351044" /><line stroke="black" x1="44.6352549156" x2="48.6803398875" y1="20.6331351044" y2="33.0826265288" /><line stroke="black" x1="48.6803398875" x2="46.5450849719" y1="33.0826265288" y2="39.6542654303" /><line stroke="black" x1="46.5450849719" x2="45.0" y1="39.6542654303" y2="40.7768353718" /><line stroke="black" x1="45.0" x2="45.0" y1="40.7768353718" y2="40.7768353718" /><line stroke="black" x1="45.0" x2="43.4549150281" y1="40.7768353718" y2="39.6542654303" /><line stroke="black" x1="43.4549150281" x2="41.3196601125" y1="39.6542654303" y2="33.0826265288" /><line stroke="black" x1="41.3196601125" x2="45.3647450844" y1="33.0826265288" y2="20.6331351044" /><line stroke="black" x1="45.3647450844" x2="60.0" y1="20.6331351044" y2="10.0" /><line stroke="black" x1="60.0" x2="80.0" y1="10.0" y2="10.0" /><line stroke="black" x1="80.0" x2="94.6352549156" y1="10.0" y2="20.6331351044" /><line stroke="black" x1="94.6352549156" x2="98.6803398875" y1="20.6331351044" y2="33.0826265288" /><line stroke="black" x1="98.6803398875" x2="96.5450849719" y1="33.0826265288" y2="39.6542654303" /><line stroke="black" x1="96.5450849719" x2="95.0" y1="39.6542654303" y2="40.7768353718" /><line stroke="black" x1="95.0" x2="95.0" y1="40.7768353718" y2="40.7768353718" /><line stroke="black" x1="95.0" x2="93.4549150281" y1="40.7768353718" y2="39.6542654303" /><line stroke="black" x1="93.4549150281" x2="91.3196601125" y1="39.6542654303" y2="33.0826265288" /><line stroke="black" x1="91.3196601125" x2="95.3647450844" y1="33.0826265288" y2="20.6331351044" /><line stroke="black" x1="95.3647450844" x2="110.0" y1="20.6331351044" y2="10.0" /><line stroke="black" x1="110.0" x2="130.0" y1="10.0" y2="10.0" /><line stroke="black" x1="130.0" x2="144.635254916" y1="10.0" y2="20.6331351044" /><line stroke="black" x1="144.635254916" x2="148.680339887" y1="20.6331351044" y2="33.0826265288" /><line stroke="black" x1="148.680339887" x2="146.545084972" y1="33.0826265288" y2="39.6542654303" /><line stroke="black" x1="146.545084972" x2="145.0" y1="39.6542654303" y2="40.7768353718" /><line stroke="black" x1="145.0" x2="145.0" y1="40.7768353718" y2="40.7768353718" /><line stroke="black" x1="145.0" x2="143.454915028" y1="40.7768353718" y2="39.6542654303" /><line stroke="black" x1="143.454915028" x2="141.319660113" y1="39.6542654303" y2="33.0826265288" /><line stroke="black" x1="141.319660113" x2="145.364745084" y1="33.0826265288" y2="20.6331351044" /><line stroke="black" x1="145.364745084" x2="160.0" y1="20.6331351044" y2="10.0" /><line stroke="black" x1="160.0" x2="180.0" y1="10.0" y2="10.0" /><line stroke="black" x1="180.0" x2="194.635254916" y1="10.0" y2="20.6331351044" /><line stroke="black" x1="194.635254916" x2="198.680339887" y1="20.6331351044" y2="33.0826265288" /><line stroke="black" x1="198.680339887" x2="196.545084972" y1="33.0826265288" y2="39.6542654303" /><line stroke="black" x1="196.545084972" x2="195.0" y1="39.6542654303" y2="40.7768353718" /><line stroke="black" x1="195.0" x2="195.0" y1="40.7768353718" y2="40.7768353718" /><line stroke="black" x1="195.0" x2="193.454915028" y1="40.7768353718" y2="39.6542654303" /><line stroke="black" x1="193.454915028" x2="191.319660113" y1="39.6542654303" y2="33.0826265288" /><line stroke="black" x1="191.319660113" x2="195.364745084" y1="33.0826265288" y2="20.6331351044" /><line stroke="black" x1="195.364745084" x2="210.0" y1="20.6331351044" y2="10.0" /><line stroke="black" x1="210.0" x2="230.0" y1="10.0" y2="10.0" /><line stroke="black" x1="230.0" x2="244.635254916" y1="10.0" y2="20.6331351044" /><line stroke="black" x1="244.635254916" x2="248.680339887" y1="20.6331351044" y2="33.0826265288" /><line stroke="black" x1="248.680339887" x2="246.545084972" y1="33.0826265288" y2="39.6542654303" /><line stroke="black" x1="246.545084972" x2="245.0" y1="39.6542654303" y2="40.7768353718" /><line stroke="black" x1="245.0" x2="245.0" y1="40.7768353718" y2="40.7768353718" /><line stroke="black" x1="245.0" x2="243.454915028" y1="40.7768353718" y2="39.6542654303" /><line stroke="black" x1="243.454915028" x2="241.319660113" y1="39.6542654303" y2="33.0826265288" /><line stroke="black" x1="241.319660113" x2="245.364745084" y1="33.0826265288" y2="20.6331351044" /><line stroke="black" x1="245.364745084" x2="260.0" y1="20.6331351044" y2="10.0" /></svg>