<?xml version="1.0" encoding="utf-8" ?>
<svg baseProfile="full" height="100%" version="1.1" width="100%" xmlns="http://www.w3.org/2000/svg" xmlns:ev="http://www.w3.org/2001/xml-events" xmlns:xlink="http://www.w3.org/1999/xlink"><defs /><line stroke="black" x1="10.0" x2="30.0" y1="10.0" y2="10.0" /><line stroke="black" x1="30.0" x2="47.4811076082" y1="10.0" y2="17.7830905581" /><line stroke="black" x1="47.4811076082" x2="58.6497713555" y1="17.7830905581" y2="30.1871482898" /><line stroke="black" x1="58.6497713555" x2="62.6948563273" y1="30.1871482898" y2="42.6366397142" /><line stroke="black" x1="62.6948563273" x2="61.758833691" y1="42.6366397142" y2="51.5423002138" /><line stroke="black" x1="61.758833691" x2="59.258833691" y1="51.5423002138" y2="55.8724272327" /><line stroke="black" x1="59.258833691" x2="57.7137487191" y1="55.8724272327" y2="56.9949971741" /><line stroke="black" x1="57.7137487191" x2="57.5" y1="56.9949971741" y2="57.0404308669" /><line stroke="black" x1="57.5" x2="57.2862512809" y1="57.0404308669" y2="56.9949971741" /><line stroke="black" x1="57.2862512809" x2="55.741166309" y1="56.9949971741" y2="55.8724272327" /><line stroke="black" x1="55.741166309" x2="53.241166309" y1="55.8724272327" y2="51.5423002138" /><line stroke="black" x1="53.241166309" x2="52.3051436727" y1="51.5423002138" y2="42.6366397142" /><line stroke="black" x1="52.3051436727" x2="56.3502286445" y1="42.6366397142" y2="30.1871482898" /><line stroke="black" x1="56.3502286445" x2="67.5188923918" y1="30.1871482898" y2="17.7830905581" /><line stroke="black" x1="67.5188923918" x2="85.0" y1="17.7830905581" y2="10.0" /><line stroke="black" x1="85.0" x2="105.0" y1="10.0" y2="10.0" /><line stroke="black" x1="105.0" x2="122.481107608" y1="10.0" y2="17.7830905581" /><line stroke="black" x1="122.481107608" x2="133.649771355" y1="17.7830905581" y2="30.1871482898" /><line stroke="black" x1="133.649771355" x2="137.694856327" y1="30.1871482898" y2="42.6366397142" /><line stroke="black" x1="137.694856327" x2="136.758833691" y1="42.6366397142" y2="51.5423002138" /><line stroke="black" x1="136.758833691" x2="134.258833691" y1="51.5423002138" y2="55.8724272327" /><line stroke="black" x1="134.258833691" x2="132.713748719" y1="55.8724272327" y2="56.9949971741" /><line stroke="black" x1="132.713748719" x2="132.5" y1="56.9949971741" y2="57.0404308669" /><line stroke="black" x1="132.5" x2="132.286251281" y1="57.0404308669" y2="56.9949971741" /><line stroke="black" x1="132.286251281" x2="130.741166309" y1="56.9949971741" y2="55.8724272327" /><line stroke="black" x1="130.741166309" x2="128.241166309" y1="55.8724272327" y2="51.5423002138" /><line stroke="black" x1="128.241166309" x2="127.305143673" y1="51.5423002138" y2="42.6366397142" /><line stroke="black" x1="127.305143673" x2="131.350228645" y1="42.6366397142" y2="30.1871482898" /><line stroke="black" x1="131.350228645" x2="142.518892392" y1="30.1871482898" y2="17.7830905581" /><line stroke="black" x1="142.518892392" x2="160.0" y1="17.7830905581" y2="10.0" /><line stroke="black" x1="160.0" x2="180.0" y1="10.0" y2="10.0" /><line stroke="black" x1="180.0" x2="197.481107608" y1="10.0" y2="17.7830905581" /><line stroke="black" x1="197.481107608" x2="208.649771355" y1="17.7830905581" y2="30.1871482898" /><line stroke="black" x1="208.649771355" x2="212.694856327" y1="30.1871482898" y2="42.6366397142" /><line stroke="black" x1="212.694856327" x2="211.758833691" y1="42.6366397142" y2="51.5423002138" /><line stroke="black" x1="211.758833691" x2="209.258833691" y1="51.5423002138" y2="55.8724272327" /><line stroke="black" x1="209.258833691" x2="207.713748719" y1="55.8724272327" y2="56.9949971741" /><line stroke="black" x1="207.713748719" x2="207.5" y1="56.9949971741" y2="57.0404308669" /><line stroke="black" x1="207.5" x2="207.286251281" y1="57.0404308669" y2="56.9949971741" /><line stroke="black" x1="207.286251281" x2="205.741166309" y1="56.9949971741" y2="55.8724272327" /><line stroke="black" x1="205.741166309" x2="203.241166309" y1="55.8724272327" y2="51.5423002138" /><line stroke="black" x1="203.241166309" x2="202.305143673" y1="51.5423002138" y2="42.6366397142" /><line stroke="black" x1="202.305143673" x2="206.350228645" y1="42.6366397142" y2="30.1871482898" /><line stroke="black" x1="206.350228645" x2="217.518892392" y1="30.1871482898" y2="17.7830905581" /><line stroke="black" x1="217.518892392" x2="235.0" y1="17.7830905581" y2="10.0" /><line stroke="black" x1="235.0" x2="255.0" y1="10.0" y2="10.0" /><line stroke="black" x1="255.0" x2="272.481107608" y1="10.0" y2="17.7830905581" /><line stroke="black" x1="272.481107608" x2="283.649771355" y1="17.7830905581" y2="30.1871482898" /><line stroke="black" x1="283.649771355" x2="287.694856327" y1="30.1871482898" y2="42.6366397142" /><line stroke="black" x1="287.694856327" x2="286.758833691" y1="42.6366397142" y2="51.5423002138" /><line stroke="black" x1="286.758833691" x2="284.258833691" y1="51.5423002138" y2="55.8724272327" /><line stroke="black" x1="284.258833691" x2="282.713748719" y1="55.8724272327" y2="56.9949971741" /><line stroke="black" x1="282.713748719" x2="282.5" y1="56.9949971741" y2="57.0404308669" /><line stroke="black" x1="282.5" x2="282.286251281" y1="57.0404308669" y2="56.9949971741" /><line stroke="black" x1="282.286251281" x2="280.741166309" y1="56.9949971741" y2="55.8724272327" /><line stroke="black" x1="280.741166309" x2="278.241166309" y1="55.8724272327" y2="51.5423002138" /><line stroke="black" x1="278.241166309" x2="277.305143673" y1="51.5423002138" y2="42.6366397142" /><line stroke="black" x1="277.305143673" x2="281.350228645" y1="42.6366397142" y2="30.1871482898" /><line stroke="black" x1="281.350228645" x2="292.518892392" y1="30.1871482898" y2="17.7830905581" /><line stroke="black" x1="292.518892392" x2="310.0" y1="17.7830905581" y2="10.0" /><line stroke="black" x1="310.0" x2="330.0" y1="10.0" y2="10.0" /><line stroke="black" x1="330.0" x2="347.481107608" y1="10.0" y2="17.7830905581" /><line stroke="black" x1="347.481107608" x2="358.649771355" y1="17.7830905581" y2="30.1871482898" /><line stroke="black" x1="358.649771355" x2="362.694856327" y1="30.1871482898" y2="42.6366397142" /><line stroke="black" x1="362.694856327" x2="361.758833691" y1="42.6366397142" y2="51.5423002138" /><line stroke="black" x1="361.758833691" x2="359.258833691" y1="51.5423002138" y2="55.8724272327" /><line stroke="black" x1="359.258833691" x2="357.713748719" y1="55.8724272327" y2="56.9949971741" /><line stroke="black" x1="357.713748719" x2="357.5" y1="56.9949971741" y2="57.0404308669" /><line stroke="black" x1="357.5" x2="357.286251281" y1="57.0404308669" y2="56.9949971741" /><line stroke="black" x1="357.286251281" x2="355.741166309" y1="56.9949971741" y2="55.8724272327" /><line stroke="black" x1="355.741166309" x2="353.241166309" y1="55.8724272327" y2="51.5423002138" /><line stroke="black" x1="353.241166309" x2="352.305143673" y1="51.5423002138" y2="42.6366397142" /><line stroke="black" x1="352.305143673" x2="356.350228645" y1="42.6366397142" y2="30.1871482898" /><line stroke="black" x1="356.350228645" x2="367.518892392" y1="30.1871482898" y2="17.7830905581" /><line stroke="black" x1="367.518892392" x2="385.0" y1="17.7830905581" y2="10.0" /></svg>