<?xml version="1.0" encoding="utf-8" ?>
<svg baseProfile="full" height="100%" version="1.1" width="100%" xmlns="http://www.w3.org/2000/svg" xmlns:ev="http://www.w3.org/2001/xml-events" xmlns:xlink="http://www.w3.org/1999/xlink"><defs /><line stroke="black" x1="10.0" x2="30.0" y1="10.0" y2="10.0" /><line stroke="black" x1="30.0" x2="40.1222933488" y1="10.0" y2="22.6929543856" /><line stroke="black" x1="40.1222933488" x2="38.3922396697" y1="22.6929543856" y2="30.2728148118" /><line stroke="black" x1="38.3922396697" x2="37.5" y1="30.2728148118" y2="30.7024947907" /><line stroke="black" x1="37.5" x2="36.6077603303" y1="30.7024947907" y2="30.2728148118" /><line stroke="black" x1="36.6077603303" x2="34.8777066512" y1="30.2728148118" y2="22.6929543856" /><line stroke="black" x1="34.8777066512" x2="45.0" y1="22.6929543856" y2="10.0" /><line stroke="black" x1="45.0" x2="65.0" y1="10.0" y2="10.0" /><line stroke="black" x1="65.0" x2="75.1222933488" y1="10.0" y2="22.6929543856" /><line stroke="black" x1="75.1222933488" x2="73.3922396697" y1="22.6929543856" y2="30.2728148118" /><line stroke="black" x1="73.3922396697" x2="72.5" y1="30.2728148118" y2="30.7024947907" /><line stroke="black" x1="72.5" x2="71.6077603303" y1="30.7024947907" y2="30.2728148118" /><line stroke="black" x1="71.6077603303" x2="69.8777066512" y1="30.2728148118" y2="22.6929543856" /><line stroke="black" x1="69.8777066512" x2="80.0" y1="22.6929543856" y2="10.0" /><line stroke="black" x1="80.0" x2="100.0" y1="10.0" y2="10.0" /><line stroke="black" x1="100.0" x2="110.122293349" y1="10.0" y2="22.6929543856" /><line stroke="black" x1="110.122293349" x2="108.39223967" y1="22.6929543856" y2="30.2728148118" /><line stroke="black" x1="108.39223967" x2="107.5" y1="30.2728148118" y2="30.7024947907" /><line stroke="black" x1="107.5" x2="106.60776033" y1="30.7024947907" y2="30.2728148118" /><line stroke="black" x1="106.60776033" x2="104.877706651" y1="30.2728148118" y2="22.6929543856" /><line stroke="black" x1="104.877706651" x2="115.0" y1="22.6929543856" y2="10.0" /><line stroke="black" x1="115.0" x2="135.0" y1="10.0" y2="10.0" /><line stroke="black" x1="135.0" x2="145.122293349" y1="10.0" y2="22.6929543856" /><line stroke="black" x1="145.122293349" x2="143.39223967" y1="22.6929543856" y2="30.2728148118" /><line stroke="black" x1="143.39223967" x2="142.5" y1="30.2728148118" y2="30.7024947907" /><line stroke="black" x1="142.5" x2="141.60776033" y1="30.7024947907" y2="30.2728148118" /><line stroke="black" x1="141.60776033" x2="139.877706651" y1="30.2728148118" y2="22.6929543856" /><line stroke="black" x1="139.877706651" x2="150.0" y1="22.6929543856" y2="10.0" /><line stroke="black" x1="150.0" x2="170.0" y1="10.0" y2="10.0" /><line stroke="black" x1="170.0" x2="180.122293349" y1="10.0" y2="22.6929543856" /><line stroke="black" x1="180.122293349" x2="178.39223967" y1="22.6929543856" y2="30.2728148118" /><line stroke="black" x1="178.39223967" x2="177.5" y1="30.2728148118" y2="30.7024947907" /><line stroke="black" x1="177.5" x2="176.60776033" y1="30.7024947907" y2="30.2728148118" /><line stroke="black" x1="176.60776033" x2="174.877706651" y1="30.2728148118" y2="22.6929543856" /><line stroke="black" x1="174.877706651" x2="185.0" y1="22.6929543856" y2="10.0" /></svg>