<?xml version="1.0" encoding="utf-8" ?>
<svg baseProfile="full" height="100%" version="1.1" width="100%" xmlns="http://www.w3.org/2000/svg" xmlns:ev="http://www.w3.org/2001/xml-events" xmlns:xlink="http://www.w3.org/1999/xlink"><defs /><line stroke="black" x1="76.4110105646" x2="163.588989435" y1="210.0" y2="210.0" /><line stroke="black" x1="210.0" x2="210.0" y1="76.4110105646" y2="163.588989435" /><line stroke="black" x1="60.0" x2="180.0" y1="200.0" y2="200.0" /><line stroke="black" x1="200.0" x2="200.0" y1="60.0" y2="180.0" /><line stroke="black" x1="48.5857157146" x2="191.414284285" y1="190.0" y2="190.0" /><line stroke="black" x1="190.0" x2="190.0" y1="48.5857157146" y2="191.414284285" /><line stroke="black" x1="40.0" x2="200.0" y1="180.0" y2="180.0" /><line stroke="black" x1="180.0" x2="180.0" y1="40.0" y2="200.0" /><line stroke="black" x1="33.3974596216" x2="206.602540378" y1="170.0" y2="170.0" /><line stroke="black" x1="170.0" x2="170.0" y1="33.3974596216" y2="206.602540378" /><line stroke="black" x1="28.3484861009" x2="211.651513899" y1="160.0" y2="160.0" /><line stroke="black" x1="160.0" x2="160.0" y1="28.3484861009" y2="211.651513899" /><line stroke="black" x1="24.6060798583" x2="215.393920142" y1="150.0" y2="150.0" /><line stroke="black" x1="150.0" x2="150.0" y1="24.6060798583" y2="215.393920142" /><line stroke="black" x1="22.0204102887" x2="217.979589711" y1="140.0" y2="140.0" /><line stroke="black" x1="140.0" x2="140.0" y1="22.0204102887" y2="217.979589711" /><line stroke="black" x1="20.5012562893" x2="219.498743711" y1="130.0" y2="130.0" /><line stroke="black" x1="130.0" x2="130.0" y1="20.5012562893" y2="219.498743711" /><line stroke="black" x1="20.0" x2="220.0" y1="120.0" y2="120.0" /><line stroke="black" x1="120.0" x2="120.0" y1="20.0" y2="220.0" /><line stroke="black" x1="20.5012562893" x2="219.498743711" y1="110.0" y2="110.0" /><line stroke="black" x1="110.0" x2="110.0" y1="20.5012562893" y2="219.498743711" /><line stroke="black" x1="22.0204102887" x2="217.979589711" y1="100.0" y2="100.0" /><line stroke="black" x1="100.0" x2="100.0" y1="22.0204102887" y2="217.979589711" /><line stroke="black" x1="24.6060798583" x2="215.393920142" y1="90.0" y2="90.0" /><line stroke="black" x1="90.0" x2="90.0" y1="24.6060798583" y2="215.393920142" /><line stroke="black" x1="28.3484861009" x2="211.651513899" y1="80.0" y2="80.0" /><line stroke="black" x1="80.0" x2="80.0" y1="28.3484861009" y2="211.651513899" /><line stroke="black" x1="33.3974596216" x2="206.602540378" y1="70.0" y2="70.0" /><line stroke="black" x1="70.0" x2="70.0" y1="33.3974596216" y2="206.602540378" /><line stroke="black" x1="40.0" x2="200.0" y1="60.0" y2="60.0" /><line stroke="black" x1="60.0" x2="60.0" y1="40.0" y2="200.0" /><line stroke="black" x1="48.5857157146" x2="191.414284285" y1="50.0" y2="50.0" /><line stroke="black" x1="50.0" x2="50.0" y1="48.5857157146" y2="191.414284285" /><line stroke="black" x1="60.0" x2="180.0" y1="40.0" y2="40.0" /><line stroke="black" x1="40.0" x2="40.0" y1="60.0" y2="180.0" /><line stroke="black" x1="76.4110105646" x2="163.588989435" y1="30.0" y2="30.0" /><line stroke="black" x1="30.0" x2="30.0" y1="76.4110105646" y2="163.588989435" /><line stroke="black" x1="120.0" x2="120.0" y1="20.0" y2="20.0" /><line stroke="black" x1="20.0" x2="20.0" y1="120.0" y2="120.0" /></svg>