<?xml version="1.0" encoding="utf-8" ?>
<svg baseProfile="full" height="100%" version="1.1" width="100%" xmlns="http://www.w3.org/2000/svg" xmlns:ev="http://www.w3.org/2001/xml-events" xmlns:xlink="http://www.w3.org/1999/xlink"><defs /><line stroke="black" x1="10.0" x2="30.0" y1="10.0" y2="10.0" /><line stroke="black" x1="30.0" x2="49.3492032956" y1="10.0" y2="14.1128001236" /><line stroke="black" x1="49.3492032956" x2="66.8303109038" y1="14.1128001236" y2="21.8958906817" /><line stroke="black" x1="66.8303109038" x2="81.4655658194" y1="21.8958906817" y2="32.5290257861" /><line stroke="black" x1="81.4655658194" x2="92.6342295666" y1="32.5290257861" y2="44.9330835177" /><line stroke="black" x1="92.6342295666" x2="100.134229567" y1="44.9330835177" y2="57.9234645745" /><line stroke="black" x1="100.134229567" x2="104.179314539" y1="57.9234645745" y2="70.3729559989" /><line stroke="black" x1="104.179314539" x2="105.333861168" y1="70.3729559989" y2="81.3577334067" /><line stroke="black" x1="105.333861168" x2="104.397838531" y1="81.3577334067" y2="90.2633939063" /><line stroke="black" x1="104.397838531" x2="102.262583616" y1="90.2633939063" y2="96.8350328078" /><line stroke="black" x1="102.262583616" x2="99.7625836156" y1="96.8350328078" y2="101.165159827" /><line stroke="black" x1="99.7625836156" x2="97.5486352356" y1="101.165159827" y2="103.623998605" /><line stroke="black" x1="97.5486352356" x2="96.0035502638" y1="103.623998605" y2="104.746568546" /><line stroke="black" x1="96.0035502638" x2="95.2137487191" y1="104.746568546" y2="105.098210849" /><line stroke="black" x1="95.2137487191" x2="95.0" y1="105.098210849" y2="105.143644542" /><line stroke="black" x1="95.0" x2="95.0" y1="105.143644542" y2="105.143644542" /><line stroke="black" x1="95.0" x2="94.7862512809" y1="105.143644542" y2="105.098210849" /><line stroke="black" x1="94.7862512809" x2="93.9964497362" y1="105.098210849" y2="104.746568546" /><line stroke="black" x1="93.9964497362" x2="92.4513647644" y1="104.746568546" y2="103.623998605" /><line stroke="black" x1="92.4513647644" x2="90.2374163844" y1="103.623998605" y2="101.165159827" /><line stroke="black" x1="90.2374163844" x2="87.7374163844" y1="101.165159827" y2="96.8350328078" /><line stroke="black" x1="87.7374163844" x2="85.6021614688" y1="96.8350328078" y2="90.2633939063" /><line stroke="black" x1="85.6021614688" x2="84.6661388325" y1="90.2633939063" y2="81.3577334067" /><line stroke="black" x1="84.6661388325" x2="85.8206854615" y1="81.3577334067" y2="70.3729559989" /><line stroke="black" x1="85.8206854615" x2="89.8657704334" y1="70.3729559989" y2="57.9234645745" /><line stroke="black" x1="89.8657704334" x2="97.3657704334" y1="57.9234645745" y2="44.9330835177" /><line stroke="black" x1="97.3657704334" x2="108.534434181" y1="44.9330835177" y2="32.5290257861" /><line stroke="black" x1="108.534434181" x2="123.169689096" y1="32.5290257861" y2="21.8958906817" /><line stroke="black" x1="123.169689096" x2="140.650796704" y1="21.8958906817" y2="14.1128001236" /><line stroke="black" x1="140.650796704" x2="160.0" y1="14.1128001236" y2="10.0" /><line stroke="black" x1="160.0" x2="180.0" y1="10.0" y2="10.0" /><line stroke="black" x1="180.0" x2="199.349203296" y1="10.0" y2="14.1128001236" /><line stroke="black" x1="199.349203296" x2="216.830310904" y1="14.1128001236" y2="21.8958906817" /><line stroke="black" x1="216.830310904" x2="231.465565819" y1="21.8958906817" y2="32.5290257861" /><line stroke="black" x1="231.465565819" x2="242.634229567" y1="32.5290257861" y2="44.9330835177" /><line stroke="black" x1="242.634229567" x2="250.134229567" y1="44.9330835177" y2="57.9234645745" /><line stroke="black" x1="250.134229567" x2="254.179314539" y1="57.9234645745" y2="70.3729559989" /><line stroke="black" x1="254.179314539" x2="255.333861168" y1="70.3729559989" y2="81.3577334067" /><line stroke="black" x1="255.333861168" x2="254.397838531" y1="81.3577334067" y2="90.2633939063" /><line stroke="black" x1="254.397838531" x2="252.262583616" y1="90.2633939063" y2="96.8350328078" /><line stroke="black" x1="252.262583616" x2="249.762583616" y1="96.8350328078" y2="101.165159827" /><line stroke="black" x1="249.762583616" x2="247.548635236" y1="101.165159827" y2="103.623998605" /><line stroke="black" x1="247.548635236" x2="246.003550264" y1="103.623998605" y2="104.746568546" /><line stroke="black" x1="246.003550264" x2="245.213748719" y1="104.746568546" y2="105.098210849" /><line stroke="black" x1="245.213748719" x2="245.0" y1="105.098210849" y2="105.143644542" /><line stroke="black" x1="245.0" x2="245.0" y1="105.143644542" y2="105.143644542" /><line stroke="black" x1="245.0" x2="244.786251281" y1="105.143644542" y2="105.098210849" /><line stroke="black" x1="244.786251281" x2="243.996449736" y1="105.098210849" y2="104.746568546" /><line stroke="black" x1="243.996449736" x2="242.451364764" y1="104.746568546" y2="103.623998605" /><line stroke="black" x1="242.451364764" x2="240.237416384" y1="103.623998605" y2="101.165159827" /><line stroke="black" x1="240.237416384" x2="237.737416384" y1="101.165159827" y2="96.8350328078" /><line stroke="black" x1="237.737416384" x2="235.602161469" y1="96.8350328078" y2="90.2633939063" /><line stroke="black" x1="235.602161469" x2="234.666138832" y1="90.2633939063" y2="81.3577334067" /><line stroke="black" x1="234.666138832" x2="235.820685461" y1="81.3577334067" y2="70.3729559989" /><line stroke="black" x1="235.820685461" x2="239.865770433" y1="70.3729559989" y2="57.9234645745" /><line stroke="black" x1="239.865770433" x2="247.365770433" y1="57.9234645745" y2="44.9330835177" /><line stroke="black" x1="247.365770433" x2="258.534434181" y1="44.9330835177" y2="32.5290257861" /><line stroke="black" x1="258.534434181" x2="273.169689096" y1="32.5290257861" y2="21.8958906817" /><line stroke="black" x1="273.169689096" x2="290.650796704" y1="21.8958906817" y2="14.1128001236" /><line stroke="black" x1="290.650796704" x2="310.0" y1="14.1128001236" y2="10.0" /><line stroke="black" x1="310.0" x2="330.0" y1="10.0" y2="10.0" /><line stroke="black" x1="330.0" x2="349.349203296" y1="10.0" y2="14.1128001236" /><line stroke="black" x1="349.349203296" x2="366.830310904" y1="14.1128001236" y2="21.8958906817" /><line stroke="black" x1="366.830310904" x2="381.465565819" y1="21.8958906817" y2="32.5290257861" /><line stroke="black" x1="381.465565819" x2="392.634229567" y1="32.5290257861" y2="44.9330835177" /><line stroke="black" x1="392.634229567" x2="400.134229567" y1="44.9330835177" y2="57.9234645745" /><line stroke="black" x1="400.134229567" x2="404.179314539" y1="57.9234645745" y2="70.3729559989" /><line stroke="black" x1="404.179314539" x2="405.333861168" y1="70.3729559989" y2="81.3577334067" /><line stroke="black" x1="405.333861168" x2="404.397838531" y1="81.3577334067" y2="90.2633939063" /><line stroke="black" x1="404.397838531" x2="402.262583616" y1="90.2633939063" y2="96.8350328078" /><line stroke="black" x1="402.262583616" x2="399.762583616" y1="96.8350328078" y2="101.165159827" /><line stroke="black" x1="399.762583616" x2="397.548635236" y1="101.165159827" y2="103.623998605" /><line stroke="black" x1="397.548635236" x2="396.003550264" y1="103.623998605" y2="104.746568546" /><line stroke="black" x1="396.003550264" x2="395.213748719" y1="104.746568546" y2="105.098210849" /><line stroke="black" x1="395.213748719" x2="395.0" y1="105.098210849" y2="105.143644542" /><line stroke="black" x1="395.0" x2="395.0" y1="105.143644542" y2="105.143644542" /><line stroke="black" x1="395.0" x2="394.786251281" y1="105.143644542" y2="105.098210849" /><line stroke="black" x1="394.786251281" x2="393.996449736" y1="105.098210849" y2="104.746568546" /><line stroke="black" x1="393.996449736" x2="392.451364764" y1="104.746568546" y2="103.623998605" /><line stroke="black" x1="392.451364764" x2="390.237416384" y1="103.623998605" y2="101.165159827" /><line stroke="black" x1="390.237416384" x2="387.737416384" y1="101.165159827" y2="96.8350328078" /><line stroke="black" x1="387.737416384" x2="385.602161469" y1="96.8350328078" y2="90.2633939063" /><line stroke="black" x1="385.602161469" x2="384.666138832" y1="90.2633939063" y2="81.3577334067" /><line stroke="black" x1="384.666138832" x2="385.820685461" y1="81.3577334067" y2="70.3729559989" /><line stroke="black" x1="385.820685461" x2="389.865770433" y1="70.3729559989" y2="57.9234645745" /><line stroke="black" x1="389.865770433" x2="397.365770433" y1="57.9234645745" y2="44.9330835177" /><line stroke="black" x1="397.365770433" x2="408.534434181" y1="44.9330835177" y2="32.5290257861" /><line stroke="black" x1="408.534434181" x2="423.169689096" y1="32.5290257861" y2="21.8958906817" /><line stroke="black" x1="423.169689096" x2="440.650796704" y1="21.8958906817" y2="14.1128001236" /><line stroke="black" x1="440.650796704" x2="460.0" y1="14.1128001236" y2="10.0" /><line stroke="black" x1="460.0" x2="480.0" y1="10.0" y2="10.0" /><line stroke="black" x1="480.0" x2="499.349203296" y1="10.0" y2="14.1128001236" /><line stroke="black" x1="499.349203296" x2="516.830310904" y1="14.1128001236" y2="21.8958906817" /><line stroke="black" x1="516.830310904" x2="531.465565819" y1="21.8958906817" y2="32.5290257861" /><line stroke="black" x1="531.465565819" x2="542.634229567" y1="32.5290257861" y2="44.9330835177" /><line stroke="black" x1="542.634229567" x2="550.134229567" y1="44.9330835177" y2="57.9234645745" /><line stroke="black" x1="550.134229567" x2="554.179314539" y1="57.9234645745" y2="70.3729559989" /><line stroke="black" x1="554.179314539" x2="555.333861168" y1="70.3729559989" y2="81.3577334067" /><line stroke="black" x1="555.333861168" x2="554.397838531" y1="81.3577334067" y2="90.2633939063" /><line stroke="black" x1="554.397838531" x2="552.262583616" y1="90.2633939063" y2="96.8350328078" /><line stroke="black" x1="552.262583616" x2="549.762583616" y1="96.8350328078" y2="101.165159827" /><line stroke="black" x1="549.762583616" x2="547.548635236" y1="101.165159827" y2="103.623998605" /><line stroke="black" x1="547.548635236" x2="546.003550264" y1="103.623998605" y2="104.746568546" /><line stroke="black" x1="546.003550264" x2="545.213748719" y1="104.746568546" y2="105.098210849" /><line stroke="black" x1="545.213748719" x2="545.0" y1="105.098210849" y2="105.143644542" /><line stroke="black" x1="545.0" x2="545.0" y1="105.143644542" y2="105.143644542" /><line stroke="black" x1="545.0" x2="544.786251281" y1="105.143644542" y2="105.098210849" /><line stroke="black" x1="544.786251281" x2="543.996449736" y1="105.098210849" y2="104.746568546" /><line stroke="black" x1="543.996449736" x2="542.451364764" y1="104.746568546" y2="103.623998605" /><line stroke="black" x1="542.451364764" x2="540.237416384" y1="103.623998605" y2="101.165159827" /><line stroke="black" x1="540.237416384" x2="537.737416384" y1="101.165159827" y2="96.8350328078" /><line stroke="black" x1="537.737416384" x2="535.602161469" y1="96.8350328078" y2="90.2633939063" /><line stroke="black" x1="535.602161469" x2="534.666138832" y1="90.2633939063" y2="81.3577334067" /><line stroke="black" x1="534.666138832" x2="535.820685461" y1="81.3577334067" y2="70.3729559989" /><line stroke="black" x1="535.820685461" x2="539.865770433" y1="70.3729559989" y2="57.9234645745" /><line stroke="black" x1="539.865770433" x2="547.365770433" y1="57.9234645745" y2="44.9330835177" /><line stroke="black" x1="547.365770433" x2="558.534434181" y1="44.9330835177" y2="32.5290257861" /><line stroke="black" x1="558.534434181" x2="573.169689096" y1="32.5290257861" y2="21.8958906817" /><line stroke="black" x1="573.169689096" x2="590.650796704" y1="21.8958906817" y2="14.1128001236" /><line stroke="black" x1="590.650796704" x2="610.0" y1="14.1128001236" y2="10.0" /><line stroke="black" x1="610.0" x2="630.0" y1="10.0" y2="10.0" /><line stroke="black" x1="630.0" x2="649.349203296" y1="10.0" y2="14.1128001236" /><line stroke="black" x1="649.349203296" x2="666.830310904" y1="14.1128001236" y2="21.8958906817" /><line stroke="black" x1="666.830310904" x2="681.465565819" y1="21.8958906817" y2="32.5290257861" /><line stroke="black" x1="681.465565819" x2="692.634229567" y1="32.5290257861" y2="44.9330835177" /><line stroke="black" x1="692.634229567" x2="700.134229567" y1="44.9330835177" y2="57.9234645745" /><line stroke="black" x1="700.134229567" x2="704.179314539" y1="57.9234645745" y2="70.3729559989" /><line stroke="black" x1="704.179314539" x2="705.333861168" y1="70.3729559989" y2="81.3577334067" /><line stroke="black" x1="705.333861168" x2="704.397838531" y1="81.3577334067" y2="90.2633939063" /><line stroke="black" x1="704.397838531" x2="702.262583616" y1="90.2633939063" y2="96.8350328078" /><line stroke="black" x1="702.262583616" x2="699.762583616" y1="96.8350328078" y2="101.165159827" /><line stroke="black" x1="699.762583616" x2="697.548635236" y1="101.165159827" y2="103.623998605" /><line stroke="black" x1="697.548635236" x2="696.003550264" y1="103.623998605" y2="104.746568546" /><line stroke="black" x1="696.003550264" x2="695.213748719" y1="104.746568546" y2="105.098210849" /><line stroke="black" x1="695.213748719" x2="695.0" y1="105.098210849" y2="105.143644542" /><line stroke="black" x1="695.0" x2="695.0" y1="105.143644542" y2="105.143644542" /><line stroke="black" x1="695.0" x2="694.786251281" y1="105.143644542" y2="105.098210849" /><line stroke="black" x1="694.786251281" x2="693.996449736" y1="105.098210849" y2="104.746568546" /><line stroke="black" x1="693.996449736" x2="692.451364764" y1="104.746568546" y2="103.623998605" /><line stroke="black" x1="692.451364764" x2="690.237416384" y1="103.623998605" y2="101.165159827" /><line stroke="black" x1="690.237416384" x2="687.737416384" y1="101.165159827" y2="96.8350328078" /><line stroke="black" x1="687.737416384" x2="685.602161469" y1="96.8350328078" y2="90.2633939063" /><line stroke="black" x1="685.602161469" x2="684.666138832" y1="90.2633939063" y2="81.3577334067" /><line stroke="black" x1="684.666138832" x2="685.820685461" y1="81.3577334067" y2="70.3729559989" /><line stroke="black" x1="685.820685461" x2="689.865770433" y1="70.3729559989" y2="57.9234645745" /><line stroke="black" x1="689.865770433" x2="697.365770433" y1="57.9234645745" y2="44.9330835177" /><line stroke="black" x1="697.365770433" x2="708.534434181" y1="44.9330835177" y2="32.5290257861" /><line stroke="black" x1="708.534434181" x2="723.169689096" y1="32.5290257861" y2="21.8958906817" /><line stroke="black" x1="723.169689096" x2="740.650796704" y1="21.8958906817" y2="14.1128001236" /><line stroke="black" x1="740.650796704" x2="760.0" y1="14.1128001236" y2="10.0" /></svg>