<?xml version="1.0" encoding="utf-8" ?>
<svg baseProfile="full" height="100%" version="1.1" width="100%" xmlns="http://www.w3.org/2000/svg" xmlns:ev="http://www.w3.org/2001/xml-events" xmlns:xlink="http://www.w3.org/1999/xlink"><defs /><line stroke="black" x1="10.0" x2="30.0" y1="10.0" y2="10.0" /><line stroke="black" x1="30.0" x2="30.0" y1="10.0" y2="20.0" /><line stroke="black" x1="30.0" x2="30.0" y1="20.0" y2="20.0" /><line stroke="black" x1="30.0" x2="30.0" y1="20.0" y2="10.0" /><line stroke="black" x1="30.0" x2="50.0" y1="10.0" y2="10.0" /><line stroke="black" x1="50.0" x2="50.0" y1="10.0" y2="20.0" /><line stroke="black" x1="50.0" x2="50.0" y1="20.0" y2="20.0" /><line stroke="black" x1="50.0" x2="50.0" y1="20.0" y2="10.0" /><line stroke="black" x1="50.0" x2="70.0" y1="10.0" y2="10.0" /><line stroke="black" x1="70.0" x2="70.0" y1="10.0" y2="20.0" /><line stroke="black" x1="70.0" x2="70.0" y1="20.0" y2="20.0" /><line stroke="black" x1="70.0" x2="70.0" y1="20.0" y2="10.0" /><line stroke="black" x1="70.0" x2="90.0" y1="10.0" y2="10.0" /><line stroke="black" x1="90.0" x2="90.0" y1="10.0" y2="20.0" /><line stroke="black" x1="90.0" x2="90.0" y1="20.0" y2="20.0" /><line stroke="black" x1="90.0" x2="90.0" y1="20.0" y2="10.0" /><line stroke="black" x1="90.0" x2="110.0" y1="10.0" y2="10.0" /><line stroke="black" x1="110.0" x2="110.0" y1="10.0" y2="20.0" /><line stroke="black" x1="110.0" x2="110.0" y1="20.0" y2="20.0" /><line stroke="black" x1="110.0" x2="110.0" y1="20.0" y2="10.0" /></svg>