<?xml version="1.0" encoding="utf-8" ?>
<svg baseProfile="full" height="100%" version="1.1" width="100%" xmlns="http://www.w3.org/2000/svg" xmlns:ev="http://www.w3.org/2001/xml-events" xmlns:xlink="http://www.w3.org/1999/xlink"><defs /><line stroke="black" x1="70.0" x2="90.0" y1="70.0" y2="70.0" /><line stroke="black" x1="90.0" x2="106.180339887" y1="70.0" y2="81.7557050458" /><line stroke="black" x1="106.180339887" x2="112.360679775" y1="81.7557050458" y2="100.776835372" /><line stroke="black" x1="112.360679775" x2="106.180339887" y1="100.776835372" y2="119.797965698" /><line stroke="black" x1="106.180339887" x2="90.0" y1="119.797965698" y2="131.553670744" /><line stroke="black" x1="90.0" x2="70.0" y1="131.553670744" y2="131.553670744" /><line stroke="black" x1="70.0" x2="53.8196601125" y1="131.553670744" y2="119.797965698" /><line stroke="black" x1="53.8196601125" x2="47.639320225" y1="119.797965698" y2="100.776835372" /><line stroke="black" x1="47.639320225" x2="53.8196601125" y1="100.776835372" y2="81.7557050458" /><line stroke="black" x1="53.8196601125" x2="70.0" y1="81.7557050458" y2="70.0" /><line stroke="black" x1="70.0" x2="86.1803398875" y1="70.0" y2="81.7557050458" /><line stroke="black" x1="86.1803398875" x2="92.360679775" y1="81.7557050458" y2="100.776835372" /><line stroke="black" x1="92.360679775" x2="86.1803398875" y1="100.776835372" y2="119.797965698" /><line stroke="black" x1="86.1803398875" x2="70.0" y1="119.797965698" y2="131.553670744" /><line stroke="black" x1="70.0" x2="50.0" y1="131.553670744" y2="131.553670744" /><line stroke="black" x1="50.0" x2="33.8196601125" y1="131.553670744" y2="119.797965698" /><line stroke="black" x1="33.8196601125" x2="27.639320225" y1="119.797965698" y2="100.776835372" /><line stroke="black" x1="27.639320225" x2="33.8196601125" y1="100.776835372" y2="81.7557050458" /><line stroke="black" x1="33.8196601125" x2="50.0" y1="81.7557050458" y2="70.0" /><line stroke="black" x1="50.0" x2="70.0" y1="70.0" y2="70.0" /><line stroke="black" x1="70.0" x2="76.1803398875" y1="70.0" y2="89.0211303259" /><line stroke="black" x1="76.1803398875" x2="70.0" y1="89.0211303259" y2="108.042260652" /><line stroke="black" x1="70.0" x2="53.8196601125" y1="108.042260652" y2="119.797965698" /><line stroke="black" x1="53.8196601125" x2="33.8196601125" y1="119.797965698" y2="119.797965698" /><line stroke="black" x1="33.8196601125" x2="17.639320225" y1="119.797965698" y2="108.042260652" /><line stroke="black" x1="17.639320225" x2="11.4589803375" y1="108.042260652" y2="89.0211303259" /><line stroke="black" x1="11.4589803375" x2="17.639320225" y1="89.0211303259" y2="70.0" /><line stroke="black" x1="17.639320225" x2="33.8196601125" y1="70.0" y2="58.2442949542" /><line stroke="black" x1="33.8196601125" x2="53.8196601125" y1="58.2442949542" y2="58.2442949542" /><line stroke="black" x1="53.8196601125" x2="70.0" y1="58.2442949542" y2="70.0" /><line stroke="black" x1="70.0" x2="63.8196601125" y1="70.0" y2="89.0211303259" /><line stroke="black" x1="63.8196601125" x2="47.639320225" y1="89.0211303259" y2="100.776835372" /><line stroke="black" x1="47.639320225" x2="27.639320225" y1="100.776835372" y2="100.776835372" /><line stroke="black" x1="27.639320225" x2="11.4589803375" y1="100.776835372" y2="89.0211303259" /><line stroke="black" x1="11.4589803375" x2="5.27864045" y1="89.0211303259" y2="70.0" /><line stroke="black" x1="5.27864045" x2="11.4589803375" y1="70.0" y2="50.9788696741" /><line stroke="black" x1="11.4589803375" x2="27.639320225" y1="50.9788696741" y2="39.2231646282" /><line stroke="black" x1="27.639320225" x2="47.639320225" y1="39.2231646282" y2="39.2231646282" /><line stroke="black" x1="47.639320225" x2="63.8196601125" y1="39.2231646282" y2="50.9788696741" /><line stroke="black" x1="63.8196601125" x2="70.0" y1="50.9788696741" y2="70.0" /><line stroke="black" x1="70.0" x2="53.8196601125" y1="70.0" y2="81.7557050458" /><line stroke="black" x1="53.8196601125" x2="33.8196601125" y1="81.7557050458" y2="81.7557050458" /><line stroke="black" x1="33.8196601125" x2="17.639320225" y1="81.7557050458" y2="70.0" /><line stroke="black" x1="17.639320225" x2="11.4589803375" y1="70.0" y2="50.9788696741" /><line stroke="black" x1="11.4589803375" x2="17.639320225" y1="50.9788696741" y2="31.9577393482" /><line stroke="black" x1="17.639320225" x2="33.8196601125" y1="31.9577393482" y2="20.2020343023" /><line stroke="black" x1="33.8196601125" x2="53.8196601125" y1="20.2020343023" y2="20.2020343023" /><line stroke="black" x1="53.8196601125" x2="70.0" y1="20.2020343023" y2="31.9577393482" /><line stroke="black" x1="70.0" x2="76.1803398875" y1="31.9577393482" y2="50.9788696741" /><line stroke="black" x1="76.1803398875" x2="70.0" y1="50.9788696741" y2="70.0" /><line stroke="black" x1="70.0" x2="50.0" y1="70.0" y2="70.0" /><line stroke="black" x1="50.0" x2="33.8196601125" y1="70.0" y2="58.2442949542" /><line stroke="black" x1="33.8196601125" x2="27.639320225" y1="58.2442949542" y2="39.2231646282" /><line stroke="black" x1="27.639320225" x2="33.8196601125" y1="39.2231646282" y2="20.2020343023" /><line stroke="black" x1="33.8196601125" x2="50.0" y1="20.2020343023" y2="8.44632925649" /><line stroke="black" x1="50.0" x2="70.0" y1="8.44632925649" y2="8.44632925649" /><line stroke="black" x1="70.0" x2="86.1803398875" y1="8.44632925649" y2="20.2020343023" /><line stroke="black" x1="86.1803398875" x2="92.360679775" y1="20.2020343023" y2="39.2231646282" /><line stroke="black" x1="92.360679775" x2="86.1803398875" y1="39.2231646282" y2="58.2442949542" /><line stroke="black" x1="86.1803398875" x2="70.0" y1="58.2442949542" y2="70.0" /><line stroke="black" x1="70.0" x2="53.8196601125" y1="70.0" y2="58.2442949542" /><line stroke="black" x1="53.8196601125" x2="47.639320225" y1="58.2442949542" y2="39.2231646282" /><line stroke="black" x1="47.639320225" x2="53.8196601125" y1="39.2231646282" y2="20.2020343023" /><line stroke="black" x1="53.8196601125" x2="70.0" y1="20.2020343023" y2="8.44632925649" /><line stroke="black" x1="70.0" x2="90.0" y1="8.44632925649" y2="8.44632925649" /><line stroke="black" x1="90.0" x2="106.180339887" y1="8.44632925649" y2="20.2020343023" /><line stroke="black" x1="106.180339887" x2="112.360679775" y1="20.2020343023" y2="39.2231646282" /><line stroke="black" x1="112.360679775" x2="106.180339887" y1="39.2231646282" y2="58.2442949542" /><line stroke="black" x1="106.180339887" x2="90.0" y1="58.2442949542" y2="70.0" /><line stroke="black" x1="90.0" x2="70.0" y1="70.0" y2="70.0" /><line stroke="black" x1="70.0" x2="63.8196601125" y1="70.0" y2="50.9788696741" /><line stroke="black" x1="63.8196601125" x2="70.0" y1="50.9788696741" y2="31.9577393482" /><line stroke="black" x1="70.0" x2="86.1803398875" y1="31.9577393482" y2="20.2020343023" /><line stroke="black" x1="86.1803398875" x2="106.180339887" y1="20.2020343023" y2="20.2020343023" /><line stroke="black" x1="106.180339887" x2="122.360679775" y1="20.2020343023" y2="31.9577393482" /><line stroke="black" x1="122.360679775" x2="128.541019662" y1="31.9577393482" y2="50.9788696741" /><line stroke="black" x1="128.541019662" x2="122.360679775" y1="50.9788696741" y2="70.0" /><line stroke="black" x1="122.360679775" x2="106.180339887" y1="70.0" y2="81.7557050458" /><line stroke="black" x1="106.180339887" x2="86.1803398875" y1="81.7557050458" y2="81.7557050458" /><line stroke="black" x1="86.1803398875" x2="70.0" y1="81.7557050458" y2="70.0" /><line stroke="black" x1="70.0" x2="76.1803398875" y1="70.0" y2="50.9788696741" /><line stroke="black" x1="76.1803398875" x2="92.360679775" y1="50.9788696741" y2="39.2231646282" /><line stroke="black" x1="92.360679775" x2="112.360679775" y1="39.2231646282" y2="39.2231646282" /><line stroke="black" x1="112.360679775" x2="128.541019662" y1="39.2231646282" y2="50.9788696741" /><line stroke="black" x1="128.541019662" x2="134.72135955" y1="50.9788696741" y2="70.0" /><line stroke="black" x1="134.72135955" x2="128.541019662" y1="70.0" y2="89.0211303259" /><line stroke="black" x1="128.541019662" x2="112.360679775" y1="89.0211303259" y2="100.776835372" /><line stroke="black" x1="112.360679775" x2="92.360679775" y1="100.776835372" y2="100.776835372" /><line stroke="black" x1="92.360679775" x2="76.1803398875" y1="100.776835372" y2="89.0211303259" /><line stroke="black" x1="76.1803398875" x2="70.0" y1="89.0211303259" y2="70.0" /><line stroke="black" x1="70.0" x2="86.1803398875" y1="70.0" y2="58.2442949542" /><line stroke="black" x1="86.1803398875" x2="106.180339887" y1="58.2442949542" y2="58.2442949542" /><line stroke="black" x1="106.180339887" x2="122.360679775" y1="58.2442949542" y2="70.0" /><line stroke="black" x1="122.360679775" x2="128.541019662" y1="70.0" y2="89.0211303259" /><line stroke="black" x1="128.541019662" x2="122.360679775" y1="89.0211303259" y2="108.042260652" /><line stroke="black" x1="122.360679775" x2="106.180339887" y1="108.042260652" y2="119.797965698" /><line stroke="black" x1="106.180339887" x2="86.1803398875" y1="119.797965698" y2="119.797965698" /><line stroke="black" x1="86.1803398875" x2="70.0" y1="119.797965698" y2="108.042260652" /><line stroke="black" x1="70.0" x2="63.8196601125" y1="108.042260652" y2="89.0211303259" /><line stroke="black" x1="63.8196601125" x2="70.0" y1="89.0211303259" y2="70.0" /></svg>