<?xml version="1.0" encoding="utf-8" ?>
<svg baseProfile="full" height="100%" version="1.1" width="100%" xmlns="http://www.w3.org/2000/svg" xmlns:ev="http://www.w3.org/2001/xml-events" xmlns:xlink="http://www.w3.org/1999/xlink"><defs /><line stroke="black" x1="70.0" x2="86.6666666667" y1="70.0" y2="70.0" /><line stroke="black" x1="86.6666666667" x2="101.100423396" y1="70.0" y2="78.3333333333" /><line stroke="black" x1="101.100423396" x2="109.43375673" y1="78.3333333333" y2="92.7670900631" /><line stroke="black" x1="109.43375673" x2="109.43375673" y1="92.7670900631" y2="109.43375673" /><line stroke="black" x1="109.43375673" x2="101.100423396" y1="109.43375673" y2="123.867513459" /><line stroke="black" x1="101.100423396" x2="86.6666666667" y1="123.867513459" y2="132.200846793" /><line stroke="black" x1="86.6666666667" x2="70.0" y1="132.200846793" y2="132.200846793" /><line stroke="black" x1="70.0" x2="55.5662432703" y1="132.200846793" y2="123.867513459" /><line stroke="black" x1="55.5662432703" x2="47.2329099369" y1="123.867513459" y2="109.43375673" /><line stroke="black" x1="47.2329099369" x2="47.2329099369" y1="109.43375673" y2="92.7670900631" /><line stroke="black" x1="47.2329099369" x2="55.5662432703" y1="92.7670900631" y2="78.3333333333" /><line stroke="black" x1="55.5662432703" x2="70.0" y1="78.3333333333" y2="70.0" /><line stroke="black" x1="70.0" x2="84.4337567297" y1="70.0" y2="78.3333333333" /><line stroke="black" x1="84.4337567297" x2="92.7670900631" y1="78.3333333333" y2="92.7670900631" /><line stroke="black" x1="92.7670900631" x2="92.7670900631" y1="92.7670900631" y2="109.43375673" /><line stroke="black" x1="92.7670900631" x2="84.4337567297" y1="109.43375673" y2="123.867513459" /><line stroke="black" x1="84.4337567297" x2="70.0" y1="123.867513459" y2="132.200846793" /><line stroke="black" x1="70.0" x2="53.3333333333" y1="132.200846793" y2="132.200846793" /><line stroke="black" x1="53.3333333333" x2="38.8995766036" y1="132.200846793" y2="123.867513459" /><line stroke="black" x1="38.8995766036" x2="30.5662432703" y1="123.867513459" y2="109.43375673" /><line stroke="black" x1="30.5662432703" x2="30.5662432703" y1="109.43375673" y2="92.7670900631" /><line stroke="black" x1="30.5662432703" x2="38.8995766036" y1="92.7670900631" y2="78.3333333333" /><line stroke="black" x1="38.8995766036" x2="53.3333333333" y1="78.3333333333" y2="70.0" /><line stroke="black" x1="53.3333333333" x2="70.0" y1="70.0" y2="70.0" /><line stroke="black" x1="70.0" x2="78.3333333333" y1="70.0" y2="84.4337567297" /><line stroke="black" x1="78.3333333333" x2="78.3333333333" y1="84.4337567297" y2="101.100423396" /><line stroke="black" x1="78.3333333333" x2="70.0" y1="101.100423396" y2="115.534180126" /><line stroke="black" x1="70.0" x2="55.5662432703" y1="115.534180126" y2="123.867513459" /><line stroke="black" x1="55.5662432703" x2="38.8995766036" y1="123.867513459" y2="123.867513459" /><line stroke="black" x1="38.8995766036" x2="24.4658198739" y1="123.867513459" y2="115.534180126" /><line stroke="black" x1="24.4658198739" x2="16.1324865405" y1="115.534180126" y2="101.100423396" /><line stroke="black" x1="16.1324865405" x2="16.1324865405" y1="101.100423396" y2="84.4337567297" /><line stroke="black" x1="16.1324865405" x2="24.4658198739" y1="84.4337567297" y2="70.0" /><line stroke="black" x1="24.4658198739" x2="38.8995766036" y1="70.0" y2="61.6666666667" /><line stroke="black" x1="38.8995766036" x2="55.5662432703" y1="61.6666666667" y2="61.6666666667" /><line stroke="black" x1="55.5662432703" x2="70.0" y1="61.6666666667" y2="70.0" /><line stroke="black" x1="70.0" x2="70.0" y1="70.0" y2="86.6666666667" /><line stroke="black" x1="70.0" x2="61.6666666667" y1="86.6666666667" y2="101.100423396" /><line stroke="black" x1="61.6666666667" x2="47.2329099369" y1="101.100423396" y2="109.43375673" /><line stroke="black" x1="47.2329099369" x2="30.5662432703" y1="109.43375673" y2="109.43375673" /><line stroke="black" x1="30.5662432703" x2="16.1324865405" y1="109.43375673" y2="101.100423396" /><line stroke="black" x1="16.1324865405" x2="7.79915320719" y1="101.100423396" y2="86.6666666667" /><line stroke="black" x1="7.79915320719" x2="7.79915320719" y1="86.6666666667" y2="70.0" /><line stroke="black" x1="7.79915320719" x2="16.1324865405" y1="70.0" y2="55.5662432703" /><line stroke="black" x1="16.1324865405" x2="30.5662432703" y1="55.5662432703" y2="47.2329099369" /><line stroke="black" x1="30.5662432703" x2="47.2329099369" y1="47.2329099369" y2="47.2329099369" /><line stroke="black" x1="47.2329099369" x2="61.6666666667" y1="47.2329099369" y2="55.5662432703" /><line stroke="black" x1="61.6666666667" x2="70.0" y1="55.5662432703" y2="70.0" /><line stroke="black" x1="70.0" x2="61.6666666667" y1="70.0" y2="84.4337567297" /><line stroke="black" x1="61.6666666667" x2="47.2329099369" y1="84.4337567297" y2="92.7670900631" /><line stroke="black" x1="47.2329099369" x2="30.5662432703" y1="92.7670900631" y2="92.7670900631" /><line stroke="black" x1="30.5662432703" x2="16.1324865405" y1="92.7670900631" y2="84.4337567297" /><line stroke="black" x1="16.1324865405" x2="7.79915320719" y1="84.4337567297" y2="70.0" /><line stroke="black" x1="7.79915320719" x2="7.79915320719" y1="70.0" y2="53.3333333333" /><line stroke="black" x1="7.79915320719" x2="16.1324865405" y1="53.3333333333" y2="38.8995766036" /><line stroke="black" x1="16.1324865405" x2="30.5662432703" y1="38.8995766036" y2="30.5662432703" /><line stroke="black" x1="30.5662432703" x2="47.2329099369" y1="30.5662432703" y2="30.5662432703" /><line stroke="black" x1="47.2329099369" x2="61.6666666667" y1="30.5662432703" y2="38.8995766036" /><line stroke="black" x1="61.6666666667" x2="70.0" y1="38.8995766036" y2="53.3333333333" /><line stroke="black" x1="70.0" x2="70.0" y1="53.3333333333" y2="70.0" /><line stroke="black" x1="70.0" x2="55.5662432703" y1="70.0" y2="78.3333333333" /><line stroke="black" x1="55.5662432703" x2="38.8995766036" y1="78.3333333333" y2="78.3333333333" /><line stroke="black" x1="38.8995766036" x2="24.4658198739" y1="78.3333333333" y2="70.0" /><line stroke="black" x1="24.4658198739" x2="16.1324865405" y1="70.0" y2="55.5662432703" /><line stroke="black" x1="16.1324865405" x2="16.1324865405" y1="55.5662432703" y2="38.8995766036" /><line stroke="black" x1="16.1324865405" x2="24.4658198739" y1="38.8995766036" y2="24.4658198739" /><line stroke="black" x1="24.4658198739" x2="38.8995766036" y1="24.4658198739" y2="16.1324865405" /><line stroke="black" x1="38.8995766036" x2="55.5662432703" y1="16.1324865405" y2="16.1324865405" /><line stroke="black" x1="55.5662432703" x2="70.0" y1="16.1324865405" y2="24.4658198739" /><line stroke="black" x1="70.0" x2="78.3333333333" y1="24.4658198739" y2="38.8995766036" /><line stroke="black" x1="78.3333333333" x2="78.3333333333" y1="38.8995766036" y2="55.5662432703" /><line stroke="black" x1="78.3333333333" x2="70.0" y1="55.5662432703" y2="70.0" /><line stroke="black" x1="70.0" x2="53.3333333333" y1="70.0" y2="70.0" /><line stroke="black" x1="53.3333333333" x2="38.8995766036" y1="70.0" y2="61.6666666667" /><line stroke="black" x1="38.8995766036" x2="30.5662432703" y1="61.6666666667" y2="47.2329099369" /><line stroke="black" x1="30.5662432703" x2="30.5662432703" y1="47.2329099369" y2="30.5662432703" /><line stroke="black" x1="30.5662432703" x2="38.8995766036" y1="30.5662432703" y2="16.1324865405" /><line stroke="black" x1="38.8995766036" x2="53.3333333333" y1="16.1324865405" y2="7.79915320719" /><line stroke="black" x1="53.3333333333" x2="70.0" y1="7.79915320719" y2="7.79915320719" /><line stroke="black" x1="70.0" x2="84.4337567297" y1="7.79915320719" y2="16.1324865405" /><line stroke="black" x1="84.4337567297" x2="92.7670900631" y1="16.1324865405" y2="30.5662432703" /><line stroke="black" x1="92.7670900631" x2="92.7670900631" y1="30.5662432703" y2="47.2329099369" /><line stroke="black" x1="92.7670900631" x2="84.4337567297" y1="47.2329099369" y2="61.6666666667" /><line stroke="black" x1="84.4337567297" x2="70.0" y1="61.6666666667" y2="70.0" /><line stroke="black" x1="70.0" x2="55.5662432703" y1="70.0" y2="61.6666666667" /><line stroke="black" x1="55.5662432703" x2="47.2329099369" y1="61.6666666667" y2="47.2329099369" /><line stroke="black" x1="47.2329099369" x2="47.2329099369" y1="47.2329099369" y2="30.5662432703" /><line stroke="black" x1="47.2329099369" x2="55.5662432703" y1="30.5662432703" y2="16.1324865405" /><line stroke="black" x1="55.5662432703" x2="70.0" y1="16.1324865405" y2="7.79915320719" /><line stroke="black" x1="70.0" x2="86.6666666667" y1="7.79915320719" y2="7.79915320719" /><line stroke="black" x1="86.6666666667" x2="101.100423396" y1="7.79915320719" y2="16.1324865405" /><line stroke="black" x1="101.100423396" x2="109.43375673" y1="16.1324865405" y2="30.5662432703" /><line stroke="black" x1="109.43375673" x2="109.43375673" y1="30.5662432703" y2="47.2329099369" /><line stroke="black" x1="109.43375673" x2="101.100423396" y1="47.2329099369" y2="61.6666666667" /><line stroke="black" x1="101.100423396" x2="86.6666666667" y1="61.6666666667" y2="70.0" /><line stroke="black" x1="86.6666666667" x2="70.0" y1="70.0" y2="70.0" /><line stroke="black" x1="70.0" x2="61.6666666667" y1="70.0" y2="55.5662432703" /><line stroke="black" x1="61.6666666667" x2="61.6666666667" y1="55.5662432703" y2="38.8995766036" /><line stroke="black" x1="61.6666666667" x2="70.0" y1="38.8995766036" y2="24.4658198739" /><line stroke="black" x1="70.0" x2="84.4337567297" y1="24.4658198739" y2="16.1324865405" /><line stroke="black" x1="84.4337567297" x2="101.100423396" y1="16.1324865405" y2="16.1324865405" /><line stroke="black" x1="101.100423396" x2="115.534180126" y1="16.1324865405" y2="24.4658198739" /><line stroke="black" x1="115.534180126" x2="123.867513459" y1="24.4658198739" y2="38.8995766036" /><line stroke="black" x1="123.867513459" x2="123.867513459" y1="38.8995766036" y2="55.5662432703" /><line stroke="black" x1="123.867513459" x2="115.534180126" y1="55.5662432703" y2="70.0" /><line stroke="black" x1="115.534180126" x2="101.100423396" y1="70.0" y2="78.3333333333" /><line stroke="black" x1="101.100423396" x2="84.4337567297" y1="78.3333333333" y2="78.3333333333" /><line stroke="black" x1="84.4337567297" x2="70.0" y1="78.3333333333" y2="70.0" /><line stroke="black" x1="70.0" x2="70.0" y1="70.0" y2="53.3333333333" /><line stroke="black" x1="70.0" x2="78.3333333333" y1="53.3333333333" y2="38.8995766036" /><line stroke="black" x1="78.3333333333" x2="92.7670900631" y1="38.8995766036" y2="30.5662432703" /><line stroke="black" x1="92.7670900631" x2="109.43375673" y1="30.5662432703" y2="30.5662432703" /><line stroke="black" x1="109.43375673" x2="123.867513459" y1="30.5662432703" y2="38.8995766036" /><line stroke="black" x1="123.867513459" x2="132.200846793" y1="38.8995766036" y2="53.3333333333" /><line stroke="black" x1="132.200846793" x2="132.200846793" y1="53.3333333333" y2="70.0" /><line stroke="black" x1="132.200846793" x2="123.867513459" y1="70.0" y2="84.4337567297" /><line stroke="black" x1="123.867513459" x2="109.43375673" y1="84.4337567297" y2="92.7670900631" /><line stroke="black" x1="109.43375673" x2="92.7670900631" y1="92.7670900631" y2="92.7670900631" /><line stroke="black" x1="92.7670900631" x2="78.3333333333" y1="92.7670900631" y2="84.4337567297" /><line stroke="black" x1="78.3333333333" x2="70.0" y1="84.4337567297" y2="70.0" /><line stroke="black" x1="70.0" x2="78.3333333333" y1="70.0" y2="55.5662432703" /><line stroke="black" x1="78.3333333333" x2="92.7670900631" y1="55.5662432703" y2="47.2329099369" /><line stroke="black" x1="92.7670900631" x2="109.43375673" y1="47.2329099369" y2="47.2329099369" /><line stroke="black" x1="109.43375673" x2="123.867513459" y1="47.2329099369" y2="55.5662432703" /><line stroke="black" x1="123.867513459" x2="132.200846793" y1="55.5662432703" y2="70.0" /><line stroke="black" x1="132.200846793" x2="132.200846793" y1="70.0" y2="86.6666666667" /><line stroke="black" x1="132.200846793" x2="123.867513459" y1="86.6666666667" y2="101.100423396" /><line stroke="black" x1="123.867513459" x2="109.43375673" y1="101.100423396" y2="109.43375673" /><line stroke="black" x1="109.43375673" x2="92.7670900631" y1="109.43375673" y2="109.43375673" /><line stroke="black" x1="92.7670900631" x2="78.3333333333" y1="109.43375673" y2="101.100423396" /><line stroke="black" x1="78.3333333333" x2="70.0" y1="101.100423396" y2="86.6666666667" /><line stroke="black" x1="70.0" x2="70.0" y1="86.6666666667" y2="70.0" /><line stroke="black" x1="70.0" x2="84.4337567297" y1="70.0" y2="61.6666666667" /><line stroke="black" x1="84.4337567297" x2="101.100423396" y1="61.6666666667" y2="61.6666666667" /><line stroke="black" x1="101.100423396" x2="115.534180126" y1="61.6666666667" y2="70.0" /><line stroke="black" x1="115.534180126" x2="123.867513459" y1="70.0" y2="84.4337567297" /><line stroke="black" x1="123.867513459" x2="123.867513459" y1="84.4337567297" y2="101.100423396" /><line stroke="black" x1="123.867513459" x2="115.534180126" y1="101.100423396" y2="115.534180126" /><line stroke="black" x1="115.534180126" x2="101.100423396" y1="115.534180126" y2="123.867513459" /><line stroke="black" x1="101.100423396" x2="84.4337567297" y1="123.867513459" y2="123.867513459" /><line stroke="black" x1="84.4337567297" x2="70.0" y1="123.867513459" y2="115.534180126" /><line stroke="black" x1="70.0" x2="61.6666666667" y1="115.534180126" y2="101.100423396" /><line stroke="black" x1="61.6666666667" x2="61.6666666667" y1="101.100423396" y2="84.4337567297" /><line stroke="black" x1="61.6666666667" x2="70.0" y1="84.4337567297" y2="70.0" /></svg>