<?xml version="1.0" encoding="utf-8" ?>
<svg baseProfile="full" height="100%" version="1.1" width="100%" xmlns="http://www.w3.org/2000/svg" xmlns:ev="http://www.w3.org/2001/xml-events" xmlns:xlink="http://www.w3.org/1999/xlink"><defs /><line stroke="black" x1="285.065080835" x2="226.286555606" y1="200.0" y2="280.901699437" /><line stroke="black" x1="285.065080835" x2="131.180903976" y1="200.0" y2="250.0" /><line stroke="black" x1="285.065080835" x2="131.180903976" y1="200.0" y2="150.0" /><line stroke="black" x1="285.065080835" x2="226.286555606" y1="200.0" y2="119.098300563" /><line stroke="black" x1="226.286555606" x2="285.065080835" y1="280.901699437" y2="200.0" /><line stroke="black" x1="226.286555606" x2="131.180903976" y1="280.901699437" y2="250.0" /><line stroke="black" x1="226.286555606" x2="131.180903976" y1="280.901699437" y2="150.0" /><line stroke="black" x1="226.286555606" x2="226.286555606" y1="280.901699437" y2="119.098300563" /><line stroke="black" x1="131.180903976" x2="285.065080835" y1="250.0" y2="200.0" /><line stroke="black" x1="131.180903976" x2="226.286555606" y1="250.0" y2="280.901699437" /><line stroke="black" x1="131.180903976" x2="131.180903976" y1="250.0" y2="150.0" /><line stroke="black" x1="131.180903976" x2="226.286555606" y1="250.0" y2="119.098300563" /><line stroke="black" x1="131.180903976" x2="285.065080835" y1="150.0" y2="200.0" /><line stroke="black" x1="131.180903976" x2="226.286555606" y1="150.0" y2="280.901699437" /><line stroke="black" x1="131.180903976" x2="131.180903976" y1="150.0" y2="250.0" /><line stroke="black" x1="131.180903976" x2="226.286555606" y1="150.0" y2="119.098300563" /><line stroke="black" x1="226.286555606" x2="285.065080835" y1="119.098300563" y2="200.0" /><line stroke="black" x1="226.286555606" x2="226.286555606" y1="119.098300563" y2="280.901699437" /><line stroke="black" x1="226.286555606" x2="131.180903976" y1="119.098300563" y2="250.0" /><line stroke="black" x1="226.286555606" x2="131.180903976" y1="119.098300563" y2="150.0" /></svg>