<?xml version="1.0" encoding="utf-8" ?>
<svg baseProfile="full" height="100%" version="1.1" width="100%" xmlns="http://www.w3.org/2000/svg" xmlns:ev="http://www.w3.org/2001/xml-events" xmlns:xlink="http://www.w3.org/1999/xlink"><defs /><line stroke="black" x1="0.0" x2="100.0" y1="0.0" y2="0.0" /><line stroke="black" x1="100.0" x2="100.0" y1="0.0" y2="100.0" /><line stroke="black" x1="100.0" x2="-1.42108547152e-14" y1="100.0" y2="100.0" /><line stroke="black" x1="-1.42108547152e-14" x2="-8.08762071947e-15" y1="100.0" y2="-1.42108547152e-14" /><line stroke="black" x1="-8.08762071947e-15" x2="22.2845474274" y1="-1.42108547152e-14" y2="-1.42108547152e-14" /><line stroke="black" x1="22.2845474274" x2="100.0" y1="-1.42108547152e-14" y2="22.2845474274" /><line stroke="black" x1="100.0" x2="77.7154525726" y1="22.2845474274" y2="100.0" /><line stroke="black" x1="77.7154525726" x2="1.42108547152e-14" y1="100.0" y2="77.7154525726" /><line stroke="black" x1="1.42108547152e-14" x2="22.2845474274" y1="77.7154525726" y2="-1.42108547152e-14" /><line stroke="black" x1="22.2845474274" x2="39.6030843143" y1="-1.42108547152e-14" y2="4.96601054042" /><line stroke="black" x1="39.6030843143" x2="95.0339894596" y1="4.96601054042" y2="39.6030843143" /><line stroke="black" x1="95.0339894596" x2="60.3969156857" y1="39.6030843143" y2="95.0339894596" /><line stroke="black" x1="60.3969156857" x2="4.96601054042" y1="95.0339894596" y2="60.3969156857" /><line stroke="black" x1="4.96601054042" x2="39.6030843143" y1="60.3969156857" y2="4.96601054042" /><line stroke="black" x1="39.6030843143" x2="51.9556106608" y1="4.96601054042" y2="12.684725673" /><line stroke="black" x1="51.9556106608" x2="87.315274327" y1="12.684725673" y2="51.9556106608" /><line stroke="black" x1="87.315274327" x2="48.0443893392" y1="51.9556106608" y2="87.315274327" /><line stroke="black" x1="48.0443893392" x2="12.684725673" y1="87.315274327" y2="48.0443893392" /><line stroke="black" x1="12.684725673" x2="51.9556106608" y1="48.0443893392" y2="12.684725673" /><line stroke="black" x1="51.9556106608" x2="59.8353516807" y1="12.684725673" y2="21.4360646633" /><line stroke="black" x1="59.8353516807" x2="78.5639353367" y1="21.4360646633" y2="59.8353516807" /><line stroke="black" x1="78.5639353367" x2="40.1646483193" y1="59.8353516807" y2="78.5639353367" /><line stroke="black" x1="40.1646483193" x2="21.4360646633" y1="78.5639353367" y2="40.1646483193" /><line stroke="black" x1="21.4360646633" x2="59.8353516807" y1="40.1646483193" y2="21.4360646633" /><line stroke="black" x1="59.8353516807" x2="64.008931788" y1="21.4360646633" y2="29.9931719904" /><line stroke="black" x1="64.008931788" x2="70.0068280096" y1="29.9931719904" y2="64.008931788" /><line stroke="black" x1="70.0068280096" x2="35.991068212" y1="64.008931788" y2="70.0068280096" /><line stroke="black" x1="35.991068212" x2="29.9931719904" y1="70.0068280096" y2="35.991068212" /><line stroke="black" x1="29.9931719904" x2="64.008931788" y1="35.991068212" y2="29.9931719904" /><line stroke="black" x1="64.008931788" x2="65.3455358161" y1="29.9931719904" y2="37.5734301153" /><line stroke="black" x1="65.3455358161" x2="62.4265698847" y1="37.5734301153" y2="65.3455358161" /><line stroke="black" x1="62.4265698847" x2="34.6544641839" y1="65.3455358161" y2="62.4265698847" /><line stroke="black" x1="34.6544641839" x2="37.5734301153" y1="62.4265698847" y2="34.6544641839" /><line stroke="black" x1="37.5734301153" x2="65.3455358161" y1="34.6544641839" y2="37.5734301153" /><line stroke="black" x1="65.3455358161" x2="64.6950574687" y1="37.5734301153" y2="43.7623181818" /><line stroke="black" x1="64.6950574687" x2="56.2376818182" y1="43.7623181818" y2="64.6950574687" /><line stroke="black" x1="56.2376818182" x2="35.3049425313" y1="64.6950574687" y2="56.2376818182" /><line stroke="black" x1="35.3049425313" x2="43.7623181818" y1="56.2376818182" y2="35.3049425313" /><line stroke="black" x1="43.7623181818" x2="64.6950574687" y1="35.3049425313" y2="43.7623181818" /><line stroke="black" x1="64.6950574687" x2="62.8103695808" y1="43.7623181818" y2="48.427084396" /><line stroke="black" x1="62.8103695808" x2="51.572915604" y1="48.427084396" y2="62.8103695808" /><line stroke="black" x1="51.572915604" x2="37.1896304192" y1="62.8103695808" y2="51.572915604" /><line stroke="black" x1="37.1896304192" x2="48.427084396" y1="51.572915604" y2="37.1896304192" /><line stroke="black" x1="48.427084396" x2="62.8103695808" y1="37.1896304192" y2="48.427084396" /><line stroke="black" x1="62.8103695808" x2="60.3061538197" y1="48.427084396" y2="51.6323344046" /><line stroke="black" x1="60.3061538197" x2="48.3676655954" y1="51.6323344046" y2="60.3061538197" /><line stroke="black" x1="48.3676655954" x2="39.6938461803" y1="60.3061538197" y2="48.3676655954" /><line stroke="black" x1="39.6938461803" x2="51.6323344046" y1="48.3676655954" y2="39.6938461803" /><line stroke="black" x1="51.6323344046" x2="60.3061538197" y1="39.6938461803" y2="51.6323344046" /><line stroke="black" x1="60.3061538197" x2="57.6457157492" y1="51.6323344046" y2="53.5652558059" /><line stroke="black" x1="57.6457157492" x2="46.4347441941" y1="53.5652558059" y2="57.6457157492" /><line stroke="black" x1="46.4347441941" x2="42.3542842508" y1="57.6457157492" y2="46.4347441941" /><line stroke="black" x1="42.3542842508" x2="53.5652558059" y1="46.4347441941" y2="42.3542842508" /><line stroke="black" x1="53.5652558059" x2="57.6457157492" y1="42.3542842508" y2="53.5652558059" /><line stroke="black" x1="57.6457157492" x2="55.147401476" y1="53.5652558059" y2="54.4745678373" /><line stroke="black" x1="55.147401476" x2="45.5254321627" y1="54.4745678373" y2="55.147401476" /><line stroke="black" x1="45.5254321627" x2="44.852598524" y1="55.147401476" y2="45.5254321627" /><line stroke="black" x1="44.852598524" x2="54.4745678373" y1="45.5254321627" y2="44.852598524" /><line stroke="black" x1="54.4745678373" x2="55.147401476" y1="44.852598524" y2="54.4745678373" /><line stroke="black" x1="55.147401476" x2="53.0031891609" y1="54.4745678373" y2="54.6245057686" /><line stroke="black" x1="53.0031891609" x2="45.3754942314" y1="54.6245057686" y2="53.0031891609" /><line stroke="black" x1="45.3754942314" x2="46.9968108391" y1="53.0031891609" y2="45.3754942314" /><line stroke="black" x1="46.9968108391" x2="54.6245057686" y1="45.3754942314" y2="46.9968108391" /><line stroke="black" x1="54.6245057686" x2="53.0031891609" y1="46.9968108391" y2="54.6245057686" /><line stroke="black" x1="53.0031891609" x2="51.3033918667" y1="54.6245057686" y2="54.2632027002" /><line stroke="black" x1="51.3033918667" x2="45.7367972998" y1="54.2632027002" y2="51.3033918667" /><line stroke="black" x1="45.7367972998" x2="48.6966081333" y1="51.3033918667" y2="45.7367972998" /><line stroke="black" x1="48.6966081333" x2="54.2632027002" y1="45.7367972998" y2="48.6966081333" /><line stroke="black" x1="54.2632027002" x2="51.3033918667" y1="48.6966081333" y2="54.2632027002" /><line stroke="black" x1="51.3033918667" x2="50.0629014604" y1="54.2632027002" y2="53.6036222513" /><line stroke="black" x1="50.0629014604" x2="46.3963777487" y1="53.6036222513" y2="50.0629014604" /><line stroke="black" x1="46.3963777487" x2="49.9370985396" y1="50.0629014604" y2="46.3963777487" /><line stroke="black" x1="49.9370985396" x2="53.6036222513" y1="46.3963777487" y2="49.9370985396" /><line stroke="black" x1="53.6036222513" x2="50.0629014604" y1="49.9370985396" y2="53.6036222513" /><line stroke="black" x1="50.0629014604" x2="49.2458332449" y1="53.6036222513" y2="52.8145886473" /></svg>