<?xml version="1.0" encoding="utf-8" ?>
<svg baseProfile="full" height="100%" version="1.1" width="100%" xmlns="http://www.w3.org/2000/svg" xmlns:ev="http://www.w3.org/2001/xml-events" xmlns:xlink="http://www.w3.org/1999/xlink"><defs /><line stroke="black" x1="20.0" x2="220.0" y1="193.205080757" y2="193.205080757" /><line stroke="black" x1="220.0" x2="120.0" y1="193.205080757" y2="20.0" /><line stroke="black" x1="120.0" x2="20.0" y1="20.0" y2="193.205080757" /><line stroke="black" x1="31.2583302492" x2="208.741669751" y1="186.705080757" y2="186.705080757" /><line stroke="black" x1="208.741669751" x2="120.0" y1="186.705080757" y2="33.0" /><line stroke="black" x1="120.0" x2="31.2583302492" y1="33.0" y2="186.705080757" /><line stroke="black" x1="42.5166604984" x2="197.483339502" y1="180.205080757" y2="180.205080757" /><line stroke="black" x1="197.483339502" x2="120.0" y1="180.205080757" y2="46.0" /><line stroke="black" x1="120.0" x2="42.5166604984" y1="46.0" y2="180.205080757" /><line stroke="black" x1="53.7749907476" x2="186.225009252" y1="173.705080757" y2="173.705080757" /><line stroke="black" x1="186.225009252" x2="120.0" y1="173.705080757" y2="59.0" /><line stroke="black" x1="120.0" x2="53.7749907476" y1="59.0" y2="173.705080757" /><line stroke="black" x1="65.0333209968" x2="174.966679003" y1="167.205080757" y2="167.205080757" /><line stroke="black" x1="174.966679003" x2="120.0" y1="167.205080757" y2="72.0" /><line stroke="black" x1="120.0" x2="65.0333209968" y1="72.0" y2="167.205080757" /><line stroke="black" x1="76.291651246" x2="163.708348754" y1="160.705080757" y2="160.705080757" /><line stroke="black" x1="163.708348754" x2="120.0" y1="160.705080757" y2="85.0" /><line stroke="black" x1="120.0" x2="76.291651246" y1="85.0" y2="160.705080757" /><line stroke="black" x1="87.5499814952" x2="152.450018505" y1="154.205080757" y2="154.205080757" /><line stroke="black" x1="152.450018505" x2="120.0" y1="154.205080757" y2="98.0" /><line stroke="black" x1="120.0" x2="87.5499814952" y1="98.0" y2="154.205080757" /><line stroke="black" x1="98.8083117444" x2="141.191688256" y1="147.705080757" y2="147.705080757" /><line stroke="black" x1="141.191688256" x2="120.0" y1="147.705080757" y2="111.0" /><line stroke="black" x1="120.0" x2="98.8083117444" y1="111.0" y2="147.705080757" /><line stroke="black" x1="110.066641994" x2="129.933358006" y1="141.205080757" y2="141.205080757" /><line stroke="black" x1="129.933358006" x2="120.0" y1="141.205080757" y2="124.0" /><line stroke="black" x1="120.0" x2="110.066641994" y1="124.0" y2="141.205080757" /></svg>