<?xml version="1.0" encoding="utf-8" ?>
<svg baseProfile="full" height="100%" version="1.1" width="100%" xmlns="http://www.w3.org/2000/svg" xmlns:ev="http://www.w3.org/2001/xml-events" xmlns:xlink="http://www.w3.org/1999/xlink"><defs /><circle cx="281.363533727" cy="117.728133645" r="1" stroke="blue" /><circle cx="228.843972754" cy="47.7747382274" r="1" stroke="blue" /><circle cx="298.74466558" cy="302.121946647" r="1" stroke="blue" /><circle cx="121.496916874" cy="241.110917146" r="1" stroke="blue" /><circle cx="100.885394491" cy="245.596769226" r="1" stroke="blue" /><circle cx="157.109207812" cy="368.219024841" r="1" stroke="blue" /><circle cx="5.94692812545" cy="145.954039798" r="1" stroke="blue" /><circle cx="186.794269293" cy="156.856346048" r="1" stroke="blue" /><circle cx="105.445167217" cy="329.995661866" r="1" stroke="blue" /><circle cx="156.812106529" cy="251.999532342" r="1" stroke="blue" /><circle cx="147.971806737" cy="283.695987973" r="1" stroke="blue" /><circle cx="136.789702543" cy="151.590242972" r="1" stroke="blue" /><circle cx="389.85837709" cy="217.410513451" r="1" stroke="blue" /><circle cx="57.2573087121" cy="23.4479044665" r="1" stroke="blue" /><circle cx="113.524758628" cy="153.087541632" r="1" stroke="blue" /><circle cx="63.8352054556" cy="224.530404466" r="1" stroke="blue" /><circle cx="201.29308053" cy="363.249025276" r="1" stroke="blue" /><circle cx="38.8559434683" cy="106.271552411" r="1" stroke="blue" /><circle cx="223.184838892" cy="314.250835329" r="1" stroke="blue" /><circle cx="12.1164753428" cy="41.3288617903" r="1" stroke="blue" /><line stroke="black" x1="5.94692812545" x2="105.445167217" y1="145.954039798" y2="329.995661866" /><line stroke="black" x1="105.445167217" x2="157.109207812" y1="329.995661866" y2="368.219024841" /><line stroke="black" x1="157.109207812" x2="201.29308053" y1="368.219024841" y2="363.249025276" /><line stroke="black" x1="201.29308053" x2="298.74466558" y1="363.249025276" y2="302.121946647" /><line stroke="black" x1="298.74466558" x2="389.85837709" y1="302.121946647" y2="217.410513451" /><line stroke="black" x1="389.85837709" x2="228.843972754" y1="217.410513451" y2="47.7747382274" /><line stroke="black" x1="228.843972754" x2="57.2573087121" y1="47.7747382274" y2="23.4479044665" /><line stroke="black" x1="57.2573087121" x2="12.1164753428" y1="23.4479044665" y2="41.3288617903" /><line stroke="black" x1="12.1164753428" x2="5.94692812545" y1="41.3288617903" y2="145.954039798" /></svg>