<?xml version="1.0" encoding="utf-8" ?>
<svg baseProfile="full" height="100%" version="1.1" width="100%" xmlns="http://www.w3.org/2000/svg" xmlns:ev="http://www.w3.org/2001/xml-events" xmlns:xlink="http://www.w3.org/1999/xlink"><defs /><line stroke="black" x1="395.804302782" x2="198.242701134" y1="54.0545682754" y2="85.1899750339" /><line stroke="black" x1="104.609688538" x2="59.0064078198" y1="291.687896985" y2="96.9564388493" /><line stroke="black" x1="379.793049737" x2="181.325474971" y1="137.742629968" y2="113.031867802" /><line stroke="black" x1="302.798017855" x2="208.490862511" y1="326.087630162" y2="149.718243785" /><line stroke="black" x1="18.4375896613" x2="193.23416522" y1="124.708336805" y2="27.5169937074" /><line stroke="black" x1="285.388113098" x2="92.1744912972" y1="301.761730502" y2="353.41922125" /><line stroke="black" x1="380.023506832" x2="196.786246559" y1="52.6355724152" y2="132.786096105" /><line stroke="black" x1="187.082377762" x2="234.546761224" y1="371.3063965" y2="177.020184167" /><line stroke="black" x1="131.080014725" x2="117.940024257" y1="236.960312645" y2="37.3924278281" /><line stroke="black" x1="374.926250501" x2="218.107539939" y1="51.6450754532" y2="175.773605686" /><line stroke="black" x1="252.814700206" x2="73.5537102466" y1="351.137518327" y2="262.449878384" /><line stroke="black" x1="289.699392211" x2="91.8807060859" y1="44.6940303561" y2="74.1519226732" /><line stroke="black" x1="110.559804758" x2="153.718055707" y1="336.806461079" y2="141.518557268" /><line stroke="black" x1="119.143177915" x2="204.073482301" y1="165.307841046" y2="346.379217572" /><line stroke="black" x1="85.6347007947" x2="229.211828112" y1="315.683452225" y2="176.451241471" /><line stroke="black" x1="244.20389787" x2="56.1179918649" y1="339.297026121" y2="271.299291142" /><line stroke="black" x1="271.669727152" x2="145.992966029" y1="216.265643966" y2="60.6849519966" /><line stroke="black" x1="219.059791748" x2="39.8815612506" y1="213.687149337" y2="124.832426807" /><line stroke="black" x1="66.7038944173" x2="122.703042705" y1="167.261919584" y2="359.262167998" /><line stroke="black" x1="328.559677559" x2="157.861948138" y1="135.843443801" y2="240.065731103" /><circle cx="366.064214732" cy="58.7415607414" r="3" stroke="blue" /><circle cx="365.935156658" cy="58.7619000967" r="3" stroke="blue" /><circle cx="60.0827540534" cy="101.552565887" r="3" stroke="blue" /><circle cx="100.934991707" cy="275.996502398" r="3" stroke="blue" /><circle cx="103.878568736" cy="288.565928061" r="3" stroke="blue" /><circle cx="68.9051532304" cy="139.225264626" r="3" stroke="blue" /><circle cx="228.515296279" cy="118.907368888" r="3" stroke="blue" /><circle cx="281.599841236" cy="125.516809078" r="3" stroke="blue" /><circle cx="189.055853057" cy="113.994360212" r="3" stroke="blue" /><circle cx="230.953759798" cy="191.727435943" r="3" stroke="blue" /><circle cx="221.139678352" cy="173.37354205" r="3" stroke="blue" /><circle cx="224.979806977" cy="180.555193609" r="3" stroke="blue" /><circle cx="232.449651043" cy="194.524990592" r="3" stroke="blue" /><circle cx="119.971930147" cy="68.252660309" r="3" stroke="blue" /><circle cx="115.756633681" cy="70.5964723877" r="3" stroke="blue" /><circle cx="198.389829301" cy="325.021545201" r="3" stroke="blue" /><circle cx="199.452951293" cy="324.737309473" r="3" stroke="blue" /><circle cx="194.538748233" cy="326.051168179" r="3" stroke="blue" /><circle cx="202.027135304" cy="324.04907701" r="3" stroke="blue" /><circle cx="118.913786373" cy="346.270217598" r="3" stroke="blue" /><circle cx="365.833180901" cy="58.8426181491" r="3" stroke="blue" /><circle cx="202.290713539" cy="130.378365764" r="3" stroke="blue" /><circle cx="198.566419752" cy="324.298706572" r="3" stroke="blue" /><circle cx="196.905544359" cy="331.097176617" r="3" stroke="blue" /><circle cx="198.9033045" cy="322.919734447" r="3" stroke="blue" /><circle cx="229.888249139" cy="196.088896369" r="3" stroke="blue" /><circle cx="120.083824669" cy="69.9520948081" r="3" stroke="blue" /><circle cx="127.541124132" cy="183.212259174" r="3" stroke="blue" /><circle cx="126.526325912" cy="167.799680705" r="3" stroke="blue" /><circle cx="230.827471339" cy="165.705251064" r="3" stroke="blue" /><circle cx="121.725521535" cy="286.282415825" r="3" stroke="blue" /><circle cx="192.251320016" cy="321.174372094" r="3" stroke="blue" /><circle cx="117.903268185" cy="284.391392971" r="3" stroke="blue" /><circle cx="187.300726066" cy="318.725113647" r="3" stroke="blue" /><circle cx="97.9931216977" cy="274.541040681" r="3" stroke="blue" /><circle cx="149.893094256" cy="65.513089218" r="3" stroke="blue" /><circle cx="139.071218479" cy="207.794415921" r="3" stroke="blue" /><circle cx="123.300011346" cy="279.157965507" r="3" stroke="blue" /><circle cx="119.937796772" cy="294.371738582" r="3" stroke="blue" /><circle cx="145.797939446" cy="177.356499457" r="3" stroke="blue" /><circle cx="112.971171822" cy="325.895202887" r="3" stroke="blue" /><circle cx="157.148056115" cy="246.334226859" r="3" stroke="blue" /><circle cx="191.878823567" cy="320.380209807" r="3" stroke="blue" /><circle cx="110.958875511" cy="291.125635133" r="3" stroke="blue" /><circle cx="200.370958152" cy="204.41933193" r="3" stroke="blue" /><circle cx="104.622397021" cy="297.270359749" r="3" stroke="blue" /><circle cx="173.387131399" cy="230.586576835" r="3" stroke="blue" /><circle cx="101.872075659" cy="287.840530888" r="3" stroke="blue" /><circle cx="246.954078879" cy="185.669075225" r="3" stroke="blue" /><circle cx="209.130209748" cy="208.763056433" r="3" stroke="blue" /></svg>