<?xml version="1.0" encoding="utf-8" ?>
<svg baseProfile="full" height="100%" version="1.1" width="100%" xmlns="http://www.w3.org/2000/svg" xmlns:ev="http://www.w3.org/2001/xml-events" xmlns:xlink="http://www.w3.org/1999/xlink"><defs /><circle cx="36.8864630223" cy="273.830335351" r="1" stroke="blue" /><circle cx="60.5789871873" cy="97.808289952" r="1" stroke="blue" /><circle cx="87.6939095001" cy="209.878125798" r="1" stroke="blue" /><circle cx="307.859396688" cy="117.746551202" r="1" stroke="blue" /><circle cx="307.763902697" cy="340.754008902" r="1" stroke="blue" /><circle cx="192.462874173" cy="226.290776396" r="1" stroke="blue" /><circle cx="108.303191326" cy="18.4384363259" r="1" stroke="blue" /><circle cx="234.891022447" cy="200.950604764" r="1" stroke="blue" /><circle cx="72.8306023002" cy="14.1539340731" r="1" stroke="blue" /><circle cx="166.962513605" cy="32.9929920092" r="1" stroke="blue" /><circle cx="196.944368897" cy="178.468893856" r="1" stroke="blue" /><circle cx="331.730146385" cy="302.462206287" r="1" stroke="blue" /><circle cx="119.037147472" cy="206.869900393" r="1" stroke="blue" /><circle cx="198.40592546" cy="73.3775356301" r="1" stroke="blue" /><circle cx="394.092301447" cy="316.167928613" r="1" stroke="blue" /><circle cx="85.8192414067" cy="2.58036071919" r="1" stroke="blue" /><circle cx="76.0513125768" cy="215.05992766" r="1" stroke="blue" /><circle cx="48.5699732948" cy="17.7090272207" r="1" stroke="blue" /><circle cx="78.2386602364" cy="48.465945139" r="1" stroke="blue" /><circle cx="118.22824652" cy="163.687048239" r="1" stroke="blue" /><line stroke="black" x1="394.092301447" x2="48.5699732948" y1="316.167928613" y2="17.7090272207" /><line stroke="black" x1="72.8306023002" x2="394.092301447" y1="14.1539340731" y2="316.167928613" /><line stroke="black" x1="394.092301447" x2="85.8192414067" y1="316.167928613" y2="2.58036071919" /><line stroke="black" x1="307.763902697" x2="48.5699732948" y1="340.754008902" y2="17.7090272207" /><line stroke="black" x1="394.092301447" x2="78.2386602364" y1="316.167928613" y2="48.465945139" /><line stroke="black" x1="108.303191326" x2="394.092301447" y1="18.4384363259" y2="316.167928613" /><line stroke="black" x1="307.763902697" x2="78.2386602364" y1="340.754008902" y2="48.465945139" /><line stroke="black" x1="166.962513605" x2="394.092301447" y1="32.9929920092" y2="316.167928613" /><line stroke="black" x1="331.730146385" x2="78.2386602364" y1="302.462206287" y2="48.465945139" /><line stroke="black" x1="60.5789871873" x2="307.763902697" y1="97.808289952" y2="340.754008902" /><line stroke="black" x1="198.40592546" x2="394.092301447" y1="73.3775356301" y2="316.167928613" /><line stroke="black" x1="36.8864630223" x2="307.763902697" y1="273.830335351" y2="340.754008902" /><line stroke="black" x1="307.763902697" x2="76.0513125768" y1="340.754008902" y2="215.05992766" /><line stroke="black" x1="307.763902697" x2="118.22824652" y1="340.754008902" y2="163.687048239" /><line stroke="black" x1="36.8864630223" x2="48.5699732948" y1="273.830335351" y2="17.7090272207" /><line stroke="black" x1="87.6939095001" x2="307.763902697" y1="209.878125798" y2="340.754008902" /><line stroke="black" x1="192.462874173" x2="48.5699732948" y1="226.290776396" y2="17.7090272207" /><line stroke="black" x1="307.763902697" x2="119.037147472" y1="340.754008902" y2="206.869900393" /><line stroke="black" x1="234.891022447" x2="78.2386602364" y1="200.950604764" y2="48.465945139" /><line stroke="black" x1="307.859396688" x2="394.092301447" y1="117.746551202" y2="316.167928613" /><line stroke="black" x1="76.0513125768" x2="48.5699732948" y1="215.05992766" y2="17.7090272207" /><line stroke="black" x1="307.763902697" x2="196.944368897" y1="340.754008902" y2="178.468893856" /><line stroke="black" x1="234.891022447" x2="394.092301447" y1="200.950604764" y2="316.167928613" /><line stroke="black" x1="60.5789871873" x2="192.462874173" y1="97.808289952" y2="226.290776396" /><line stroke="black" x1="196.944368897" x2="331.730146385" y1="178.468893856" y2="302.462206287" /><line stroke="black" x1="196.944368897" x2="78.2386602364" y1="178.468893856" y2="48.465945139" /><line stroke="black" x1="307.859396688" x2="166.962513605" y1="117.746551202" y2="32.9929920092" /><line stroke="black" x1="307.763902697" x2="192.462874173" y1="340.754008902" y2="226.290776396" /><line stroke="black" x1="234.891022447" x2="331.730146385" y1="200.950604764" y2="302.462206287" /><line stroke="black" x1="198.40592546" x2="85.8192414067" y1="73.3775356301" y2="2.58036071919" /><line stroke="black" x1="60.5789871873" x2="119.037147472" y1="97.808289952" y2="206.869900393" /><line stroke="black" x1="60.5789871873" x2="76.0513125768" y1="97.808289952" y2="215.05992766" /><line stroke="black" x1="60.5789871873" x2="87.6939095001" y1="97.808289952" y2="209.878125798" /><line stroke="black" x1="108.303191326" x2="198.40592546" y1="18.4384363259" y2="73.3775356301" /><line stroke="black" x1="307.763902697" x2="394.092301447" y1="340.754008902" y2="316.167928613" /><line stroke="black" x1="60.5789871873" x2="118.22824652" y1="97.808289952" y2="163.687048239" /><line stroke="black" x1="166.962513605" x2="85.8192414067" y1="32.9929920092" y2="2.58036071919" /><line stroke="black" x1="60.5789871873" x2="48.5699732948" y1="97.808289952" y2="17.7090272207" /><line stroke="black" x1="36.8864630223" x2="76.0513125768" y1="273.830335351" y2="215.05992766" /><line stroke="black" x1="331.730146385" x2="394.092301447" y1="302.462206287" y2="316.167928613" /><line stroke="black" x1="166.962513605" x2="198.40592546" y1="32.9929920092" y2="73.3775356301" /><line stroke="black" x1="307.763902697" x2="331.730146385" y1="340.754008902" y2="302.462206287" /><line stroke="black" x1="119.037147472" x2="118.22824652" y1="206.869900393" y2="163.687048239" /><line stroke="black" x1="48.5699732948" x2="78.2386602364" y1="17.7090272207" y2="48.465945139" /><line stroke="black" x1="85.8192414067" x2="48.5699732948" y1="2.58036071919" y2="17.7090272207" /><line stroke="black" x1="87.6939095001" x2="119.037147472" y1="209.878125798" y2="206.869900393" /><line stroke="black" x1="108.303191326" x2="85.8192414067" y1="18.4384363259" y2="2.58036071919" /><line stroke="black" x1="72.8306023002" x2="48.5699732948" y1="14.1539340731" y2="17.7090272207" /><line stroke="black" x1="72.8306023002" x2="85.8192414067" y1="14.1539340731" y2="2.58036071919" /><line stroke="black" x1="87.6939095001" x2="76.0513125768" y1="209.878125798" y2="215.05992766" /><line stroke="black" x1="36.8864630223" x2="36.8864630223" y1="273.830335351" y2="273.830335351" /><line stroke="black" x1="60.5789871873" x2="60.5789871873" y1="97.808289952" y2="97.808289952" /><line stroke="black" x1="87.6939095001" x2="87.6939095001" y1="209.878125798" y2="209.878125798" /><line stroke="black" x1="307.859396688" x2="307.859396688" y1="117.746551202" y2="117.746551202" /><line stroke="black" x1="307.763902697" x2="307.763902697" y1="340.754008902" y2="340.754008902" /><line stroke="black" x1="192.462874173" x2="192.462874173" y1="226.290776396" y2="226.290776396" /><line stroke="black" x1="108.303191326" x2="108.303191326" y1="18.4384363259" y2="18.4384363259" /><line stroke="black" x1="234.891022447" x2="234.891022447" y1="200.950604764" y2="200.950604764" /><line stroke="black" x1="72.8306023002" x2="72.8306023002" y1="14.1539340731" y2="14.1539340731" /><line stroke="black" x1="166.962513605" x2="166.962513605" y1="32.9929920092" y2="32.9929920092" /><line stroke="black" x1="196.944368897" x2="196.944368897" y1="178.468893856" y2="178.468893856" /><line stroke="black" x1="331.730146385" x2="331.730146385" y1="302.462206287" y2="302.462206287" /><line stroke="black" x1="119.037147472" x2="119.037147472" y1="206.869900393" y2="206.869900393" /><line stroke="black" x1="198.40592546" x2="198.40592546" y1="73.3775356301" y2="73.3775356301" /><line stroke="black" x1="394.092301447" x2="394.092301447" y1="316.167928613" y2="316.167928613" /><line stroke="black" x1="85.8192414067" x2="85.8192414067" y1="2.58036071919" y2="2.58036071919" /><line stroke="black" x1="76.0513125768" x2="76.0513125768" y1="215.05992766" y2="215.05992766" /><line stroke="black" x1="48.5699732948" x2="48.5699732948" y1="17.7090272207" y2="17.7090272207" /><line stroke="black" x1="78.2386602364" x2="78.2386602364" y1="48.465945139" y2="48.465945139" /><line stroke="black" x1="118.22824652" x2="118.22824652" y1="163.687048239" y2="163.687048239" /></svg>