<?xml version="1.0" encoding="utf-8" ?>
<svg baseProfile="full" height="100%" version="1.1" width="100%" xmlns="http://www.w3.org/2000/svg" xmlns:ev="http://www.w3.org/2001/xml-events" xmlns:xlink="http://www.w3.org/1999/xlink"><defs /><circle cx="106.634671014" cy="104.332622594" r="1" stroke="blue" /><circle cx="155.452160753" cy="112.6753931" r="1" stroke="blue" /><circle cx="64.5339690065" cy="197.400904259" r="1" stroke="blue" /><circle cx="77.2535680686" cy="121.440532744" r="1" stroke="blue" /><circle cx="396.791653617" cy="306.288886914" r="1" stroke="blue" /><circle cx="49.0187891688" cy="157.712141576" r="1" stroke="blue" /><circle cx="126.424237146" cy="389.404362419" r="1" stroke="blue" /><circle cx="150.618434364" cy="198.12015451" r="1" stroke="blue" /><circle cx="212.239283705" cy="114.508367465" r="1" stroke="blue" /><circle cx="25.2528941117" cy="335.018644173" r="1" stroke="blue" /><circle cx="194.117191586" cy="61.9862463931" r="1" stroke="blue" /><circle cx="99.5869076478" cy="130.011192982" r="1" stroke="blue" /><circle cx="287.774435042" cy="216.217646525" r="1" stroke="blue" /><circle cx="145.81013069" cy="341.121819313" r="1" stroke="blue" /><circle cx="281.382612995" cy="141.217409023" r="1" stroke="blue" /><circle cx="349.685262027" cy="108.058451343" r="1" stroke="blue" /><circle cx="170.81697257" cy="363.326601614" r="1" stroke="blue" /><circle cx="290.379681497" cy="84.2704274704" r="1" stroke="blue" /><circle cx="243.825866052" cy="308.843567966" r="1" stroke="blue" /><circle cx="310.7247973" cy="22.1419750424" r="1" stroke="blue" /><line stroke="black" x1="106.634671014" x2="106.634671014" y1="104.332622594" y2="104.332622594" /><line stroke="black" x1="106.634671014" x2="155.452160753" y1="104.332622594" y2="112.6753931" /><line stroke="black" x1="106.634671014" x2="64.5339690065" y1="104.332622594" y2="197.400904259" /><line stroke="black" x1="106.634671014" x2="77.2535680686" y1="104.332622594" y2="121.440532744" /><line stroke="black" x1="106.634671014" x2="396.791653617" y1="104.332622594" y2="306.288886914" /><line stroke="black" x1="106.634671014" x2="49.0187891688" y1="104.332622594" y2="157.712141576" /><line stroke="black" x1="106.634671014" x2="126.424237146" y1="104.332622594" y2="389.404362419" /><line stroke="black" x1="106.634671014" x2="150.618434364" y1="104.332622594" y2="198.12015451" /><line stroke="black" x1="106.634671014" x2="212.239283705" y1="104.332622594" y2="114.508367465" /><line stroke="black" x1="106.634671014" x2="25.2528941117" y1="104.332622594" y2="335.018644173" /><line stroke="black" x1="106.634671014" x2="194.117191586" y1="104.332622594" y2="61.9862463931" /><line stroke="black" x1="106.634671014" x2="99.5869076478" y1="104.332622594" y2="130.011192982" /><line stroke="black" x1="106.634671014" x2="287.774435042" y1="104.332622594" y2="216.217646525" /><line stroke="black" x1="106.634671014" x2="145.81013069" y1="104.332622594" y2="341.121819313" /><line stroke="black" x1="106.634671014" x2="281.382612995" y1="104.332622594" y2="141.217409023" /><line stroke="black" x1="106.634671014" x2="349.685262027" y1="104.332622594" y2="108.058451343" /><line stroke="black" x1="106.634671014" x2="170.81697257" y1="104.332622594" y2="363.326601614" /><line stroke="black" x1="106.634671014" x2="290.379681497" y1="104.332622594" y2="84.2704274704" /><line stroke="black" x1="106.634671014" x2="243.825866052" y1="104.332622594" y2="308.843567966" /><line stroke="black" x1="106.634671014" x2="310.7247973" y1="104.332622594" y2="22.1419750424" /><line stroke="black" x1="155.452160753" x2="155.452160753" y1="112.6753931" y2="112.6753931" /><line stroke="black" x1="155.452160753" x2="212.239283705" y1="112.6753931" y2="114.508367465" /><line stroke="black" x1="155.452160753" x2="281.382612995" y1="112.6753931" y2="141.217409023" /><line stroke="black" x1="64.5339690065" x2="64.5339690065" y1="197.400904259" y2="197.400904259" /><line stroke="black" x1="64.5339690065" x2="49.0187891688" y1="197.400904259" y2="157.712141576" /><line stroke="black" x1="64.5339690065" x2="25.2528941117" y1="197.400904259" y2="335.018644173" /><line stroke="black" x1="77.2535680686" x2="77.2535680686" y1="121.440532744" y2="121.440532744" /><line stroke="black" x1="77.2535680686" x2="49.0187891688" y1="121.440532744" y2="157.712141576" /><line stroke="black" x1="396.791653617" x2="396.791653617" y1="306.288886914" y2="306.288886914" /><line stroke="black" x1="396.791653617" x2="126.424237146" y1="306.288886914" y2="389.404362419" /><line stroke="black" x1="396.791653617" x2="287.774435042" y1="306.288886914" y2="216.217646525" /><line stroke="black" x1="396.791653617" x2="281.382612995" y1="306.288886914" y2="141.217409023" /><line stroke="black" x1="396.791653617" x2="349.685262027" y1="306.288886914" y2="108.058451343" /><line stroke="black" x1="396.791653617" x2="170.81697257" y1="306.288886914" y2="363.326601614" /><line stroke="black" x1="396.791653617" x2="243.825866052" y1="306.288886914" y2="308.843567966" /><line stroke="black" x1="49.0187891688" x2="49.0187891688" y1="157.712141576" y2="157.712141576" /><line stroke="black" x1="49.0187891688" x2="25.2528941117" y1="157.712141576" y2="335.018644173" /><line stroke="black" x1="126.424237146" x2="126.424237146" y1="389.404362419" y2="389.404362419" /><line stroke="black" x1="126.424237146" x2="25.2528941117" y1="389.404362419" y2="335.018644173" /><line stroke="black" x1="126.424237146" x2="99.5869076478" y1="389.404362419" y2="130.011192982" /><line stroke="black" x1="126.424237146" x2="145.81013069" y1="389.404362419" y2="341.121819313" /><line stroke="black" x1="126.424237146" x2="170.81697257" y1="389.404362419" y2="363.326601614" /><line stroke="black" x1="150.618434364" x2="150.618434364" y1="198.12015451" y2="198.12015451" /><line stroke="black" x1="150.618434364" x2="170.81697257" y1="198.12015451" y2="363.326601614" /><line stroke="black" x1="150.618434364" x2="243.825866052" y1="198.12015451" y2="308.843567966" /><line stroke="black" x1="212.239283705" x2="212.239283705" y1="114.508367465" y2="114.508367465" /><line stroke="black" x1="212.239283705" x2="281.382612995" y1="114.508367465" y2="141.217409023" /><line stroke="black" x1="212.239283705" x2="349.685262027" y1="114.508367465" y2="108.058451343" /><line stroke="black" x1="25.2528941117" x2="25.2528941117" y1="335.018644173" y2="335.018644173" /><line stroke="black" x1="25.2528941117" x2="99.5869076478" y1="335.018644173" y2="130.011192982" /><line stroke="black" x1="194.117191586" x2="194.117191586" y1="61.9862463931" y2="61.9862463931" /><line stroke="black" x1="194.117191586" x2="310.7247973" y1="61.9862463931" y2="22.1419750424" /><line stroke="black" x1="99.5869076478" x2="99.5869076478" y1="130.011192982" y2="130.011192982" /><line stroke="black" x1="287.774435042" x2="287.774435042" y1="216.217646525" y2="216.217646525" /><line stroke="black" x1="287.774435042" x2="281.382612995" y1="216.217646525" y2="141.217409023" /><line stroke="black" x1="145.81013069" x2="145.81013069" y1="341.121819313" y2="341.121819313" /><line stroke="black" x1="145.81013069" x2="170.81697257" y1="341.121819313" y2="363.326601614" /><line stroke="black" x1="281.382612995" x2="281.382612995" y1="141.217409023" y2="141.217409023" /><line stroke="black" x1="281.382612995" x2="349.685262027" y1="141.217409023" y2="108.058451343" /><line stroke="black" x1="349.685262027" x2="349.685262027" y1="108.058451343" y2="108.058451343" /><line stroke="black" x1="349.685262027" x2="290.379681497" y1="108.058451343" y2="84.2704274704" /><line stroke="black" x1="349.685262027" x2="310.7247973" y1="108.058451343" y2="22.1419750424" /><line stroke="black" x1="170.81697257" x2="170.81697257" y1="363.326601614" y2="363.326601614" /><line stroke="black" x1="170.81697257" x2="243.825866052" y1="363.326601614" y2="308.843567966" /><line stroke="black" x1="290.379681497" x2="290.379681497" y1="84.2704274704" y2="84.2704274704" /><line stroke="black" x1="290.379681497" x2="310.7247973" y1="84.2704274704" y2="22.1419750424" /><line stroke="black" x1="243.825866052" x2="243.825866052" y1="308.843567966" y2="308.843567966" /><line stroke="black" x1="310.7247973" x2="310.7247973" y1="22.1419750424" y2="22.1419750424" /></svg>