<?xml version="1.0" encoding="utf-8" ?>
<svg baseProfile="full" height="100%" version="1.1" width="100%" xmlns="http://www.w3.org/2000/svg" xmlns:ev="http://www.w3.org/2001/xml-events" xmlns:xlink="http://www.w3.org/1999/xlink"><defs /><circle cx="79.1789003972" cy="52.6352597163" r="1" stroke="blue" /><circle cx="95.3048028746" cy="338.138713324" r="1" stroke="blue" /><circle cx="371.241448818" cy="1.65539449085" r="1" stroke="blue" /><circle cx="102.875808785" cy="117.859956353" r="1" stroke="blue" /><circle cx="102.680558792" cy="265.368525633" r="1" stroke="blue" /><circle cx="344.070130154" cy="83.124766546" r="1" stroke="blue" /><circle cx="366.019292498" cy="76.3617735376" r="1" stroke="blue" /><circle cx="216.663264102" cy="7.42195503416" r="1" stroke="blue" /><circle cx="245.905091878" cy="69.7264627306" r="1" stroke="blue" /><circle cx="66.279531232" cy="368.792518055" r="1" stroke="blue" /><circle cx="166.644522477" cy="330.576013761" r="1" stroke="blue" /><circle cx="355.031682753" cy="392.112930937" r="1" stroke="blue" /><circle cx="364.10769815" cy="233.484254706" r="1" stroke="blue" /><circle cx="342.187675233" cy="339.872625549" r="1" stroke="blue" /><circle cx="323.84627865" cy="391.012302347" r="1" stroke="blue" /><circle cx="187.326265808" cy="190.358979043" r="1" stroke="blue" /><circle cx="149.636826209" cy="365.465132963" r="1" stroke="blue" /><circle cx="393.856157594" cy="150.712979873" r="1" stroke="blue" /><circle cx="177.66100652" cy="46.8518279431" r="1" stroke="blue" /><circle cx="342.49620421" cy="344.03917141" r="1" stroke="blue" /><line stroke="black" x1="79.1789003972" x2="79.1789003972" y1="52.6352597163" y2="52.6352597163" /><line stroke="black" x1="95.3048028746" x2="95.3048028746" y1="338.138713324" y2="338.138713324" /><line stroke="black" x1="371.241448818" x2="371.241448818" y1="1.65539449085" y2="1.65539449085" /><line stroke="black" x1="102.875808785" x2="102.875808785" y1="117.859956353" y2="117.859956353" /><line stroke="black" x1="102.680558792" x2="102.680558792" y1="265.368525633" y2="265.368525633" /><line stroke="black" x1="344.070130154" x2="344.070130154" y1="83.124766546" y2="83.124766546" /><line stroke="black" x1="366.019292498" x2="366.019292498" y1="76.3617735376" y2="76.3617735376" /><line stroke="black" x1="216.663264102" x2="216.663264102" y1="7.42195503416" y2="7.42195503416" /><line stroke="black" x1="245.905091878" x2="245.905091878" y1="69.7264627306" y2="69.7264627306" /><line stroke="black" x1="66.279531232" x2="66.279531232" y1="368.792518055" y2="368.792518055" /><line stroke="black" x1="166.644522477" x2="166.644522477" y1="330.576013761" y2="330.576013761" /><line stroke="black" x1="355.031682753" x2="355.031682753" y1="392.112930937" y2="392.112930937" /><line stroke="black" x1="364.10769815" x2="364.10769815" y1="233.484254706" y2="233.484254706" /><line stroke="black" x1="342.187675233" x2="342.187675233" y1="339.872625549" y2="339.872625549" /><line stroke="black" x1="323.84627865" x2="323.84627865" y1="391.012302347" y2="391.012302347" /><line stroke="black" x1="187.326265808" x2="187.326265808" y1="190.358979043" y2="190.358979043" /><line stroke="black" x1="149.636826209" x2="149.636826209" y1="365.465132963" y2="365.465132963" /><line stroke="black" x1="393.856157594" x2="393.856157594" y1="150.712979873" y2="150.712979873" /><line stroke="black" x1="177.66100652" x2="177.66100652" y1="46.8518279431" y2="46.8518279431" /><line stroke="black" x1="342.49620421" x2="342.49620421" y1="344.03917141" y2="344.03917141" /><line stroke="black" x1="342.187675233" x2="342.49620421" y1="339.872625549" y2="344.03917141" /><line stroke="black" x1="344.070130154" x2="366.019292498" y1="83.124766546" y2="76.3617735376" /><line stroke="black" x1="355.031682753" x2="323.84627865" y1="392.112930937" y2="391.012302347" /><line stroke="black" x1="166.644522477" x2="149.636826209" y1="330.576013761" y2="365.465132963" /><line stroke="black" x1="95.3048028746" x2="66.279531232" y1="338.138713324" y2="368.792518055" /><line stroke="black" x1="355.031682753" x2="342.49620421" y1="392.112930937" y2="344.03917141" /><line stroke="black" x1="323.84627865" x2="342.49620421" y1="391.012302347" y2="344.03917141" /><line stroke="black" x1="355.031682753" x2="342.187675233" y1="392.112930937" y2="339.872625549" /><line stroke="black" x1="342.187675233" x2="323.84627865" y1="339.872625549" y2="391.012302347" /><line stroke="black" x1="216.663264102" x2="177.66100652" y1="7.42195503416" y2="46.8518279431" /><line stroke="black" x1="95.3048028746" x2="149.636826209" y1="338.138713324" y2="365.465132963" /><line stroke="black" x1="79.1789003972" x2="102.875808785" y1="52.6352597163" y2="117.859956353" /><line stroke="black" x1="216.663264102" x2="245.905091878" y1="7.42195503416" y2="69.7264627306" /><line stroke="black" x1="95.3048028746" x2="166.644522477" y1="338.138713324" y2="330.576013761" /><line stroke="black" x1="245.905091878" x2="177.66100652" y1="69.7264627306" y2="46.8518279431" /><line stroke="black" x1="95.3048028746" x2="102.680558792" y1="338.138713324" y2="265.368525633" /><line stroke="black" x1="371.241448818" x2="366.019292498" y1="1.65539449085" y2="76.3617735376" /><line stroke="black" x1="366.019292498" x2="393.856157594" y1="76.3617735376" y2="150.712979873" /><line stroke="black" x1="344.070130154" x2="393.856157594" y1="83.124766546" y2="150.712979873" /><line stroke="black" x1="66.279531232" x2="149.636826209" y1="368.792518055" y2="365.465132963" /><line stroke="black" x1="371.241448818" x2="344.070130154" y1="1.65539449085" y2="83.124766546" /><line stroke="black" x1="364.10769815" x2="393.856157594" y1="233.484254706" y2="150.712979873" /><line stroke="black" x1="102.680558792" x2="166.644522477" y1="265.368525633" y2="330.576013761" /><line stroke="black" x1="79.1789003972" x2="177.66100652" y1="52.6352597163" y2="46.8518279431" /><line stroke="black" x1="344.070130154" x2="245.905091878" y1="83.124766546" y2="69.7264627306" /><line stroke="black" x1="102.875808785" x2="177.66100652" y1="117.859956353" y2="46.8518279431" /><line stroke="black" x1="364.10769815" x2="342.187675233" y1="233.484254706" y2="339.872625549" /><line stroke="black" x1="102.680558792" x2="66.279531232" y1="265.368525633" y2="368.792518055" /><line stroke="black" x1="102.875808785" x2="187.326265808" y1="117.859956353" y2="190.358979043" /><line stroke="black" x1="102.680558792" x2="187.326265808" y1="265.368525633" y2="190.358979043" /><line stroke="black" x1="245.905091878" x2="187.326265808" y1="69.7264627306" y2="190.358979043" /><line stroke="black" x1="371.241448818" x2="245.905091878" y1="1.65539449085" y2="69.7264627306" /><line stroke="black" x1="166.644522477" x2="187.326265808" y1="330.576013761" y2="190.358979043" /><line stroke="black" x1="79.1789003972" x2="216.663264102" y1="52.6352597163" y2="7.42195503416" /><line stroke="black" x1="187.326265808" x2="177.66100652" y1="190.358979043" y2="46.8518279431" /><line stroke="black" x1="102.875808785" x2="102.680558792" y1="117.859956353" y2="265.368525633" /><line stroke="black" x1="371.241448818" x2="393.856157594" y1="1.65539449085" y2="150.712979873" /><line stroke="black" x1="344.070130154" x2="364.10769815" y1="83.124766546" y2="233.484254706" /><line stroke="black" x1="371.241448818" x2="216.663264102" y1="1.65539449085" y2="7.42195503416" /><line stroke="black" x1="355.031682753" x2="364.10769815" y1="392.112930937" y2="233.484254706" /><line stroke="black" x1="364.10769815" x2="323.84627865" y1="233.484254706" y2="391.012302347" /><line stroke="black" x1="166.644522477" x2="323.84627865" y1="330.576013761" y2="391.012302347" /><line stroke="black" x1="323.84627865" x2="149.636826209" y1="391.012302347" y2="365.465132963" /><line stroke="black" x1="364.10769815" x2="187.326265808" y1="233.484254706" y2="190.358979043" /><line stroke="black" x1="344.070130154" x2="187.326265808" y1="83.124766546" y2="190.358979043" /><line stroke="black" x1="79.1789003972" x2="102.680558792" y1="52.6352597163" y2="265.368525633" /><line stroke="black" x1="166.644522477" x2="364.10769815" y1="330.576013761" y2="233.484254706" /><line stroke="black" x1="355.031682753" x2="393.856157594" y1="392.112930937" y2="150.712979873" /><line stroke="black" x1="66.279531232" x2="323.84627865" y1="368.792518055" y2="391.012302347" /><line stroke="black" x1="79.1789003972" x2="66.279531232" y1="52.6352597163" y2="368.792518055" /></svg>