<?xml version="1.0" encoding="utf-8" ?>
<svg baseProfile="full" height="100%" version="1.1" width="100%" xmlns="http://www.w3.org/2000/svg" xmlns:ev="http://www.w3.org/2001/xml-events" xmlns:xlink="http://www.w3.org/1999/xlink"><defs /><rect fill="gray" height="30" stroke="black" width="30" x="30" y="90" /><rect fill="gray" height="30" stroke="black" width="30" x="90" y="0" /><rect fill="gray" height="30" stroke="black" width="30" x="150" y="120" /><rect fill="white" height="30" stroke="black" width="30" x="60" y="30" /><rect fill="white" height="30" stroke="black" width="30" x="180" y="60" /><rect fill="gray" height="30" stroke="black" width="30" x="150" y="30" /><rect fill="gray" height="30" stroke="black" width="30" x="0" y="90" /><rect fill="white" height="30" stroke="black" width="30" x="60" y="150" /><rect fill="white" height="30" stroke="black" width="30" x="120" y="0" /><rect fill="gray" height="30" stroke="black" width="30" x="30" y="60" /><rect fill="gray" height="30" stroke="black" width="30" x="90" y="90" /><rect fill="white" height="30" stroke="black" width="30" x="120" y="120" /><rect fill="white" height="30" stroke="black" width="30" x="180" y="90" /><rect fill="gray" height="30" stroke="black" width="30" x="30" y="150" /><rect fill="gray" height="30" stroke="black" width="30" x="150" y="0" /><rect fill="white" height="30" stroke="black" width="30" x="60" y="60" /><rect fill="white" height="30" stroke="black" width="30" x="90" y="150" /><rect fill="white" height="30" stroke="black" width="30" x="120" y="30" /><rect fill="gray" height="30" stroke="black" width="30" x="30" y="30" /><rect fill="white" height="30" stroke="black" width="30" x="180" y="120" /><rect fill="gray" height="30" stroke="black" width="30" x="90" y="60" /><rect fill="white" height="30" stroke="black" width="30" x="0" y="0" /><rect fill="white" height="30" stroke="black" width="30" x="120" y="150" /><rect fill="white" height="30" stroke="black" width="30" x="0" y="120" /><rect fill="gray" height="30" stroke="black" width="30" x="180" y="0" /><rect fill="gray" height="30" stroke="black" width="30" x="30" y="120" /><rect fill="gray" height="30" stroke="black" width="30" x="150" y="150" /><rect fill="gray" height="30" stroke="black" width="30" x="60" y="90" /><rect fill="gray" height="30" stroke="black" width="30" x="120" y="60" /><rect fill="white" height="30" stroke="black" width="30" x="30" y="0" /><rect fill="white" height="30" stroke="black" width="30" x="180" y="150" /><rect fill="gray" height="30" stroke="black" width="30" x="150" y="90" /><rect fill="white" height="30" stroke="black" width="30" x="0" y="30" /><rect fill="gray" height="30" stroke="black" width="30" x="90" y="120" /><rect fill="white" height="30" stroke="black" width="30" x="180" y="30" /><rect fill="gray" height="30" stroke="black" width="30" x="90" y="30" /><rect fill="white" height="30" stroke="black" width="30" x="60" y="120" /><rect fill="white" height="30" stroke="black" width="30" x="60" y="0" /><rect fill="white" height="30" stroke="black" width="30" x="120" y="90" /><rect fill="white" height="30" stroke="black" width="30" x="0" y="150" /><rect fill="gray" height="30" stroke="black" width="30" x="150" y="60" /><rect fill="white" height="30" stroke="black" width="30" x="0" y="60" /><line stroke="blue" x1="195" x2="195" y1="105" y2="75" /><line stroke="blue" x1="195" x2="195" y1="75" y2="45" /><line stroke="blue" x1="195" x2="165" y1="45" y2="45" /><line stroke="blue" x1="165" x2="135" y1="45" y2="45" /><line stroke="blue" x1="135" x2="105" y1="45" y2="45" /><line stroke="blue" x1="105" x2="75" y1="45" y2="45" /><line stroke="blue" x1="75" x2="75" y1="45" y2="15" /><line stroke="blue" x1="75" x2="45" y1="15" y2="15" /><line stroke="blue" x1="45" x2="15" y1="15" y2="15" /><line stroke="blue" x1="15" x2="15" y1="15" y2="45" /><line stroke="blue" x1="15" x2="15" y1="45" y2="75" /><text font-size="30" x="4" y="86">A</text><text font-size="30" x="186" y="116">B</text></svg>