<?xml version="1.0" encoding="utf-8" ?>
<svg baseProfile="full" height="100%" version="1.1" width="100%" xmlns="http://www.w3.org/2000/svg" xmlns:ev="http://www.w3.org/2001/xml-events" xmlns:xlink="http://www.w3.org/1999/xlink"><defs /><line stroke="black" x1="300.0" x2="305.0" y1="300.0" y2="300.0" /><line stroke="black" x1="305.0" x2="307.5" y1="300.0" y2="295.669872981" /><line stroke="black" x1="307.5" x2="305.0" y1="295.669872981" y2="291.339745962" /><line stroke="black" x1="305.0" x2="307.5" y1="291.339745962" y2="287.009618943" /><line stroke="black" x1="307.5" x2="312.5" y1="287.009618943" y2="287.009618943" /><line stroke="black" x1="312.5" x2="315.0" y1="287.009618943" y2="291.339745962" /><line stroke="black" x1="315.0" x2="312.5" y1="291.339745962" y2="295.669872981" /><line stroke="black" x1="312.5" x2="315.0" y1="295.669872981" y2="300.0" /><line stroke="black" x1="315.0" x2="320.0" y1="300.0" y2="300.0" /><line stroke="black" x1="320.0" x2="322.5" y1="300.0" y2="295.669872981" /><line stroke="black" x1="322.5" x2="327.5" y1="295.669872981" y2="295.669872981" /><line stroke="black" x1="327.5" x2="330.0" y1="295.669872981" y2="300.0" /><line stroke="black" x1="330.0" x2="335.0" y1="300.0" y2="300.0" /><line stroke="black" x1="335.0" x2="337.5" y1="300.0" y2="295.669872981" /><line stroke="black" x1="337.5" x2="335.0" y1="295.669872981" y2="291.339745962" /><line stroke="black" x1="335.0" x2="330.0" y1="291.339745962" y2="291.339745962" /><line stroke="black" x1="330.0" x2="327.5" y1="291.339745962" y2="287.009618943" /><line stroke="black" x1="327.5" x2="330.0" y1="287.009618943" y2="282.679491924" /><line stroke="black" x1="330.0" x2="327.5" y1="282.679491924" y2="278.349364905" /><line stroke="black" x1="327.5" x2="322.5" y1="278.349364905" y2="278.349364905" /><line stroke="black" x1="322.5" x2="320.0" y1="278.349364905" y2="282.679491924" /><line stroke="black" x1="320.0" x2="315.0" y1="282.679491924" y2="282.679491924" /><line stroke="black" x1="315.0" x2="312.5" y1="282.679491924" y2="278.349364905" /><line stroke="black" x1="312.5" x2="315.0" y1="278.349364905" y2="274.019237886" /><line stroke="black" x1="315.0" x2="320.0" y1="274.019237886" y2="274.019237886" /><line stroke="black" x1="320.0" x2="322.5" y1="274.019237886" y2="269.689110868" /><line stroke="black" x1="322.5" x2="320.0" y1="269.689110868" y2="265.358983849" /><line stroke="black" x1="320.0" x2="322.5" y1="265.358983849" y2="261.02885683" /><line stroke="black" x1="322.5" x2="327.5" y1="261.02885683" y2="261.02885683" /><line stroke="black" x1="327.5" x2="330.0" y1="261.02885683" y2="265.358983849" /><line stroke="black" x1="330.0" x2="335.0" y1="265.358983849" y2="265.358983849" /><line stroke="black" x1="335.0" x2="337.5" y1="265.358983849" y2="261.02885683" /><line stroke="black" x1="337.5" x2="335.0" y1="261.02885683" y2="256.698729811" /><line stroke="black" x1="335.0" x2="330.0" y1="256.698729811" y2="256.698729811" /><line stroke="black" x1="330.0" x2="327.5" y1="256.698729811" y2="252.368602792" /><line stroke="black" x1="327.5" x2="330.0" y1="252.368602792" y2="248.038475773" /><line stroke="black" x1="330.0" x2="335.0" y1="248.038475773" y2="248.038475773" /><line stroke="black" x1="335.0" x2="337.5" y1="248.038475773" y2="243.708348754" /><line stroke="black" x1="337.5" x2="335.0" y1="243.708348754" y2="239.378221735" /><line stroke="black" x1="335.0" x2="337.5" y1="239.378221735" y2="235.048094716" /><line stroke="black" x1="337.5" x2="342.5" y1="235.048094716" y2="235.048094716" /><line stroke="black" x1="342.5" x2="345.0" y1="235.048094716" y2="239.378221735" /><line stroke="black" x1="345.0" x2="342.5" y1="239.378221735" y2="243.708348754" /><line stroke="black" x1="342.5" x2="345.0" y1="243.708348754" y2="248.038475773" /><line stroke="black" x1="345.0" x2="350.0" y1="248.038475773" y2="248.038475773" /><line stroke="black" x1="350.0" x2="352.5" y1="248.038475773" y2="252.368602792" /><line stroke="black" x1="352.5" x2="350.0" y1="252.368602792" y2="256.698729811" /><line stroke="black" x1="350.0" x2="345.0" y1="256.698729811" y2="256.698729811" /><line stroke="black" x1="345.0" x2="342.5" y1="256.698729811" y2="261.02885683" /><line stroke="black" x1="342.5" x2="345.0" y1="261.02885683" y2="265.358983849" /><line stroke="black" x1="345.0" x2="350.0" y1="265.358983849" y2="265.358983849" /><line stroke="black" x1="350.0" x2="352.5" y1="265.358983849" y2="261.02885683" /><line stroke="black" x1="352.5" x2="357.5" y1="261.02885683" y2="261.02885683" /><line stroke="black" x1="357.5" x2="360.0" y1="261.02885683" y2="265.358983849" /><line stroke="black" x1="360.0" x2="357.5" y1="265.358983849" y2="269.689110868" /><line stroke="black" x1="357.5" x2="360.0" y1="269.689110868" y2="274.019237886" /><line stroke="black" x1="360.0" x2="365.0" y1="274.019237886" y2="274.019237886" /><line stroke="black" x1="365.0" x2="367.5" y1="274.019237886" y2="278.349364905" /><line stroke="black" x1="367.5" x2="365.0" y1="278.349364905" y2="282.679491924" /><line stroke="black" x1="365.0" x2="360.0" y1="282.679491924" y2="282.679491924" /><line stroke="black" x1="360.0" x2="357.5" y1="282.679491924" y2="278.349364905" /><line stroke="black" x1="357.5" x2="352.5" y1="278.349364905" y2="278.349364905" /><line stroke="black" x1="352.5" x2="350.0" y1="278.349364905" y2="282.679491924" /><line stroke="black" x1="350.0" x2="352.5" y1="282.679491924" y2="287.009618943" /><line stroke="black" x1="352.5" x2="350.0" y1="287.009618943" y2="291.339745962" /><line stroke="black" x1="350.0" x2="345.0" y1="291.339745962" y2="291.339745962" /><line stroke="black" x1="345.0" x2="342.5" y1="291.339745962" y2="295.669872981" /><line stroke="black" x1="342.5" x2="345.0" y1="295.669872981" y2="300.0" /><line stroke="black" x1="345.0" x2="350.0" y1="300.0" y2="300.0" /><line stroke="black" x1="350.0" x2="352.5" y1="300.0" y2="295.669872981" /><line stroke="black" x1="352.5" x2="357.5" y1="295.669872981" y2="295.669872981" /><line stroke="black" x1="357.5" x2="360.0" y1="295.669872981" y2="300.0" /><line stroke="black" x1="360.0" x2="365.0" y1="300.0" y2="300.0" /><line stroke="black" x1="365.0" x2="367.5" y1="300.0" y2="295.669872981" /><line stroke="black" x1="367.5" x2="365.0" y1="295.669872981" y2="291.339745962" /><line stroke="black" x1="365.0" x2="367.5" y1="291.339745962" y2="287.009618943" /><line stroke="black" x1="367.5" x2="372.5" y1="287.009618943" y2="287.009618943" /><line stroke="black" x1="372.5" x2="375.0" y1="287.009618943" y2="291.339745962" /><line stroke="black" x1="375.0" x2="372.5" y1="291.339745962" y2="295.669872981" /><line stroke="black" x1="372.5" x2="375.0" y1="295.669872981" y2="300.0" /><line stroke="black" x1="375.0" x2="380.0" y1="300.0" y2="300.0" /><line stroke="black" x1="380.0" x2="382.5" y1="300.0" y2="295.669872981" /><line stroke="black" x1="382.5" x2="387.5" y1="295.669872981" y2="295.669872981" /><line stroke="black" x1="387.5" x2="390.0" y1="295.669872981" y2="300.0" /><line stroke="black" x1="390.0" x2="395.0" y1="300.0" y2="300.0" /><line stroke="black" x1="395.0" x2="397.5" y1="300.0" y2="295.669872981" /><line stroke="black" x1="397.5" x2="395.0" y1="295.669872981" y2="291.339745962" /><line stroke="black" x1="395.0" x2="390.0" y1="291.339745962" y2="291.339745962" /><line stroke="black" x1="390.0" x2="387.5" y1="291.339745962" y2="287.009618943" /><line stroke="black" x1="387.5" x2="390.0" y1="287.009618943" y2="282.679491924" /><line stroke="black" x1="390.0" x2="395.0" y1="282.679491924" y2="282.679491924" /><line stroke="black" x1="395.0" x2="397.5" y1="282.679491924" y2="278.349364905" /><line stroke="black" x1="397.5" x2="395.0" y1="278.349364905" y2="274.019237886" /><line stroke="black" x1="395.0" x2="397.5" y1="274.019237886" y2="269.689110868" /><line stroke="black" x1="397.5" x2="402.5" y1="269.689110868" y2="269.689110868" /><line stroke="black" x1="402.5" x2="405.0" y1="269.689110868" y2="274.019237886" /><line stroke="black" x1="405.0" x2="402.5" y1="274.019237886" y2="278.349364905" /><line stroke="black" x1="402.5" x2="405.0" y1="278.349364905" y2="282.679491924" /><line stroke="black" x1="405.0" x2="410.0" y1="282.679491924" y2="282.679491924" /><line stroke="black" x1="410.0" x2="412.5" y1="282.679491924" y2="287.009618943" /><line stroke="black" x1="412.5" x2="410.0" y1="287.009618943" y2="291.339745962" /><line stroke="black" x1="410.0" x2="405.0" y1="291.339745962" y2="291.339745962" /><line stroke="black" x1="405.0" x2="402.5" y1="291.339745962" y2="295.669872981" /><line stroke="black" x1="402.5" x2="405.0" y1="295.669872981" y2="300.0" /><line stroke="black" x1="405.0" x2="410.0" y1="300.0" y2="300.0" /><line stroke="black" x1="410.0" x2="412.5" y1="300.0" y2="295.669872981" /><line stroke="black" x1="412.5" x2="417.5" y1="295.669872981" y2="295.669872981" /><line stroke="black" x1="417.5" x2="420.0" y1="295.669872981" y2="300.0" /><line stroke="black" x1="420.0" x2="425.0" y1="300.0" y2="300.0" /><line stroke="black" x1="425.0" x2="427.5" y1="300.0" y2="295.669872981" /><line stroke="black" x1="427.5" x2="425.0" y1="295.669872981" y2="291.339745962" /><line stroke="black" x1="425.0" x2="427.5" y1="291.339745962" y2="287.009618943" /><line stroke="black" x1="427.5" x2="432.5" y1="287.009618943" y2="287.009618943" /><line stroke="black" x1="432.5" x2="435.0" y1="287.009618943" y2="291.339745962" /><line stroke="black" x1="435.0" x2="432.5" y1="291.339745962" y2="295.669872981" /><line stroke="black" x1="432.5" x2="435.0" y1="295.669872981" y2="300.0" /><line stroke="black" x1="435.0" x2="440.0" y1="300.0" y2="300.0" /><line stroke="black" x1="440.0" x2="442.5" y1="300.0" y2="295.669872981" /><line stroke="black" x1="442.5" x2="447.5" y1="295.669872981" y2="295.669872981" /><line stroke="black" x1="447.5" x2="450.0" y1="295.669872981" y2="300.0" /><line stroke="black" x1="450.0" x2="455.0" y1="300.0" y2="300.0" /><line stroke="black" x1="455.0" x2="457.5" y1="300.0" y2="295.669872981" /><line stroke="black" x1="457.5" x2="455.0" y1="295.669872981" y2="291.339745962" /><line stroke="black" x1="455.0" x2="450.0" y1="291.339745962" y2="291.339745962" /><line stroke="black" x1="450.0" x2="447.5" y1="291.339745962" y2="287.009618943" /><line stroke="black" x1="447.5" x2="450.0" y1="287.009618943" y2="282.679491924" /><line stroke="black" x1="450.0" x2="447.5" y1="282.679491924" y2="278.349364905" /><line stroke="black" x1="447.5" x2="442.5" y1="278.349364905" y2="278.349364905" /><line stroke="black" x1="442.5" x2="440.0" y1="278.349364905" y2="282.679491924" /><line stroke="black" x1="440.0" x2="435.0" y1="282.679491924" y2="282.679491924" /><line stroke="black" x1="435.0" x2="432.5" y1="282.679491924" y2="278.349364905" /><line stroke="black" x1="432.5" x2="435.0" y1="278.349364905" y2="274.019237886" /><line stroke="black" x1="435.0" x2="440.0" y1="274.019237886" y2="274.019237886" /><line stroke="black" x1="440.0" x2="442.5" y1="274.019237886" y2="269.689110868" /><line stroke="black" x1="442.5" x2="440.0" y1="269.689110868" y2="265.358983849" /><line stroke="black" x1="440.0" x2="435.0" y1="265.358983849" y2="265.358983849" /><line stroke="black" x1="435.0" x2="432.5" y1="265.358983849" y2="261.02885683" /><line stroke="black" x1="432.5" x2="435.0" y1="261.02885683" y2="256.698729811" /><line stroke="black" x1="435.0" x2="432.5" y1="256.698729811" y2="252.368602792" /><line stroke="black" x1="432.5" x2="427.5" y1="252.368602792" y2="252.368602792" /><line stroke="black" x1="427.5" x2="425.0" y1="252.368602792" y2="256.698729811" /><line stroke="black" x1="425.0" x2="427.5" y1="256.698729811" y2="261.02885683" /><line stroke="black" x1="427.5" x2="425.0" y1="261.02885683" y2="265.358983849" /><line stroke="black" x1="425.0" x2="420.0" y1="265.358983849" y2="265.358983849" /><line stroke="black" x1="420.0" x2="417.5" y1="265.358983849" y2="261.02885683" /><line stroke="black" x1="417.5" x2="412.5" y1="261.02885683" y2="261.02885683" /><line stroke="black" x1="412.5" x2="410.0" y1="261.02885683" y2="265.358983849" /><line stroke="black" x1="410.0" x2="405.0" y1="265.358983849" y2="265.358983849" /><line stroke="black" x1="405.0" x2="402.5" y1="265.358983849" y2="261.02885683" /><line stroke="black" x1="402.5" x2="405.0" y1="261.02885683" y2="256.698729811" /><line stroke="black" x1="405.0" x2="410.0" y1="256.698729811" y2="256.698729811" /><line stroke="black" x1="410.0" x2="412.5" y1="256.698729811" y2="252.368602792" /><line stroke="black" x1="412.5" x2="410.0" y1="252.368602792" y2="248.038475773" /><line stroke="black" x1="410.0" x2="412.5" y1="248.038475773" y2="243.708348754" /><line stroke="black" x1="412.5" x2="417.5" y1="243.708348754" y2="243.708348754" /><line stroke="black" x1="417.5" x2="420.0" y1="243.708348754" y2="248.038475773" /><line stroke="black" x1="420.0" x2="425.0" y1="248.038475773" y2="248.038475773" /><line stroke="black" x1="425.0" x2="427.5" y1="248.038475773" y2="243.708348754" /><line stroke="black" x1="427.5" x2="425.0" y1="243.708348754" y2="239.378221735" /><line stroke="black" x1="425.0" x2="420.0" y1="239.378221735" y2="239.378221735" /><line stroke="black" x1="420.0" x2="417.5" y1="239.378221735" y2="235.048094716" /><line stroke="black" x1="417.5" x2="420.0" y1="235.048094716" y2="230.717967697" /><line stroke="black" x1="420.0" x2="417.5" y1="230.717967697" y2="226.387840678" /><line stroke="black" x1="417.5" x2="412.5" y1="226.387840678" y2="226.387840678" /><line stroke="black" x1="412.5" x2="410.0" y1="226.387840678" y2="230.717967697" /><line stroke="black" x1="410.0" x2="405.0" y1="230.717967697" y2="230.717967697" /><line stroke="black" x1="405.0" x2="402.5" y1="230.717967697" y2="226.387840678" /><line stroke="black" x1="402.5" x2="405.0" y1="226.387840678" y2="222.057713659" /><line stroke="black" x1="405.0" x2="410.0" y1="222.057713659" y2="222.057713659" /><line stroke="black" x1="410.0" x2="412.5" y1="222.057713659" y2="217.72758664" /><line stroke="black" x1="412.5" x2="410.0" y1="217.72758664" y2="213.397459622" /><line stroke="black" x1="410.0" x2="405.0" y1="213.397459622" y2="213.397459622" /><line stroke="black" x1="405.0" x2="402.5" y1="213.397459622" y2="209.067332603" /><line stroke="black" x1="402.5" x2="405.0" y1="209.067332603" y2="204.737205584" /><line stroke="black" x1="405.0" x2="402.5" y1="204.737205584" y2="200.407078565" /><line stroke="black" x1="402.5" x2="397.5" y1="200.407078565" y2="200.407078565" /><line stroke="black" x1="397.5" x2="395.0" y1="200.407078565" y2="204.737205584" /><line stroke="black" x1="395.0" x2="397.5" y1="204.737205584" y2="209.067332603" /><line stroke="black" x1="397.5" x2="395.0" y1="209.067332603" y2="213.397459622" /><line stroke="black" x1="395.0" x2="390.0" y1="213.397459622" y2="213.397459622" /><line stroke="black" x1="390.0" x2="387.5" y1="213.397459622" y2="217.72758664" /><line stroke="black" x1="387.5" x2="390.0" y1="217.72758664" y2="222.057713659" /><line stroke="black" x1="390.0" x2="395.0" y1="222.057713659" y2="222.057713659" /><line stroke="black" x1="395.0" x2="397.5" y1="222.057713659" y2="226.387840678" /><line stroke="black" x1="397.5" x2="395.0" y1="226.387840678" y2="230.717967697" /><line stroke="black" x1="395.0" x2="390.0" y1="230.717967697" y2="230.717967697" /><line stroke="black" x1="390.0" x2="387.5" y1="230.717967697" y2="226.387840678" /><line stroke="black" x1="387.5" x2="382.5" y1="226.387840678" y2="226.387840678" /><line stroke="black" x1="382.5" x2="380.0" y1="226.387840678" y2="230.717967697" /><line stroke="black" x1="380.0" x2="375.0" y1="230.717967697" y2="230.717967697" /><line stroke="black" x1="375.0" x2="372.5" y1="230.717967697" y2="226.387840678" /><line stroke="black" x1="372.5" x2="375.0" y1="226.387840678" y2="222.057713659" /><line stroke="black" x1="375.0" x2="372.5" y1="222.057713659" y2="217.72758664" /><line stroke="black" x1="372.5" x2="367.5" y1="217.72758664" y2="217.72758664" /><line stroke="black" x1="367.5" x2="365.0" y1="217.72758664" y2="222.057713659" /><line stroke="black" x1="365.0" x2="367.5" y1="222.057713659" y2="226.387840678" /><line stroke="black" x1="367.5" x2="365.0" y1="226.387840678" y2="230.717967697" /><line stroke="black" x1="365.0" x2="360.0" y1="230.717967697" y2="230.717967697" /><line stroke="black" x1="360.0" x2="357.5" y1="230.717967697" y2="226.387840678" /><line stroke="black" x1="357.5" x2="352.5" y1="226.387840678" y2="226.387840678" /><line stroke="black" x1="352.5" x2="350.0" y1="226.387840678" y2="230.717967697" /><line stroke="black" x1="350.0" x2="345.0" y1="230.717967697" y2="230.717967697" /><line stroke="black" x1="345.0" x2="342.5" y1="230.717967697" y2="226.387840678" /><line stroke="black" x1="342.5" x2="345.0" y1="226.387840678" y2="222.057713659" /><line stroke="black" x1="345.0" x2="350.0" y1="222.057713659" y2="222.057713659" /><line stroke="black" x1="350.0" x2="352.5" y1="222.057713659" y2="217.72758664" /><line stroke="black" x1="352.5" x2="350.0" y1="217.72758664" y2="213.397459622" /><line stroke="black" x1="350.0" x2="352.5" y1="213.397459622" y2="209.067332603" /><line stroke="black" x1="352.5" x2="357.5" y1="209.067332603" y2="209.067332603" /><line stroke="black" x1="357.5" x2="360.0" y1="209.067332603" y2="213.397459622" /><line stroke="black" x1="360.0" x2="365.0" y1="213.397459622" y2="213.397459622" /><line stroke="black" x1="365.0" x2="367.5" y1="213.397459622" y2="209.067332603" /><line stroke="black" x1="367.5" x2="365.0" y1="209.067332603" y2="204.737205584" /><line stroke="black" x1="365.0" x2="360.0" y1="204.737205584" y2="204.737205584" /><line stroke="black" x1="360.0" x2="357.5" y1="204.737205584" y2="200.407078565" /><line stroke="black" x1="357.5" x2="360.0" y1="200.407078565" y2="196.076951546" /><line stroke="black" x1="360.0" x2="365.0" y1="196.076951546" y2="196.076951546" /><line stroke="black" x1="365.0" x2="367.5" y1="196.076951546" y2="191.746824527" /><line stroke="black" x1="367.5" x2="365.0" y1="191.746824527" y2="187.416697508" /><line stroke="black" x1="365.0" x2="367.5" y1="187.416697508" y2="183.086570489" /><line stroke="black" x1="367.5" x2="372.5" y1="183.086570489" y2="183.086570489" /><line stroke="black" x1="372.5" x2="375.0" y1="183.086570489" y2="187.416697508" /><line stroke="black" x1="375.0" x2="372.5" y1="187.416697508" y2="191.746824527" /><line stroke="black" x1="372.5" x2="375.0" y1="191.746824527" y2="196.076951546" /><line stroke="black" x1="375.0" x2="380.0" y1="196.076951546" y2="196.076951546" /><line stroke="black" x1="380.0" x2="382.5" y1="196.076951546" y2="191.746824527" /><line stroke="black" x1="382.5" x2="387.5" y1="191.746824527" y2="191.746824527" /><line stroke="black" x1="387.5" x2="390.0" y1="191.746824527" y2="196.076951546" /><line stroke="black" x1="390.0" x2="395.0" y1="196.076951546" y2="196.076951546" /><line stroke="black" x1="395.0" x2="397.5" y1="196.076951546" y2="191.746824527" /><line stroke="black" x1="397.5" x2="395.0" y1="191.746824527" y2="187.416697508" /><line stroke="black" x1="395.0" x2="390.0" y1="187.416697508" y2="187.416697508" /><line stroke="black" x1="390.0" x2="387.5" y1="187.416697508" y2="183.086570489" /><line stroke="black" x1="387.5" x2="390.0" y1="183.086570489" y2="178.75644347" /><line stroke="black" x1="390.0" x2="387.5" y1="178.75644347" y2="174.426316451" /><line stroke="black" x1="387.5" x2="382.5" y1="174.426316451" y2="174.426316451" /><line stroke="black" x1="382.5" x2="380.0" y1="174.426316451" y2="178.75644347" /><line stroke="black" x1="380.0" x2="375.0" y1="178.75644347" y2="178.75644347" /><line stroke="black" x1="375.0" x2="372.5" y1="178.75644347" y2="174.426316451" /><line stroke="black" x1="372.5" x2="375.0" y1="174.426316451" y2="170.096189432" /><line stroke="black" x1="375.0" x2="380.0" y1="170.096189432" y2="170.096189432" /><line stroke="black" x1="380.0" x2="382.5" y1="170.096189432" y2="165.766062413" /><line stroke="black" x1="382.5" x2="380.0" y1="165.766062413" y2="161.435935394" /></svg>