<?xml version="1.0" encoding="utf-8" ?>
<svg baseProfile="full" height="100%" version="1.1" width="100%" xmlns="http://www.w3.org/2000/svg" xmlns:ev="http://www.w3.org/2001/xml-events" xmlns:xlink="http://www.w3.org/1999/xlink"><defs /><line stroke="black" x1="0" x2="250" y1="250" y2="250" /><line stroke="black" x1="8" x2="250" y1="250" y2="242" /><line stroke="black" x1="16" x2="250" y1="250" y2="234" /><line stroke="black" x1="24" x2="250" y1="250" y2="226" /><line stroke="black" x1="32" x2="250" y1="250" y2="218" /><line stroke="black" x1="40" x2="250" y1="250" y2="210" /><line stroke="black" x1="48" x2="250" y1="250" y2="202" /><line stroke="black" x1="56" x2="250" y1="250" y2="194" /><line stroke="black" x1="64" x2="250" y1="250" y2="186" /><line stroke="black" x1="72" x2="250" y1="250" y2="178" /><line stroke="black" x1="80" x2="250" y1="250" y2="170" /><line stroke="black" x1="88" x2="250" y1="250" y2="162" /><line stroke="black" x1="96" x2="250" y1="250" y2="154" /><line stroke="black" x1="104" x2="250" y1="250" y2="146" /><line stroke="black" x1="112" x2="250" y1="250" y2="138" /><line stroke="black" x1="120" x2="250" y1="250" y2="130" /><line stroke="black" x1="128" x2="250" y1="250" y2="122" /><line stroke="black" x1="136" x2="250" y1="250" y2="114" /><line stroke="black" x1="144" x2="250" y1="250" y2="106" /><line stroke="black" x1="152" x2="250" y1="250" y2="98" /><line stroke="black" x1="160" x2="250" y1="250" y2="90" /><line stroke="black" x1="168" x2="250" y1="250" y2="82" /><line stroke="black" x1="176" x2="250" y1="250" y2="74" /><line stroke="black" x1="184" x2="250" y1="250" y2="66" /><line stroke="black" x1="192" x2="250" y1="250" y2="58" /><line stroke="black" x1="200" x2="250" y1="250" y2="50" /><line stroke="black" x1="208" x2="250" y1="250" y2="42" /><line stroke="black" x1="216" x2="250" y1="250" y2="34" /><line stroke="black" x1="224" x2="250" y1="250" y2="26" /><line stroke="black" x1="232" x2="250" y1="250" y2="18" /><line stroke="black" x1="250" x2="250" y1="0" y2="250" /><line stroke="black" x1="250" x2="258" y1="8" y2="250" /><line stroke="black" x1="250" x2="266" y1="16" y2="250" /><line stroke="black" x1="250" x2="274" y1="24" y2="250" /><line stroke="black" x1="250" x2="282" y1="32" y2="250" /><line stroke="black" x1="250" x2="290" y1="40" y2="250" /><line stroke="black" x1="250" x2="298" y1="48" y2="250" /><line stroke="black" x1="250" x2="306" y1="56" y2="250" /><line stroke="black" x1="250" x2="314" y1="64" y2="250" /><line stroke="black" x1="250" x2="322" y1="72" y2="250" /><line stroke="black" x1="250" x2="330" y1="80" y2="250" /><line stroke="black" x1="250" x2="338" y1="88" y2="250" /><line stroke="black" x1="250" x2="346" y1="96" y2="250" /><line stroke="black" x1="250" x2="354" y1="104" y2="250" /><line stroke="black" x1="250" x2="362" y1="112" y2="250" /><line stroke="black" x1="250" x2="370" y1="120" y2="250" /><line stroke="black" x1="250" x2="378" y1="128" y2="250" /><line stroke="black" x1="250" x2="386" y1="136" y2="250" /><line stroke="black" x1="250" x2="394" y1="144" y2="250" /><line stroke="black" x1="250" x2="402" y1="152" y2="250" /><line stroke="black" x1="250" x2="410" y1="160" y2="250" /><line stroke="black" x1="250" x2="418" y1="168" y2="250" /><line stroke="black" x1="250" x2="426" y1="176" y2="250" /><line stroke="black" x1="250" x2="434" y1="184" y2="250" /><line stroke="black" x1="250" x2="442" y1="192" y2="250" /><line stroke="black" x1="250" x2="450" y1="200" y2="250" /><line stroke="black" x1="250" x2="458" y1="208" y2="250" /><line stroke="black" x1="250" x2="466" y1="216" y2="250" /><line stroke="black" x1="250" x2="474" y1="224" y2="250" /><line stroke="black" x1="250" x2="482" y1="232" y2="250" /><line stroke="black" x1="500" x2="250" y1="250" y2="250" /><line stroke="black" x1="492" x2="250" y1="250" y2="258" /><line stroke="black" x1="484" x2="250" y1="250" y2="266" /><line stroke="black" x1="476" x2="250" y1="250" y2="274" /><line stroke="black" x1="468" x2="250" y1="250" y2="282" /><line stroke="black" x1="460" x2="250" y1="250" y2="290" /><line stroke="black" x1="452" x2="250" y1="250" y2="298" /><line stroke="black" x1="444" x2="250" y1="250" y2="306" /><line stroke="black" x1="436" x2="250" y1="250" y2="314" /><line stroke="black" x1="428" x2="250" y1="250" y2="322" /><line stroke="black" x1="420" x2="250" y1="250" y2="330" /><line stroke="black" x1="412" x2="250" y1="250" y2="338" /><line stroke="black" x1="404" x2="250" y1="250" y2="346" /><line stroke="black" x1="396" x2="250" y1="250" y2="354" /><line stroke="black" x1="388" x2="250" y1="250" y2="362" /><line stroke="black" x1="380" x2="250" y1="250" y2="370" /><line stroke="black" x1="372" x2="250" y1="250" y2="378" /><line stroke="black" x1="364" x2="250" y1="250" y2="386" /><line stroke="black" x1="356" x2="250" y1="250" y2="394" /><line stroke="black" x1="348" x2="250" y1="250" y2="402" /><line stroke="black" x1="340" x2="250" y1="250" y2="410" /><line stroke="black" x1="332" x2="250" y1="250" y2="418" /><line stroke="black" x1="324" x2="250" y1="250" y2="426" /><line stroke="black" x1="316" x2="250" y1="250" y2="434" /><line stroke="black" x1="308" x2="250" y1="250" y2="442" /><line stroke="black" x1="300" x2="250" y1="250" y2="450" /><line stroke="black" x1="292" x2="250" y1="250" y2="458" /><line stroke="black" x1="284" x2="250" y1="250" y2="466" /><line stroke="black" x1="276" x2="250" y1="250" y2="474" /><line stroke="black" x1="268" x2="250" y1="250" y2="482" /><line stroke="black" x1="250" x2="250" y1="500" y2="250" /><line stroke="black" x1="250" x2="242" y1="492" y2="250" /><line stroke="black" x1="250" x2="234" y1="484" y2="250" /><line stroke="black" x1="250" x2="226" y1="476" y2="250" /><line stroke="black" x1="250" x2="218" y1="468" y2="250" /><line stroke="black" x1="250" x2="210" y1="460" y2="250" /><line stroke="black" x1="250" x2="202" y1="452" y2="250" /><line stroke="black" x1="250" x2="194" y1="444" y2="250" /><line stroke="black" x1="250" x2="186" y1="436" y2="250" /><line stroke="black" x1="250" x2="178" y1="428" y2="250" /><line stroke="black" x1="250" x2="170" y1="420" y2="250" /><line stroke="black" x1="250" x2="162" y1="412" y2="250" /><line stroke="black" x1="250" x2="154" y1="404" y2="250" /><line stroke="black" x1="250" x2="146" y1="396" y2="250" /><line stroke="black" x1="250" x2="138" y1="388" y2="250" /><line stroke="black" x1="250" x2="130" y1="380" y2="250" /><line stroke="black" x1="250" x2="122" y1="372" y2="250" /><line stroke="black" x1="250" x2="114" y1="364" y2="250" /><line stroke="black" x1="250" x2="106" y1="356" y2="250" /><line stroke="black" x1="250" x2="98" y1="348" y2="250" /><line stroke="black" x1="250" x2="90" y1="340" y2="250" /><line stroke="black" x1="250" x2="82" y1="332" y2="250" /><line stroke="black" x1="250" x2="74" y1="324" y2="250" /><line stroke="black" x1="250" x2="66" y1="316" y2="250" /><line stroke="black" x1="250" x2="58" y1="308" y2="250" /><line stroke="black" x1="250" x2="50" y1="300" y2="250" /><line stroke="black" x1="250" x2="42" y1="292" y2="250" /><line stroke="black" x1="250" x2="34" y1="284" y2="250" /><line stroke="black" x1="250" x2="26" y1="276" y2="250" /><line stroke="black" x1="250" x2="18" y1="268" y2="250" /></svg>