<?xml version="1.0" encoding="utf-8" ?>
<svg baseProfile="full" height="100%" version="1.1" width="100%" xmlns="http://www.w3.org/2000/svg" xmlns:ev="http://www.w3.org/2001/xml-events" xmlns:xlink="http://www.w3.org/1999/xlink"><defs /><line stroke="black" x1="0.0" x2="250.0" y1="250.0" y2="250.0" /><line stroke="black" x1="8.33333333333" x2="250.0" y1="250.0" y2="241.666666667" /><line stroke="black" x1="16.6666666667" x2="250.0" y1="250.0" y2="233.333333333" /><line stroke="black" x1="25.0" x2="250.0" y1="250.0" y2="225.0" /><line stroke="black" x1="33.3333333333" x2="250.0" y1="250.0" y2="216.666666667" /><line stroke="black" x1="41.6666666667" x2="250.0" y1="250.0" y2="208.333333333" /><line stroke="black" x1="50.0" x2="250.0" y1="250.0" y2="200.0" /><line stroke="black" x1="58.3333333333" x2="250.0" y1="250.0" y2="191.666666667" /><line stroke="black" x1="66.6666666667" x2="250.0" y1="250.0" y2="183.333333333" /><line stroke="black" x1="75.0" x2="250.0" y1="250.0" y2="175.0" /><line stroke="black" x1="83.3333333333" x2="250.0" y1="250.0" y2="166.666666667" /><line stroke="black" x1="91.6666666667" x2="250.0" y1="250.0" y2="158.333333333" /><line stroke="black" x1="100.0" x2="250.0" y1="250.0" y2="150.0" /><line stroke="black" x1="108.333333333" x2="250.0" y1="250.0" y2="141.666666667" /><line stroke="black" x1="116.666666667" x2="250.0" y1="250.0" y2="133.333333333" /><line stroke="black" x1="125.0" x2="250.0" y1="250.0" y2="125.0" /><line stroke="black" x1="133.333333333" x2="250.0" y1="250.0" y2="116.666666667" /><line stroke="black" x1="141.666666667" x2="250.0" y1="250.0" y2="108.333333333" /><line stroke="black" x1="150.0" x2="250.0" y1="250.0" y2="100.0" /><line stroke="black" x1="158.333333333" x2="250.0" y1="250.0" y2="91.6666666667" /><line stroke="black" x1="166.666666667" x2="250.0" y1="250.0" y2="83.3333333333" /><line stroke="black" x1="175.0" x2="250.0" y1="250.0" y2="75.0" /><line stroke="black" x1="183.333333333" x2="250.0" y1="250.0" y2="66.6666666667" /><line stroke="black" x1="191.666666667" x2="250.0" y1="250.0" y2="58.3333333333" /><line stroke="black" x1="200.0" x2="250.0" y1="250.0" y2="50.0" /><line stroke="black" x1="208.333333333" x2="250.0" y1="250.0" y2="41.6666666667" /><line stroke="black" x1="216.666666667" x2="250.0" y1="250.0" y2="33.3333333333" /><line stroke="black" x1="225.0" x2="250.0" y1="250.0" y2="25.0" /><line stroke="black" x1="233.333333333" x2="250.0" y1="250.0" y2="16.6666666667" /><line stroke="black" x1="241.666666667" x2="250.0" y1="250.0" y2="8.33333333333" /><line stroke="black" x1="250.0" x2="250.0" y1="0.0" y2="250.0" /><line stroke="black" x1="250.0" x2="258.333333333" y1="8.33333333333" y2="250.0" /><line stroke="black" x1="250.0" x2="266.666666667" y1="16.6666666667" y2="250.0" /><line stroke="black" x1="250.0" x2="275.0" y1="25.0" y2="250.0" /><line stroke="black" x1="250.0" x2="283.333333333" y1="33.3333333333" y2="250.0" /><line stroke="black" x1="250.0" x2="291.666666667" y1="41.6666666667" y2="250.0" /><line stroke="black" x1="250.0" x2="300.0" y1="50.0" y2="250.0" /><line stroke="black" x1="250.0" x2="308.333333333" y1="58.3333333333" y2="250.0" /><line stroke="black" x1="250.0" x2="316.666666667" y1="66.6666666667" y2="250.0" /><line stroke="black" x1="250.0" x2="325.0" y1="75.0" y2="250.0" /><line stroke="black" x1="250.0" x2="333.333333333" y1="83.3333333333" y2="250.0" /><line stroke="black" x1="250.0" x2="341.666666667" y1="91.6666666667" y2="250.0" /><line stroke="black" x1="250.0" x2="350.0" y1="100.0" y2="250.0" /><line stroke="black" x1="250.0" x2="358.333333333" y1="108.333333333" y2="250.0" /><line stroke="black" x1="250.0" x2="366.666666667" y1="116.666666667" y2="250.0" /><line stroke="black" x1="250.0" x2="375.0" y1="125.0" y2="250.0" /><line stroke="black" x1="250.0" x2="383.333333333" y1="133.333333333" y2="250.0" /><line stroke="black" x1="250.0" x2="391.666666667" y1="141.666666667" y2="250.0" /><line stroke="black" x1="250.0" x2="400.0" y1="150.0" y2="250.0" /><line stroke="black" x1="250.0" x2="408.333333333" y1="158.333333333" y2="250.0" /><line stroke="black" x1="250.0" x2="416.666666667" y1="166.666666667" y2="250.0" /><line stroke="black" x1="250.0" x2="425.0" y1="175.0" y2="250.0" /><line stroke="black" x1="250.0" x2="433.333333333" y1="183.333333333" y2="250.0" /><line stroke="black" x1="250.0" x2="441.666666667" y1="191.666666667" y2="250.0" /><line stroke="black" x1="250.0" x2="450.0" y1="200.0" y2="250.0" /><line stroke="black" x1="250.0" x2="458.333333333" y1="208.333333333" y2="250.0" /><line stroke="black" x1="250.0" x2="466.666666667" y1="216.666666667" y2="250.0" /><line stroke="black" x1="250.0" x2="475.0" y1="225.0" y2="250.0" /><line stroke="black" x1="250.0" x2="483.333333333" y1="233.333333333" y2="250.0" /><line stroke="black" x1="250.0" x2="491.666666667" y1="241.666666667" y2="250.0" /><line stroke="black" x1="500.0" x2="250.0" y1="250.0" y2="250.0" /><line stroke="black" x1="491.666666667" x2="250.0" y1="250.0" y2="258.333333333" /><line stroke="black" x1="483.333333333" x2="250.0" y1="250.0" y2="266.666666667" /><line stroke="black" x1="475.0" x2="250.0" y1="250.0" y2="275.0" /><line stroke="black" x1="466.666666667" x2="250.0" y1="250.0" y2="283.333333333" /><line stroke="black" x1="458.333333333" x2="250.0" y1="250.0" y2="291.666666667" /><line stroke="black" x1="450.0" x2="250.0" y1="250.0" y2="300.0" /><line stroke="black" x1="441.666666667" x2="250.0" y1="250.0" y2="308.333333333" /><line stroke="black" x1="433.333333333" x2="250.0" y1="250.0" y2="316.666666667" /><line stroke="black" x1="425.0" x2="250.0" y1="250.0" y2="325.0" /><line stroke="black" x1="416.666666667" x2="250.0" y1="250.0" y2="333.333333333" /><line stroke="black" x1="408.333333333" x2="250.0" y1="250.0" y2="341.666666667" /><line stroke="black" x1="400.0" x2="250.0" y1="250.0" y2="350.0" /><line stroke="black" x1="391.666666667" x2="250.0" y1="250.0" y2="358.333333333" /><line stroke="black" x1="383.333333333" x2="250.0" y1="250.0" y2="366.666666667" /><line stroke="black" x1="375.0" x2="250.0" y1="250.0" y2="375.0" /><line stroke="black" x1="366.666666667" x2="250.0" y1="250.0" y2="383.333333333" /><line stroke="black" x1="358.333333333" x2="250.0" y1="250.0" y2="391.666666667" /><line stroke="black" x1="350.0" x2="250.0" y1="250.0" y2="400.0" /><line stroke="black" x1="341.666666667" x2="250.0" y1="250.0" y2="408.333333333" /><line stroke="black" x1="333.333333333" x2="250.0" y1="250.0" y2="416.666666667" /><line stroke="black" x1="325.0" x2="250.0" y1="250.0" y2="425.0" /><line stroke="black" x1="316.666666667" x2="250.0" y1="250.0" y2="433.333333333" /><line stroke="black" x1="308.333333333" x2="250.0" y1="250.0" y2="441.666666667" /><line stroke="black" x1="300.0" x2="250.0" y1="250.0" y2="450.0" /><line stroke="black" x1="291.666666667" x2="250.0" y1="250.0" y2="458.333333333" /><line stroke="black" x1="283.333333333" x2="250.0" y1="250.0" y2="466.666666667" /><line stroke="black" x1="275.0" x2="250.0" y1="250.0" y2="475.0" /><line stroke="black" x1="266.666666667" x2="250.0" y1="250.0" y2="483.333333333" /><line stroke="black" x1="258.333333333" x2="250.0" y1="250.0" y2="491.666666667" /><line stroke="black" x1="250.0" x2="250.0" y1="500.0" y2="250.0" /><line stroke="black" x1="250.0" x2="241.666666667" y1="491.666666667" y2="250.0" /><line stroke="black" x1="250.0" x2="233.333333333" y1="483.333333333" y2="250.0" /><line stroke="black" x1="250.0" x2="225.0" y1="475.0" y2="250.0" /><line stroke="black" x1="250.0" x2="216.666666667" y1="466.666666667" y2="250.0" /><line stroke="black" x1="250.0" x2="208.333333333" y1="458.333333333" y2="250.0" /><line stroke="black" x1="250.0" x2="200.0" y1="450.0" y2="250.0" /><line stroke="black" x1="250.0" x2="191.666666667" y1="441.666666667" y2="250.0" /><line stroke="black" x1="250.0" x2="183.333333333" y1="433.333333333" y2="250.0" /><line stroke="black" x1="250.0" x2="175.0" y1="425.0" y2="250.0" /><line stroke="black" x1="250.0" x2="166.666666667" y1="416.666666667" y2="250.0" /><line stroke="black" x1="250.0" x2="158.333333333" y1="408.333333333" y2="250.0" /><line stroke="black" x1="250.0" x2="150.0" y1="400.0" y2="250.0" /><line stroke="black" x1="250.0" x2="141.666666667" y1="391.666666667" y2="250.0" /><line stroke="black" x1="250.0" x2="133.333333333" y1="383.333333333" y2="250.0" /><line stroke="black" x1="250.0" x2="125.0" y1="375.0" y2="250.0" /><line stroke="black" x1="250.0" x2="116.666666667" y1="366.666666667" y2="250.0" /><line stroke="black" x1="250.0" x2="108.333333333" y1="358.333333333" y2="250.0" /><line stroke="black" x1="250.0" x2="100.0" y1="350.0" y2="250.0" /><line stroke="black" x1="250.0" x2="91.6666666667" y1="341.666666667" y2="250.0" /><line stroke="black" x1="250.0" x2="83.3333333333" y1="333.333333333" y2="250.0" /><line stroke="black" x1="250.0" x2="75.0" y1="325.0" y2="250.0" /><line stroke="black" x1="250.0" x2="66.6666666667" y1="316.666666667" y2="250.0" /><line stroke="black" x1="250.0" x2="58.3333333333" y1="308.333333333" y2="250.0" /><line stroke="black" x1="250.0" x2="50.0" y1="300.0" y2="250.0" /><line stroke="black" x1="250.0" x2="41.6666666667" y1="291.666666667" y2="250.0" /><line stroke="black" x1="250.0" x2="33.3333333333" y1="283.333333333" y2="250.0" /><line stroke="black" x1="250.0" x2="25.0" y1="275.0" y2="250.0" /><line stroke="black" x1="250.0" x2="16.6666666667" y1="266.666666667" y2="250.0" /><line stroke="black" x1="250.0" x2="8.33333333333" y1="258.333333333" y2="250.0" /></svg>