<?xml version="1.0" encoding="utf-8" ?>
<svg baseProfile="full" height="100%" version="1.1" width="100%" xmlns="http://www.w3.org/2000/svg" xmlns:ev="http://www.w3.org/2001/xml-events" xmlns:xlink="http://www.w3.org/1999/xlink"><defs /><line stroke="black" x1="30" x2="50" y1="30.0" y2="30.0" /><line stroke="black" x1="50" x2="60" y1="30.0" y2="47.3205080757" /><line stroke="black" x1="50" x2="60" y1="64.6410161514" y2="47.3205080757" /><line stroke="black" x1="30" x2="20" y1="64.6410161514" y2="47.3205080757" /><line stroke="black" x1="30" x2="20" y1="30.0" y2="47.3205080757" /><line stroke="black" x1="60.0" x2="80.0" y1="47.3205080757" y2="47.3205080757" /><line stroke="black" x1="80.0" x2="90.0" y1="81.9615242271" y2="64.6410161514" /><line stroke="black" x1="60.0" x2="80.0" y1="81.9615242271" y2="81.9615242271" /><line stroke="black" x1="60.0" x2="50.0" y1="47.3205080757" y2="64.6410161514" /><line stroke="black" x1="90.0" x2="110.0" y1="30.0" y2="30.0" /><line stroke="black" x1="110.0" x2="120.0" y1="30.0" y2="47.3205080757" /><line stroke="black" x1="90.0" x2="110.0" y1="64.6410161514" y2="64.6410161514" /><line stroke="black" x1="90.0" x2="80.0" y1="30.0" y2="47.3205080757" /><line stroke="black" x1="120.0" x2="140.0" y1="47.3205080757" y2="47.3205080757" /><line stroke="black" x1="140.0" x2="150.0" y1="47.3205080757" y2="64.6410161514" /><line stroke="black" x1="120.0" x2="140.0" y1="81.9615242271" y2="81.9615242271" /><line stroke="black" x1="120.0" x2="110.0" y1="81.9615242271" y2="64.6410161514" /><line stroke="black" x1="150.0" x2="170.0" y1="30.0" y2="30.0" /><line stroke="black" x1="170.0" x2="180.0" y1="30.0" y2="47.3205080757" /><line stroke="black" x1="150.0" x2="170.0" y1="64.6410161514" y2="64.6410161514" /><line stroke="black" x1="150.0" x2="140.0" y1="64.6410161514" y2="47.3205080757" /><line stroke="black" x1="150.0" x2="140.0" y1="30.0" y2="47.3205080757" /><line stroke="black" x1="180.0" x2="200.0" y1="47.3205080757" y2="47.3205080757" /><line stroke="black" x1="200.0" x2="210.0" y1="81.9615242271" y2="64.6410161514" /><line stroke="black" x1="180.0" x2="200.0" y1="81.9615242271" y2="81.9615242271" /><line stroke="black" x1="180.0" x2="170.0" y1="81.9615242271" y2="64.6410161514" /><line stroke="black" x1="210.0" x2="230.0" y1="30.0" y2="30.0" /><line stroke="black" x1="230.0" x2="240.0" y1="30.0" y2="47.3205080757" /><line stroke="black" x1="230.0" x2="240.0" y1="64.6410161514" y2="47.3205080757" /><line stroke="black" x1="210.0" x2="200.0" y1="30.0" y2="47.3205080757" /><line stroke="black" x1="50" x2="60" y1="99.2820323028" y2="81.9615242271" /><line stroke="black" x1="30" x2="50" y1="99.2820323028" y2="99.2820323028" /><line stroke="black" x1="30" x2="20" y1="99.2820323028" y2="81.9615242271" /><line stroke="black" x1="30" x2="20" y1="64.6410161514" y2="81.9615242271" /><line stroke="black" x1="60.0" x2="80.0" y1="81.9615242271" y2="81.9615242271" /><line stroke="black" x1="60.0" x2="80.0" y1="116.602540378" y2="116.602540378" /><line stroke="black" x1="60.0" x2="50.0" y1="116.602540378" y2="99.2820323028" /><line stroke="black" x1="60.0" x2="50.0" y1="81.9615242271" y2="99.2820323028" /><line stroke="black" x1="90.0" x2="110.0" y1="64.6410161514" y2="64.6410161514" /><line stroke="black" x1="110.0" x2="120.0" y1="64.6410161514" y2="81.9615242271" /><line stroke="black" x1="90.0" x2="110.0" y1="99.2820323028" y2="99.2820323028" /><line stroke="black" x1="90.0" x2="80.0" y1="64.6410161514" y2="81.9615242271" /><line stroke="black" x1="120.0" x2="140.0" y1="81.9615242271" y2="81.9615242271" /><line stroke="black" x1="140.0" x2="150.0" y1="81.9615242271" y2="99.2820323028" /><line stroke="black" x1="140.0" x2="150.0" y1="116.602540378" y2="99.2820323028" /><line stroke="black" x1="120.0" x2="140.0" y1="116.602540378" y2="116.602540378" /><line stroke="black" x1="120.0" x2="110.0" y1="116.602540378" y2="99.2820323028" /><line stroke="black" x1="150.0" x2="170.0" y1="64.6410161514" y2="64.6410161514" /><line stroke="black" x1="170.0" x2="180.0" y1="64.6410161514" y2="81.9615242271" /><line stroke="black" x1="150.0" x2="170.0" y1="99.2820323028" y2="99.2820323028" /><line stroke="black" x1="150.0" x2="140.0" y1="99.2820323028" y2="81.9615242271" /><line stroke="black" x1="180.0" x2="200.0" y1="81.9615242271" y2="81.9615242271" /><line stroke="black" x1="200.0" x2="210.0" y1="81.9615242271" y2="99.2820323028" /><line stroke="black" x1="180.0" x2="200.0" y1="116.602540378" y2="116.602540378" /><line stroke="black" x1="180.0" x2="170.0" y1="116.602540378" y2="99.2820323028" /><line stroke="black" x1="230.0" x2="240.0" y1="64.6410161514" y2="81.9615242271" /><line stroke="black" x1="230.0" x2="240.0" y1="99.2820323028" y2="81.9615242271" /><line stroke="black" x1="210.0" x2="200.0" y1="99.2820323028" y2="81.9615242271" /><line stroke="black" x1="210.0" x2="200.0" y1="64.6410161514" y2="81.9615242271" /><line stroke="black" x1="30" x2="50" y1="99.2820323028" y2="99.2820323028" /><line stroke="black" x1="50" x2="60" y1="99.2820323028" y2="116.602540378" /><line stroke="black" x1="30" x2="20" y1="133.923048454" y2="116.602540378" /><line stroke="black" x1="30" x2="20" y1="99.2820323028" y2="116.602540378" /><line stroke="black" x1="60.0" x2="80.0" y1="116.602540378" y2="116.602540378" /><line stroke="black" x1="80.0" x2="90.0" y1="151.24355653" y2="133.923048454" /><line stroke="black" x1="60.0" x2="80.0" y1="151.24355653" y2="151.24355653" /><line stroke="black" x1="60.0" x2="50.0" y1="151.24355653" y2="133.923048454" /><line stroke="black" x1="90.0" x2="110.0" y1="99.2820323028" y2="99.2820323028" /><line stroke="black" x1="110.0" x2="120.0" y1="99.2820323028" y2="116.602540378" /><line stroke="black" x1="110.0" x2="120.0" y1="133.923048454" y2="116.602540378" /><line stroke="black" x1="90.0" x2="110.0" y1="133.923048454" y2="133.923048454" /><line stroke="black" x1="120.0" x2="140.0" y1="116.602540378" y2="116.602540378" /><line stroke="black" x1="140.0" x2="150.0" y1="151.24355653" y2="133.923048454" /><line stroke="black" x1="120.0" x2="140.0" y1="151.24355653" y2="151.24355653" /><line stroke="black" x1="120.0" x2="110.0" y1="116.602540378" y2="133.923048454" /><line stroke="black" x1="150.0" x2="170.0" y1="99.2820323028" y2="99.2820323028" /><line stroke="black" x1="170.0" x2="180.0" y1="99.2820323028" y2="116.602540378" /><line stroke="black" x1="150.0" x2="170.0" y1="133.923048454" y2="133.923048454" /><line stroke="black" x1="150.0" x2="140.0" y1="99.2820323028" y2="116.602540378" /><line stroke="black" x1="180.0" x2="200.0" y1="116.602540378" y2="116.602540378" /><line stroke="black" x1="200.0" x2="210.0" y1="151.24355653" y2="133.923048454" /><line stroke="black" x1="180.0" x2="200.0" y1="151.24355653" y2="151.24355653" /><line stroke="black" x1="180.0" x2="170.0" y1="151.24355653" y2="133.923048454" /><line stroke="black" x1="230.0" x2="240.0" y1="99.2820323028" y2="116.602540378" /><line stroke="black" x1="230.0" x2="240.0" y1="133.923048454" y2="116.602540378" /><line stroke="black" x1="210.0" x2="230.0" y1="133.923048454" y2="133.923048454" /><line stroke="black" x1="50" x2="60" y1="133.923048454" y2="151.24355653" /><line stroke="black" x1="50" x2="60" y1="168.564064606" y2="151.24355653" /><line stroke="black" x1="30" x2="20" y1="168.564064606" y2="151.24355653" /><line stroke="black" x1="30" x2="20" y1="133.923048454" y2="151.24355653" /><line stroke="black" x1="60.0" x2="80.0" y1="151.24355653" y2="151.24355653" /><line stroke="black" x1="60.0" x2="80.0" y1="185.884572681" y2="185.884572681" /><line stroke="black" x1="60.0" x2="50.0" y1="185.884572681" y2="168.564064606" /><line stroke="black" x1="60.0" x2="50.0" y1="151.24355653" y2="168.564064606" /><line stroke="black" x1="90.0" x2="110.0" y1="133.923048454" y2="133.923048454" /><line stroke="black" x1="110.0" x2="120.0" y1="168.564064606" y2="151.24355653" /><line stroke="black" x1="90.0" x2="110.0" y1="168.564064606" y2="168.564064606" /><line stroke="black" x1="90.0" x2="80.0" y1="133.923048454" y2="151.24355653" /><line stroke="black" x1="120.0" x2="140.0" y1="151.24355653" y2="151.24355653" /><line stroke="black" x1="120.0" x2="140.0" y1="185.884572681" y2="185.884572681" /><line stroke="black" x1="120.0" x2="110.0" y1="185.884572681" y2="168.564064606" /><line stroke="black" x1="120.0" x2="110.0" y1="151.24355653" y2="168.564064606" /><line stroke="black" x1="150.0" x2="170.0" y1="133.923048454" y2="133.923048454" /><line stroke="black" x1="170.0" x2="180.0" y1="133.923048454" y2="151.24355653" /><line stroke="black" x1="150.0" x2="170.0" y1="168.564064606" y2="168.564064606" /><line stroke="black" x1="150.0" x2="140.0" y1="133.923048454" y2="151.24355653" /><line stroke="black" x1="180.0" x2="200.0" y1="151.24355653" y2="151.24355653" /><line stroke="black" x1="180.0" x2="200.0" y1="185.884572681" y2="185.884572681" /><line stroke="black" x1="180.0" x2="170.0" y1="185.884572681" y2="168.564064606" /><line stroke="black" x1="210.0" x2="230.0" y1="133.923048454" y2="133.923048454" /><line stroke="black" x1="230.0" x2="240.0" y1="133.923048454" y2="151.24355653" /><line stroke="black" x1="230.0" x2="240.0" y1="168.564064606" y2="151.24355653" /><line stroke="black" x1="210.0" x2="230.0" y1="168.564064606" y2="168.564064606" /><line stroke="black" x1="210.0" x2="200.0" y1="133.923048454" y2="151.24355653" /><line stroke="black" x1="50" x2="60" y1="168.564064606" y2="185.884572681" /><line stroke="black" x1="50" x2="60" y1="203.205080757" y2="185.884572681" /><line stroke="black" x1="30" x2="20" y1="203.205080757" y2="185.884572681" /><line stroke="black" x1="30" x2="20" y1="168.564064606" y2="185.884572681" /><line stroke="black" x1="60.0" x2="80.0" y1="185.884572681" y2="185.884572681" /><line stroke="black" x1="60.0" x2="80.0" y1="220.525588833" y2="220.525588833" /><line stroke="black" x1="60.0" x2="50.0" y1="220.525588833" y2="203.205080757" /><line stroke="black" x1="60.0" x2="50.0" y1="185.884572681" y2="203.205080757" /><line stroke="black" x1="90.0" x2="110.0" y1="168.564064606" y2="168.564064606" /><line stroke="black" x1="110.0" x2="120.0" y1="168.564064606" y2="185.884572681" /><line stroke="black" x1="110.0" x2="120.0" y1="203.205080757" y2="185.884572681" /><line stroke="black" x1="90.0" x2="110.0" y1="203.205080757" y2="203.205080757" /><line stroke="black" x1="120.0" x2="140.0" y1="185.884572681" y2="185.884572681" /><line stroke="black" x1="140.0" x2="150.0" y1="185.884572681" y2="203.205080757" /><line stroke="black" x1="120.0" x2="140.0" y1="220.525588833" y2="220.525588833" /><line stroke="black" x1="120.0" x2="110.0" y1="185.884572681" y2="203.205080757" /><line stroke="black" x1="150.0" x2="170.0" y1="168.564064606" y2="168.564064606" /><line stroke="black" x1="170.0" x2="180.0" y1="168.564064606" y2="185.884572681" /><line stroke="black" x1="150.0" x2="170.0" y1="203.205080757" y2="203.205080757" /><line stroke="black" x1="150.0" x2="140.0" y1="203.205080757" y2="185.884572681" /><line stroke="black" x1="180.0" x2="200.0" y1="185.884572681" y2="185.884572681" /><line stroke="black" x1="200.0" x2="210.0" y1="185.884572681" y2="203.205080757" /><line stroke="black" x1="200.0" x2="210.0" y1="220.525588833" y2="203.205080757" /><line stroke="black" x1="180.0" x2="200.0" y1="220.525588833" y2="220.525588833" /><line stroke="black" x1="180.0" x2="170.0" y1="220.525588833" y2="203.205080757" /><line stroke="black" x1="210.0" x2="230.0" y1="168.564064606" y2="168.564064606" /><line stroke="black" x1="230.0" x2="240.0" y1="168.564064606" y2="185.884572681" /><line stroke="black" x1="230.0" x2="240.0" y1="203.205080757" y2="185.884572681" /><line stroke="black" x1="210.0" x2="200.0" y1="203.205080757" y2="185.884572681" /><line stroke="black" x1="50" x2="60" y1="203.205080757" y2="220.525588833" /><line stroke="black" x1="50" x2="60" y1="237.846096908" y2="220.525588833" /><line stroke="black" x1="30" x2="20" y1="237.846096908" y2="220.525588833" /><line stroke="black" x1="30" x2="20" y1="203.205080757" y2="220.525588833" /><line stroke="black" x1="60.0" x2="80.0" y1="220.525588833" y2="220.525588833" /><line stroke="black" x1="80.0" x2="90.0" y1="220.525588833" y2="237.846096908" /><line stroke="black" x1="60.0" x2="80.0" y1="255.166604984" y2="255.166604984" /><line stroke="black" x1="60.0" x2="50.0" y1="220.525588833" y2="237.846096908" /><line stroke="black" x1="90.0" x2="110.0" y1="203.205080757" y2="203.205080757" /><line stroke="black" x1="110.0" x2="120.0" y1="237.846096908" y2="220.525588833" /><line stroke="black" x1="90.0" x2="110.0" y1="237.846096908" y2="237.846096908" /><line stroke="black" x1="90.0" x2="80.0" y1="237.846096908" y2="220.525588833" /><line stroke="black" x1="120.0" x2="140.0" y1="220.525588833" y2="220.525588833" /><line stroke="black" x1="140.0" x2="150.0" y1="220.525588833" y2="237.846096908" /><line stroke="black" x1="140.0" x2="150.0" y1="255.166604984" y2="237.846096908" /><line stroke="black" x1="120.0" x2="110.0" y1="220.525588833" y2="237.846096908" /><line stroke="black" x1="150.0" x2="170.0" y1="203.205080757" y2="203.205080757" /><line stroke="black" x1="170.0" x2="180.0" y1="203.205080757" y2="220.525588833" /><line stroke="black" x1="170.0" x2="180.0" y1="237.846096908" y2="220.525588833" /><line stroke="black" x1="150.0" x2="140.0" y1="237.846096908" y2="220.525588833" /><line stroke="black" x1="180.0" x2="200.0" y1="220.525588833" y2="220.525588833" /><line stroke="black" x1="200.0" x2="210.0" y1="255.166604984" y2="237.846096908" /><line stroke="black" x1="180.0" x2="200.0" y1="255.166604984" y2="255.166604984" /><line stroke="black" x1="180.0" x2="170.0" y1="220.525588833" y2="237.846096908" /><line stroke="black" x1="230.0" x2="240.0" y1="203.205080757" y2="220.525588833" /><line stroke="black" x1="230.0" x2="240.0" y1="237.846096908" y2="220.525588833" /><line stroke="black" x1="210.0" x2="200.0" y1="203.205080757" y2="220.525588833" /><line stroke="black" x1="30" x2="50" y1="272.48711306" y2="272.48711306" /><line stroke="black" x1="30" x2="20" y1="272.48711306" y2="255.166604984" /><line stroke="black" x1="30" x2="20" y1="237.846096908" y2="255.166604984" /><line stroke="black" x1="60.0" x2="80.0" y1="255.166604984" y2="255.166604984" /><line stroke="black" x1="80.0" x2="90.0" y1="255.166604984" y2="272.48711306" /><line stroke="black" x1="80.0" x2="90.0" y1="289.807621135" y2="272.48711306" /><line stroke="black" x1="60.0" x2="80.0" y1="289.807621135" y2="289.807621135" /><line stroke="black" x1="60.0" x2="50.0" y1="289.807621135" y2="272.48711306" /><line stroke="black" x1="90.0" x2="110.0" y1="237.846096908" y2="237.846096908" /><line stroke="black" x1="110.0" x2="120.0" y1="272.48711306" y2="255.166604984" /><line stroke="black" x1="90.0" x2="110.0" y1="272.48711306" y2="272.48711306" /><line stroke="black" x1="90.0" x2="80.0" y1="272.48711306" y2="255.166604984" /><line stroke="black" x1="140.0" x2="150.0" y1="289.807621135" y2="272.48711306" /><line stroke="black" x1="120.0" x2="140.0" y1="289.807621135" y2="289.807621135" /><line stroke="black" x1="120.0" x2="110.0" y1="289.807621135" y2="272.48711306" /><line stroke="black" x1="120.0" x2="110.0" y1="255.166604984" y2="272.48711306" /><line stroke="black" x1="170.0" x2="180.0" y1="272.48711306" y2="255.166604984" /><line stroke="black" x1="150.0" x2="170.0" y1="272.48711306" y2="272.48711306" /><line stroke="black" x1="150.0" x2="140.0" y1="237.846096908" y2="255.166604984" /><line stroke="black" x1="180.0" x2="200.0" y1="255.166604984" y2="255.166604984" /><line stroke="black" x1="200.0" x2="210.0" y1="289.807621135" y2="272.48711306" /><line stroke="black" x1="180.0" x2="200.0" y1="289.807621135" y2="289.807621135" /><line stroke="black" x1="180.0" x2="170.0" y1="289.807621135" y2="272.48711306" /><line stroke="black" x1="180.0" x2="170.0" y1="255.166604984" y2="272.48711306" /><line stroke="black" x1="230.0" x2="240.0" y1="237.846096908" y2="255.166604984" /><line stroke="black" x1="230.0" x2="240.0" y1="272.48711306" y2="255.166604984" /><line stroke="black" x1="210.0" x2="230.0" y1="272.48711306" y2="272.48711306" /><line stroke="black" x1="210.0" x2="200.0" y1="237.846096908" y2="255.166604984" /><circle cx="40" cy="47.3205080757" r="10.3923048454" stroke="blue" /><circle cx="220.0" cy="255.166604984" r="10.3923048454" stroke="blue" /></svg>