<?xml version="1.0" encoding="utf-8" ?>
<svg baseProfile="full" height="100%" version="1.1" width="100%" xmlns="http://www.w3.org/2000/svg" xmlns:ev="http://www.w3.org/2001/xml-events" xmlns:xlink="http://www.w3.org/1999/xlink"><defs /><circle cx="122.081864385" cy="142.20968586" fill="orange" r="5" stroke="orange" /><circle cx="240.30081398" cy="261.712723977" fill="blue" r="5" stroke="blue" /><circle cx="317.346387955" cy="204.912144635" fill="blue" r="5" stroke="blue" /><circle cx="278.936462427" cy="177.711951028" fill="blue" r="5" stroke="blue" /><circle cx="331.491200632" cy="217.999508814" fill="blue" r="5" stroke="blue" /><circle cx="273.019081174" cy="174.238802594" fill="blue" r="5" stroke="blue" /><circle cx="251.802429383" cy="119.225631829" fill="black" r="5" stroke="black" /><circle cx="128.546616013" cy="125.465576788" fill="orange" r="5" stroke="orange" /><circle cx="99.9726757695" cy="98.703879311" fill="orange" r="5" stroke="orange" /><circle cx="247.579414044" cy="135.125798476" fill="black" r="5" stroke="black" /><circle cx="113.66976668" cy="161.976636914" fill="orange" r="5" stroke="orange" /><circle cx="214.602113747" cy="113.000994842" fill="black" r="5" stroke="black" /><circle cx="201.087567519" cy="322.540528238" fill="red" r="5" stroke="red" /><circle cx="152.926896394" cy="268.907470345" fill="red" r="5" stroke="red" /><circle cx="127.469531301" cy="248.30772349" fill="red" r="5" stroke="red" /><circle cx="284.25903342" cy="215.620113085" fill="blue" r="5" stroke="blue" /><circle cx="94.1960007054" cy="254.18456979" fill="red" r="5" stroke="red" /><circle cx="232.576087651" cy="96.644448582" fill="black" r="5" stroke="black" /><circle cx="105.152095251" cy="153.407050209" fill="orange" r="5" stroke="orange" /><circle cx="336.684227097" cy="176.221598737" fill="blue" r="5" stroke="blue" /><circle cx="312.016380187" cy="198.895782744" fill="blue" r="5" stroke="blue" /><circle cx="308.463348937" cy="211.847795689" fill="blue" r="5" stroke="blue" /><circle cx="154.545999756" cy="139.166028018" fill="green" r="5" stroke="green" /><circle cx="319.824253814" cy="180.720138634" fill="blue" r="5" stroke="blue" /><circle cx="245.781497482" cy="111.306081202" fill="black" r="5" stroke="black" /><circle cx="301.335238552" cy="227.796990779" fill="blue" r="5" stroke="blue" /><circle cx="211.266446939" cy="122.875730315" fill="black" r="5" stroke="black" /><circle cx="218.340031609" cy="96.3618793495" fill="black" r="5" stroke="black" /><circle cx="236.488613828" cy="68.2451915869" fill="black" r="5" stroke="black" /><circle cx="114.132847465" cy="145.810152023" fill="orange" r="5" stroke="orange" /><circle cx="294.12507551" cy="226.60303805" fill="blue" r="5" stroke="blue" /><circle cx="119.068571779" cy="247.829921925" fill="red" r="5" stroke="red" /><circle cx="88.3804118183" cy="272.815120678" fill="red" r="5" stroke="red" /><circle cx="320.617255959" cy="209.019388452" fill="blue" r="5" stroke="blue" /><circle cx="242.789780026" cy="141.653745964" fill="black" r="5" stroke="black" /><circle cx="318.108759956" cy="197.489736526" fill="blue" r="5" stroke="blue" /><circle cx="140.576673236" cy="116.360549426" fill="green" r="5" stroke="green" /><circle cx="152.078584865" cy="146.703936987" fill="green" r="5" stroke="green" /><circle cx="253.454784374" cy="201.519864627" fill="blue" r="5" stroke="blue" /><circle cx="295.988875129" cy="233.197133154" fill="blue" r="5" stroke="blue" /><circle cx="185.003939651" cy="128.775384364" fill="green" r="5" stroke="green" /><circle cx="117.819143749" cy="265.078412774" fill="red" r="5" stroke="red" /><circle cx="125.104138445" cy="243.33641935" fill="red" r="5" stroke="red" /><circle cx="109.923168649" cy="143.986231159" fill="orange" r="5" stroke="orange" /><circle cx="246.931990621" cy="334.200428665" fill="blue" r="5" stroke="blue" /><circle cx="296.578296057" cy="210.312994928" fill="blue" r="5" stroke="blue" /><circle cx="232.192842317" cy="293.044544566" fill="blue" r="5" stroke="blue" /><circle cx="132.515963693" cy="277.770285184" fill="red" r="5" stroke="red" /><circle cx="232.169071703" cy="308.310597316" fill="blue" r="5" stroke="blue" /><circle cx="270.168185691" cy="182.609958737" fill="blue" r="5" stroke="blue" /><circle cx="149.272023896" cy="135.914415302" fill="green" r="5" stroke="green" /><circle cx="324.270878008" cy="207.526684028" fill="blue" r="5" stroke="blue" /><circle cx="270.587958101" cy="173.247283791" fill="blue" r="5" stroke="blue" /><circle cx="268.252224702" cy="202.642868022" fill="blue" r="5" stroke="blue" /><circle cx="300.883975227" cy="240.285658466" fill="blue" r="5" stroke="blue" /><circle cx="123.672258288" cy="130.308865609" fill="orange" r="5" stroke="orange" /><circle cx="274.890684909" cy="201.3282901" fill="blue" r="5" stroke="blue" /><circle cx="158.187250334" cy="306.383884716" fill="red" r="5" stroke="red" /><circle cx="133.201651263" cy="129.434592201" fill="orange" r="5" stroke="orange" /><circle cx="149.004020505" cy="270.637114841" fill="red" r="5" stroke="red" /><circle cx="108.36769936" cy="291.063504117" fill="red" r="5" stroke="red" /><circle cx="302.735125258" cy="236.737356345" fill="blue" r="5" stroke="blue" /><circle cx="249.017181928" cy="136.329167406" fill="black" r="5" stroke="black" /><circle cx="230.170730903" cy="115.674526808" fill="black" r="5" stroke="black" /><circle cx="104.703109033" cy="263.616682563" fill="red" r="5" stroke="red" /><circle cx="111.595048486" cy="289.72831367" fill="red" r="5" stroke="red" /><circle cx="206.493148148" cy="318.72547691" fill="red" r="5" stroke="red" /><circle cx="288.893176678" cy="203.850815389" fill="blue" r="5" stroke="blue" /><circle cx="284.099366925" cy="290.077713354" fill="blue" r="5" stroke="blue" /><circle cx="232.955189785" cy="105.710019097" fill="black" r="5" stroke="black" /><circle cx="298.551610812" cy="210.300682148" fill="blue" r="5" stroke="blue" /><circle cx="126.036375345" cy="245.176218669" fill="red" r="5" stroke="red" /><circle cx="292.298887395" cy="204.87010572" fill="blue" r="5" stroke="blue" /><circle cx="101.54980655" cy="282.826022075" fill="red" r="5" stroke="red" /><circle cx="244.809519344" cy="116.988451648" fill="black" r="5" stroke="black" /><circle cx="313.693687662" cy="196.173826244" fill="blue" r="5" stroke="blue" /><circle cx="107.654560572" cy="145.266477392" fill="orange" r="5" stroke="orange" /><circle cx="127.7231432" cy="252.221499214" fill="red" r="5" stroke="red" /><circle cx="329.32874443" cy="215.048470967" fill="blue" r="5" stroke="blue" /><circle cx="255.528621019" cy="312.637546632" fill="blue" r="5" stroke="blue" /><circle cx="258.879971303" cy="265.439653928" fill="blue" r="5" stroke="blue" /><circle cx="192.425673075" cy="319.962821974" fill="red" r="5" stroke="red" /><circle cx="186.414072401" cy="90.6766869546" fill="green" r="5" stroke="green" /><circle cx="128.616131192" cy="136.798572285" fill="orange" r="5" stroke="orange" /><circle cx="294.583470932" cy="204.927098845" fill="blue" r="5" stroke="blue" /><circle cx="226.760154116" cy="123.087928811" fill="black" r="5" stroke="black" /><circle cx="241.563980768" cy="270.659383231" fill="blue" r="5" stroke="blue" /><circle cx="216.288522406" cy="307.588407961" fill="red" r="5" stroke="red" /><circle cx="239.02408797" cy="297.238560514" fill="blue" r="5" stroke="blue" /><circle cx="303.914366912" cy="219.357531817" fill="blue" r="5" stroke="blue" /><circle cx="113.168712098" cy="234.232888482" fill="red" r="5" stroke="red" /><circle cx="116.660521615" cy="250.693849735" fill="red" r="5" stroke="red" /><circle cx="255.45274398" cy="302.432772993" fill="blue" r="5" stroke="blue" /><circle cx="199.336392049" cy="284.887205001" fill="red" r="5" stroke="red" /><circle cx="271.052564078" cy="67.8274217684" fill="black" r="5" stroke="black" /><circle cx="130.096410287" cy="187.668809765" fill="orange" r="5" stroke="orange" /><circle cx="232.551680491" cy="264.809644704" fill="blue" r="5" stroke="blue" /><circle cx="232.635592776" cy="275.115424409" fill="blue" r="5" stroke="blue" /><circle cx="301.712869899" cy="213.118034385" fill="blue" r="5" stroke="blue" /><circle cx="102.114376789" cy="133.616591048" fill="orange" r="5" stroke="orange" /><rect fill="red" height="10" stroke="black" width="10" x="133.700332505" y="269.718014857" /><rect fill="black" height="10" stroke="black" width="10" x="232.066116991" y="106.337134512" /><rect fill="blue" height="10" stroke="black" width="10" x="279.380122597" y="224.11187539" /><rect fill="green" height="10" stroke="black" width="10" x="156.315215634" y="121.266166842" /><rect fill="orange" height="10" stroke="black" width="10" x="111.833417123" y="136.12716312" /></svg>