<?xml version="1.0" encoding="utf-8" ?>
<svg baseProfile="full" height="100%" version="1.1" width="100%" xmlns="http://www.w3.org/2000/svg" xmlns:ev="http://www.w3.org/2001/xml-events" xmlns:xlink="http://www.w3.org/1999/xlink"><defs /><circle cx="466.7" cy="840.0" fill="red" r="5" stroke="red" /><circle cx="455.0" cy="790.0" fill="red" r="5" stroke="red" /><circle cx="331.7" cy="830.0" fill="red" r="5" stroke="red" /><circle cx="408.3" cy="840.0" fill="red" r="5" stroke="red" /><circle cx="336.7" cy="660.0" fill="black" r="5" stroke="black" /><circle cx="408.3" cy="930.0" fill="red" r="5" stroke="red" /><circle cx="223.3" cy="600.0" fill="black" r="5" stroke="black" /><circle cx="466.7" cy="780.0" fill="red" r="5" stroke="red" /><circle cx="216.7" cy="520.0" fill="black" r="5" stroke="black" /><circle cx="376.7" cy="830.0" fill="red" r="5" stroke="red" /><circle cx="461.7" cy="930.0" fill="red" r="5" stroke="red" /><circle cx="180.0" cy="530.0" fill="black" r="5" stroke="black" /><circle cx="480.0" cy="750.0" fill="red" r="5" stroke="red" /><circle cx="186.7" cy="450.0" fill="black" r="5" stroke="black" /><circle cx="188.3" cy="540.0" fill="black" r="5" stroke="black" /><circle cx="200.0" cy="560.0" fill="black" r="5" stroke="black" /><circle cx="280.0" cy="560.0" fill="black" r="5" stroke="black" /><circle cx="375.0" cy="750.0" fill="red" r="5" stroke="red" /><circle cx="426.7" cy="820.0" fill="red" r="5" stroke="red" /><circle cx="236.7" cy="630.0" fill="black" r="5" stroke="black" /><circle cx="383.3" cy="740.0" fill="red" r="5" stroke="red" /><circle cx="223.3" cy="590.0" fill="black" r="5" stroke="black" /><circle cx="383.3" cy="640.0" fill="black" r="5" stroke="black" /><circle cx="415.0" cy="880.0" fill="red" r="5" stroke="red" /><circle cx="463.3" cy="800.0" fill="red" r="5" stroke="red" /><circle cx="233.3" cy="640.0" fill="black" r="5" stroke="black" /><circle cx="201.7" cy="490.0" fill="black" r="5" stroke="black" /><circle cx="373.3" cy="790.0" fill="red" r="5" stroke="red" /><circle cx="220.0" cy="540.0" fill="black" r="5" stroke="black" /><circle cx="180.0" cy="510.0" fill="black" r="5" stroke="black" /><circle cx="240.0" cy="650.0" fill="black" r="5" stroke="black" /><circle cx="371.7" cy="710.0" fill="red" r="5" stroke="red" /><circle cx="395.0" cy="790.0" fill="red" r="5" stroke="red" /><circle cx="395.0" cy="760.0" fill="red" r="5" stroke="red" /><circle cx="350.0" cy="660.0" fill="black" r="5" stroke="black" /><circle cx="345.0" cy="780.0" fill="red" r="5" stroke="red" /><circle cx="290.0" cy="630.0" fill="black" r="5" stroke="black" /><circle cx="425.0" cy="830.0" fill="red" r="5" stroke="red" /><circle cx="383.3" cy="780.0" fill="red" r="5" stroke="red" /><circle cx="206.7" cy="650.0" fill="black" r="5" stroke="black" /><circle cx="406.7" cy="730.0" fill="red" r="5" stroke="red" /><circle cx="173.3" cy="540.0" fill="black" r="5" stroke="black" /><circle cx="210.0" cy="530.0" fill="black" r="5" stroke="black" /><circle cx="201.7" cy="600.0" fill="black" r="5" stroke="black" /><circle cx="460.0" cy="880.0" fill="red" r="5" stroke="red" /><circle cx="430.0" cy="720.0" fill="red" r="5" stroke="red" /><circle cx="175.0" cy="480.0" fill="black" r="5" stroke="black" /><circle cx="411.7" cy="810.0" fill="red" r="5" stroke="red" /><circle cx="400.0" cy="770.0" fill="red" r="5" stroke="red" /><circle cx="483.3" cy="800.0" fill="red" r="5" stroke="red" /><circle cx="288.3" cy="550.0" fill="black" r="5" stroke="black" /><circle cx="423.3" cy="810.0" fill="red" r="5" stroke="red" /><circle cx="410.0" cy="840.0" fill="red" r="5" stroke="red" /><circle cx="470.0" cy="800.0" fill="red" r="5" stroke="red" /><circle cx="175.0" cy="620.0" fill="black" r="5" stroke="black" /><circle cx="188.3" cy="550.0" fill="black" r="5" stroke="black" /><circle cx="470.0" cy="840.0" fill="red" r="5" stroke="red" /><circle cx="506.7" cy="760.0" fill="red" r="5" stroke="red" /><circle cx="428.3" cy="770.0" fill="red" r="5" stroke="red" /><circle cx="490.0" cy="890.0" fill="red" r="5" stroke="red" /><circle cx="186.7" cy="530.0" fill="black" r="5" stroke="black" /><circle cx="170.0" cy="590.0" fill="black" r="5" stroke="black" /><circle cx="188.3" cy="580.0" fill="black" r="5" stroke="black" /><circle cx="431.7" cy="810.0" fill="red" r="5" stroke="red" /><circle cx="193.3" cy="490.0" fill="black" r="5" stroke="black" /><circle cx="220.0" cy="600.0" fill="black" r="5" stroke="black" /><circle cx="435.0" cy="740.0" fill="red" r="5" stroke="red" /><circle cx="400.0" cy="780.0" fill="red" r="5" stroke="red" /><circle cx="186.7" cy="480.0" fill="black" r="5" stroke="black" /><circle cx="435.0" cy="850.0" fill="red" r="5" stroke="red" /><circle cx="438.3" cy="820.0" fill="red" r="5" stroke="red" /><circle cx="400.0" cy="710.0" fill="red" r="5" stroke="red" /><circle cx="450.0" cy="830.0" fill="red" r="5" stroke="red" /><circle cx="196.7" cy="560.0" fill="black" r="5" stroke="black" /><circle cx="413.3" cy="910.0" fill="red" r="5" stroke="red" /><circle cx="446.7" cy="740.0" fill="red" r="5" stroke="red" /><circle cx="178.3" cy="520.0" fill="black" r="5" stroke="black" /><circle cx="226.7" cy="550.0" fill="black" r="5" stroke="black" /><circle cx="240.0" cy="530.0" fill="black" r="5" stroke="black" /><circle cx="241.7" cy="500.0" fill="black" r="5" stroke="black" /><circle cx="166.7" cy="640.0" fill="black" r="5" stroke="black" /><circle cx="383.3" cy="820.0" fill="red" r="5" stroke="red" /><circle cx="416.7" cy="810.0" fill="red" r="5" stroke="red" /><circle cx="425.0" cy="790.0" fill="red" r="5" stroke="red" /><circle cx="341.7" cy="640.0" fill="black" r="5" stroke="black" /><circle cx="183.3" cy="570.0" fill="black" r="5" stroke="black" /><circle cx="430.0" cy="730.0" fill="red" r="5" stroke="red" /><circle cx="480.0" cy="820.0" fill="red" r="5" stroke="red" /><circle cx="218.3" cy="550.0" fill="black" r="5" stroke="black" /><circle cx="450.0" cy="820.0" fill="red" r="5" stroke="red" /><circle cx="480.0" cy="940.0" fill="red" r="5" stroke="red" /><circle cx="478.3" cy="900.0" fill="red" r="5" stroke="red" /><circle cx="391.7" cy="710.0" fill="red" r="5" stroke="red" /><circle cx="391.7" cy="700.0" fill="red" r="5" stroke="red" /><circle cx="416.7" cy="780.0" fill="red" r="5" stroke="red" /><circle cx="493.3" cy="880.0" fill="red" r="5" stroke="red" /><circle cx="473.3" cy="750.0" fill="red" r="5" stroke="red" /><circle cx="458.3" cy="770.0" fill="red" r="5" stroke="red" /><circle cx="383.3" cy="750.0" fill="red" r="5" stroke="red" /><circle cx="451.7" cy="800.0" fill="red" r="5" stroke="red" /><circle cx="198.3" cy="430.0" fill="black" r="5" stroke="black" /><circle cx="510.0" cy="960.0" fill="red" r="5" stroke="red" /><circle cx="210.0" cy="490.0" fill="black" r="5" stroke="black" /><circle cx="381.7" cy="800.0" fill="red" r="5" stroke="red" /><circle cx="241.7" cy="540.0" fill="black" r="5" stroke="black" /><circle cx="191.7" cy="490.0" fill="black" r="5" stroke="black" /><circle cx="450.0" cy="810.0" fill="red" r="5" stroke="red" /><circle cx="415.0" cy="860.0" fill="red" r="5" stroke="red" /><circle cx="228.3" cy="620.0" fill="black" r="5" stroke="black" /><circle cx="220.0" cy="450.0" fill="black" r="5" stroke="black" /><circle cx="406.7" cy="690.0" fill="red" r="5" stroke="red" /><circle cx="360.0" cy="850.0" fill="red" r="5" stroke="red" /><circle cx="178.3" cy="460.0" fill="black" r="5" stroke="black" /><circle cx="203.3" cy="530.0" fill="black" r="5" stroke="black" /><circle cx="426.7" cy="780.0" fill="red" r="5" stroke="red" /><circle cx="235.0" cy="470.0" fill="black" r="5" stroke="black" /><circle cx="433.3" cy="820.0" fill="red" r="5" stroke="red" /><circle cx="201.7" cy="520.0" fill="black" r="5" stroke="black" /><circle cx="450.0" cy="840.0" fill="red" r="5" stroke="red" /><circle cx="475.0" cy="750.0" fill="red" r="5" stroke="red" /><circle cx="195.0" cy="510.0" fill="black" r="5" stroke="black" /><circle cx="200.0" cy="580.0" fill="black" r="5" stroke="black" /><circle cx="470.0" cy="880.0" fill="red" r="5" stroke="red" /><circle cx="436.7" cy="820.0" fill="red" r="5" stroke="red" /><circle cx="443.3" cy="790.0" fill="red" r="5" stroke="red" /><circle cx="433.3" cy="890.0" fill="red" r="5" stroke="red" /><circle cx="356.7" cy="710.0" fill="red" r="5" stroke="red" /><circle cx="460.0" cy="810.0" fill="red" r="5" stroke="red" /><circle cx="385.0" cy="840.0" fill="red" r="5" stroke="red" /><circle cx="408.3" cy="700.0" fill="red" r="5" stroke="red" /><circle cx="416.7" cy="830.0" fill="red" r="5" stroke="red" /><circle cx="175.0" cy="470.0" fill="black" r="5" stroke="black" /><circle cx="186.7" cy="470.0" fill="black" r="5" stroke="black" /><circle cx="306.7" cy="690.0" fill="red" r="5" stroke="red" /><circle cx="248.3" cy="620.0" fill="black" r="5" stroke="black" /><circle cx="460.0" cy="780.0" fill="red" r="5" stroke="red" /><circle cx="230.0" cy="590.0" fill="black" r="5" stroke="black" /><circle cx="200.0" cy="550.0" fill="black" r="5" stroke="black" /><circle cx="418.3" cy="860.0" fill="red" r="5" stroke="red" /><circle cx="416.7" cy="740.0" fill="red" r="5" stroke="red" /><circle cx="196.7" cy="550.0" fill="black" r="5" stroke="black" /><circle cx="481.7" cy="780.0" fill="red" r="5" stroke="red" /><circle cx="200.0" cy="590.0" fill="black" r="5" stroke="black" /><circle cx="185.0" cy="540.0" fill="black" r="5" stroke="black" /><circle cx="450.0" cy="790.0" fill="red" r="5" stroke="red" /><circle cx="181.7" cy="600.0" fill="black" r="5" stroke="black" /><circle cx="433.3" cy="810.0" fill="red" r="5" stroke="red" /><circle cx="435.0" cy="800.0" fill="red" r="5" stroke="red" /><circle cx="403.3" cy="800.0" fill="red" r="5" stroke="red" /><circle cx="456.7" cy="840.0" fill="red" r="5" stroke="red" /><circle cx="181.7" cy="460.0" fill="black" r="5" stroke="black" /><circle cx="183.3" cy="590.0" fill="black" r="5" stroke="black" /><circle cx="458.3" cy="850.0" fill="red" r="5" stroke="red" /><circle cx="500.0" cy="880.0" fill="red" r="5" stroke="red" /><circle cx="360.0" cy="790.0" fill="red" r="5" stroke="red" /><circle cx="350.0" cy="870.0" fill="red" r="5" stroke="red" /><circle cx="216.7" cy="480.0" fill="black" r="5" stroke="black" /><circle cx="333.3" cy="740.0" fill="red" r="5" stroke="red" /><circle cx="441.7" cy="900.0" fill="red" r="5" stroke="red" /><circle cx="448.3" cy="750.0" fill="red" r="5" stroke="red" /><circle cx="470.0" cy="780.0" fill="red" r="5" stroke="red" /><circle cx="415.0" cy="760.0" fill="red" r="5" stroke="red" /><circle cx="415.0" cy="750.0" fill="red" r="5" stroke="red" /><circle cx="488.3" cy="830.0" fill="red" r="5" stroke="red" /><circle cx="186.7" cy="490.0" fill="black" r="5" stroke="black" /><circle cx="480.0" cy="760.0" fill="red" r="5" stroke="red" /><circle cx="446.7" cy="770.0" fill="red" r="5" stroke="red" /><circle cx="441.7" cy="790.0" fill="red" r="5" stroke="red" /><circle cx="400.0" cy="850.0" fill="red" r="5" stroke="red" /><circle cx="433.3" cy="760.0" fill="red" r="5" stroke="red" /><circle cx="198.3" cy="590.0" fill="black" r="5" stroke="black" /><circle cx="436.7" cy="880.0" fill="red" r="5" stroke="red" /><circle cx="445.0" cy="900.0" fill="red" r="5" stroke="red" /><circle cx="453.3" cy="740.0" fill="red" r="5" stroke="red" /><circle cx="221.7" cy="500.0" fill="black" r="5" stroke="black" /><circle cx="413.3" cy="750.0" fill="red" r="5" stroke="red" /><circle cx="493.3" cy="860.0" fill="red" r="5" stroke="red" /><circle cx="435.0" cy="820.0" fill="red" r="5" stroke="red" /><circle cx="441.7" cy="870.0" fill="red" r="5" stroke="red" /><circle cx="503.3" cy="770.0" fill="red" r="5" stroke="red" /><circle cx="450.0" cy="730.0" fill="red" r="5" stroke="red" /><circle cx="463.3" cy="820.0" fill="red" r="5" stroke="red" /><circle cx="186.7" cy="510.0" fill="black" r="5" stroke="black" /><circle cx="405.0" cy="810.0" fill="red" r="5" stroke="red" /><circle cx="180.0" cy="540.0" fill="black" r="5" stroke="black" /><circle cx="400.0" cy="860.0" fill="red" r="5" stroke="red" /><circle cx="203.3" cy="510.0" fill="black" r="5" stroke="black" /><circle cx="403.3" cy="820.0" fill="red" r="5" stroke="red" /><circle cx="436.6" cy="770.0" fill="red" r="5" stroke="red" /><circle cx="183.3" cy="460.0" fill="black" r="5" stroke="black" /><circle cx="175.0" cy="540.0" fill="black" r="5" stroke="black" /><circle cx="188.3" cy="510.0" fill="black" r="5" stroke="black" /><circle cx="453.3" cy="840.0" fill="red" r="5" stroke="red" /><circle cx="391.7" cy="840.0" fill="red" r="5" stroke="red" /><circle cx="453.3" cy="850.0" fill="red" r="5" stroke="red" /><circle cx="456.7" cy="770.0" fill="red" r="5" stroke="red" /><circle cx="396.6" cy="770.0" fill="red" r="5" stroke="red" /><circle cx="481.7" cy="770.0" fill="red" r="5" stroke="red" /><circle cx="460.0" cy="850.0" fill="red" r="5" stroke="red" /><circle cx="408.3" cy="760.0" fill="red" r="5" stroke="red" /><circle cx="215.0" cy="460.0" fill="black" r="5" stroke="black" /><circle cx="388.3" cy="760.0" fill="red" r="5" stroke="red" /><circle cx="423.3" cy="760.0" fill="red" r="5" stroke="red" /><circle cx="175.0" cy="580.0" fill="black" r="5" stroke="black" /><circle cx="400.0" cy="700.0" fill="red" r="5" stroke="red" /><circle cx="463.3" cy="810.0" fill="red" r="5" stroke="red" /><circle cx="356.7" cy="730.0" fill="red" r="5" stroke="red" /><circle cx="213.3" cy="670.0" fill="black" r="5" stroke="black" /><circle cx="181.7" cy="590.0" fill="black" r="5" stroke="black" /><circle cx="443.3" cy="780.0" fill="red" r="5" stroke="red" /><circle cx="476.7" cy="780.0" fill="red" r="5" stroke="red" /><circle cx="453.3" cy="820.0" fill="red" r="5" stroke="red" /><circle cx="333.3" cy="680.0" fill="red" r="5" stroke="red" /><circle cx="225.0" cy="600.0" fill="black" r="5" stroke="black" /><circle cx="410.0" cy="700.0" fill="red" r="5" stroke="red" /><circle cx="191.7" cy="450.0" fill="black" r="5" stroke="black" /><circle cx="208.3" cy="570.0" fill="black" r="5" stroke="black" /><circle cx="193.3" cy="520.0" fill="black" r="5" stroke="black" /><circle cx="465.0" cy="900.0" fill="red" r="5" stroke="red" /><circle cx="445.0" cy="830.0" fill="red" r="5" stroke="red" /><circle cx="396.7" cy="890.0" fill="red" r="5" stroke="red" /><circle cx="360.0" cy="830.0" fill="red" r="5" stroke="red" /><circle cx="210.0" cy="600.0" fill="black" r="5" stroke="black" /><circle cx="261.7" cy="530.0" fill="black" r="5" stroke="black" /><circle cx="376.7" cy="810.0" fill="red" r="5" stroke="red" /><circle cx="480.0" cy="840.0" fill="red" r="5" stroke="red" /><circle cx="238.3" cy="710.0" fill="red" r="5" stroke="red" /><circle cx="198.3" cy="620.0" fill="black" r="5" stroke="black" /><circle cx="185.0" cy="580.0" fill="black" r="5" stroke="black" /><circle cx="420.0" cy="780.0" fill="red" r="5" stroke="red" /><circle cx="490.0" cy="820.0" fill="red" r="5" stroke="red" /><circle cx="456.7" cy="780.0" fill="red" r="5" stroke="red" /><circle cx="428.3" cy="790.0" fill="red" r="5" stroke="red" /><circle cx="225.0" cy="510.0" fill="black" r="5" stroke="black" /><circle cx="183.3" cy="630.0" fill="black" r="5" stroke="black" /><circle cx="385.0" cy="780.0" fill="red" r="5" stroke="red" /><circle cx="485.0" cy="860.0" fill="red" r="5" stroke="red" /><circle cx="441.7" cy="830.0" fill="red" r="5" stroke="red" /><circle cx="411.7" cy="790.0" fill="red" r="5" stroke="red" /><circle cx="263.3" cy="650.0" fill="black" r="5" stroke="black" /><circle cx="186.7" cy="500.0" fill="black" r="5" stroke="black" /><circle cx="471.6" cy="900.0" fill="red" r="5" stroke="red" /><circle cx="470.0" cy="830.0" fill="red" r="5" stroke="red" /><circle cx="231.7" cy="500.0" fill="black" r="5" stroke="black" /><circle cx="480.0" cy="810.0" fill="red" r="5" stroke="red" /><circle cx="458.3" cy="760.0" fill="red" r="5" stroke="red" /><circle cx="368.3" cy="810.0" fill="red" r="5" stroke="red" /><circle cx="453.3" cy="730.0" fill="red" r="5" stroke="red" /><circle cx="433.3" cy="900.0" fill="red" r="5" stroke="red" /><circle cx="436.7" cy="770.0" fill="red" r="5" stroke="red" /><circle cx="183.3" cy="540.0" fill="black" r="5" stroke="black" /><circle cx="440.0" cy="920.0" fill="red" r="5" stroke="red" /><circle cx="160.0" cy="520.0" fill="black" r="5" stroke="black" /><circle cx="425.0" cy="770.0" fill="red" r="5" stroke="red" /><circle cx="470.0" cy="730.0" fill="red" r="5" stroke="red" /><circle cx="408.3" cy="780.0" fill="red" r="5" stroke="red" /><rect fill="red" height="10" stroke="black" width="10" x="379.056441718" y="797.45398773" /><rect fill="black" height="10" stroke="red" width="10" x="161.075268817" y="544.677419355" /></svg>
