<?xml version="1.0" encoding="utf-8" ?>
<svg baseProfile="full" height="100%" version="1.1" width="100%" xmlns="http://www.w3.org/2000/svg" xmlns:ev="http://www.w3.org/2001/xml-events" xmlns:xlink="http://www.w3.org/1999/xlink"><defs /><circle cx="265.910336935" cy="538.744786568" r="1" stroke="blue" /><circle cx="201.292212549" cy="307.695653724" r="1" stroke="blue" /><circle cx="165.868883031" cy="177.209248872" r="1" stroke="blue" /><circle cx="183.681565283" cy="312.909162477" r="1" stroke="blue" /><circle cx="164.48636855" cy="125.829175802" r="1" stroke="blue" /><circle cx="181.087715285" cy="225.401759848" r="1" stroke="blue" /><circle cx="221.658624955" cy="271.752659009" r="1" stroke="blue" /><circle cx="106.506348695" cy="134.350218122" r="1" stroke="blue" /><circle cx="117.966836814" cy="54.7055040808" r="1" stroke="blue" /><circle cx="241.99803319" cy="423.272981688" r="1" stroke="blue" /><circle cx="185.326622679" cy="148.260150545" r="1" stroke="blue" /><circle cx="202.772787043" cy="306.833403895" r="1" stroke="blue" /><circle cx="253.223424178" cy="545.36666279" r="1" stroke="blue" /><circle cx="288.883083975" cy="377.75809244" r="1" stroke="blue" /><circle cx="229.021286996" cy="280.97898552" r="1" stroke="blue" /><circle cx="163.224118996" cy="187.40227524" r="1" stroke="blue" /><circle cx="140.388673303" cy="77.2647648667" r="1" stroke="blue" /><circle cx="292.891536727" cy="457.557334487" r="1" stroke="blue" /><circle cx="236.078025292" cy="321.138568632" r="1" stroke="blue" /><circle cx="158.93558738" cy="184.411981453" r="1" stroke="blue" /><circle cx="246.574234724" cy="449.854226994" r="1" stroke="blue" /><circle cx="208.179083427" cy="303.802946263" r="1" stroke="blue" /><circle cx="131.105092931" cy="50.2258705673" r="1" stroke="blue" /><circle cx="162.229218329" cy="179.195707551" r="1" stroke="blue" /><circle cx="275.897732975" cy="472.993290689" r="1" stroke="blue" /><circle cx="257.805184483" cy="380.612570675" r="1" stroke="blue" /><circle cx="112.310759446" cy="20.4551780443" r="1" stroke="blue" /><circle cx="184.119520167" cy="275.594754307" r="1" stroke="blue" /><circle cx="132.853992236" cy="119.398099229" r="1" stroke="blue" /><circle cx="257.950404781" cy="452.74141688" r="1" stroke="blue" /><circle cx="271.897021848" cy="416.881500076" r="1" stroke="blue" /><circle cx="190.849040474" cy="268.465939934" r="1" stroke="blue" /><circle cx="202.797710177" cy="316.837396114" r="1" stroke="blue" /><circle cx="152.467627644" cy="243.218606218" r="1" stroke="blue" /><circle cx="120.246963754" cy="99.2132912229" r="1" stroke="blue" /><circle cx="281.815812145" cy="447.323376428" r="1" stroke="blue" /><circle cx="229.22594215" cy="360.315588593" r="1" stroke="blue" /><circle cx="290.502776121" cy="414.955605065" r="1" stroke="blue" /><circle cx="110.020106149" cy="55.7316077059" r="1" stroke="blue" /><circle cx="230.441562888" cy="228.255552172" r="1" stroke="blue" /><circle cx="153.70155243" cy="31.9183341757" r="1" stroke="blue" /><circle cx="169.912684988" cy="165.927209715" r="1" stroke="blue" /><circle cx="107.418043265" cy="105.425743339" r="1" stroke="blue" /><circle cx="258.526189779" cy="445.883624055" r="1" stroke="blue" /><circle cx="285.322859136" cy="438.468316806" r="1" stroke="blue" /><circle cx="298.660023789" cy="521.100070745" r="1" stroke="blue" /><circle cx="203.186612244" cy="337.811637648" r="1" stroke="blue" /><circle cx="269.956237376" cy="379.511275474" r="1" stroke="blue" /><circle cx="291.506237618" cy="505.265522466" r="1" stroke="blue" /><circle cx="112.185486181" cy="20.2975974081" r="1" stroke="blue" /><circle cx="133.229169244" cy="116.763274759" r="1" stroke="blue" /><circle cx="191.771598505" cy="271.501212586" r="1" stroke="blue" /><circle cx="150.89066024" cy="149.891492449" r="1" stroke="blue" /><circle cx="281.868782842" cy="414.668173232" r="1" stroke="blue" /><circle cx="289.763527187" cy="556.892331286" r="1" stroke="blue" /><circle cx="193.93805472" cy="310.395482611" r="1" stroke="blue" /><circle cx="297.765754099" cy="525.257904596" r="1" stroke="blue" /><circle cx="299.37765272" cy="520.006410298" r="1" stroke="blue" /><circle cx="135.96764751" cy="158.938680667" r="1" stroke="blue" /><circle cx="100.982242032" cy="52.9916457235" r="1" stroke="blue" /><circle cx="272.331481254" cy="445.833054172" r="1" stroke="blue" /><circle cx="101.13685375" cy="54.0393324968" r="1" stroke="blue" /><circle cx="214.029609194" cy="312.360709157" r="1" stroke="blue" /><circle cx="270.84325532" cy="389.941892969" r="1" stroke="blue" /><circle cx="220.174393521" cy="337.836258861" r="1" stroke="blue" /><circle cx="131.379869951" cy="177.102256174" r="1" stroke="blue" /><circle cx="178.615833011" cy="240.300808017" r="1" stroke="blue" /><circle cx="299.524018376" cy="585.835270173" r="1" stroke="blue" /><circle cx="107.511232577" cy="59.1528681726" r="1" stroke="blue" /><circle cx="185.117361518" cy="255.135440247" r="1" stroke="blue" /><circle cx="163.493946099" cy="212.363670917" r="1" stroke="blue" /><circle cx="223.019413932" cy="255.202549191" r="1" stroke="blue" /><circle cx="278.825463552" cy="450.479703862" r="1" stroke="blue" /><circle cx="159.691760533" cy="143.06987944" r="1" stroke="blue" /><circle cx="217.757955483" cy="260.367190194" r="1" stroke="blue" /><circle cx="233.525375537" cy="395.15239161" r="1" stroke="blue" /><circle cx="216.168586653" cy="319.341059858" r="1" stroke="blue" /><circle cx="169.080355517" cy="114.871121158" r="1" stroke="blue" /><circle cx="100.419350795" cy="27.4787752585" r="1" stroke="blue" /><circle cx="283.400858101" cy="451.636967135" r="1" stroke="blue" /><circle cx="202.92261346" cy="317.483866922" r="1" stroke="blue" /><circle cx="189.624150059" cy="274.66231869" r="1" stroke="blue" /><circle cx="144.617171638" cy="100.877745089" r="1" stroke="blue" /><circle cx="253.670039893" cy="362.795305664" r="1" stroke="blue" /><circle cx="256.497038028" cy="464.030599684" r="1" stroke="blue" /><circle cx="171.337056136" cy="130.382595171" r="1" stroke="blue" /><circle cx="270.684814088" cy="423.282116718" r="1" stroke="blue" /><circle cx="145.425226952" cy="127.438085885" r="1" stroke="blue" /><circle cx="111.647050193" cy="37.5451592906" r="1" stroke="blue" /><circle cx="138.720020746" cy="44.1390367587" r="1" stroke="blue" /><circle cx="274.688926016" cy="506.332519515" r="1" stroke="blue" /><circle cx="121.13388689" cy="126.41332048" r="1" stroke="blue" /><circle cx="181.011193912" cy="224.536699648" r="1" stroke="blue" /><circle cx="113.323174332" cy="176.143687118" r="1" stroke="blue" /><circle cx="286.805056317" cy="493.980558944" r="1" stroke="blue" /><circle cx="167.244056004" cy="170.440442851" r="1" stroke="blue" /><circle cx="264.84278156" cy="435.837784489" r="1" stroke="blue" /><circle cx="115.774322802" cy="13.3882276776" r="1" stroke="blue" /><circle cx="262.711483718" cy="436.441292503" r="1" stroke="blue" /><circle cx="185.606072124" cy="215.885640296" r="1" stroke="blue" /><line stroke="black" x1="0" x2="400" y1="-207.672609433" y2="752.224549555" /></svg>